<svg width="139" height="366" viewBox="0 0 139 366" fill="none" xmlns="http://www.w3.org/2000/svg"><g clip-path="url(#clip0_8810_1786)"><circle cx="2.77136" cy="18.4432" r="0.0994825" fill="#241F21"/><path d="M77.9492 367.106H117.053V0.183594H77.9492V367.09V367.106ZM91.6013 18.7486C93.1777 17.1721 95.2592 16.3151 97.4937 16.3151C99.7282 16.3151 101.81 17.1874 103.386 18.7486C104.963 20.325 105.82 22.4065 105.82 24.641C105.82 26.8755 104.947 28.957 103.386 30.5334C101.81 32.1098 99.7282 32.9669 97.4937 32.9669C95.2592 32.9669 93.1777 32.0945 91.6013 30.5334C90.0249 28.957 89.1678 26.8755 89.1678 24.641C89.1678 22.4065 90.0402 20.325 91.6013 18.7486ZM86.4741 288.591L86.5047 288.545L86.6118 288.484L86.8108 288.423L87.0863 288.361L87.4383 288.3L87.8669 288.254L88.3719 288.208L88.9535 288.162L89.5963 288.117L90.3004 288.071L91.0656 288.04L91.8768 288.009L92.7338 287.979H93.6368L94.5704 287.933H95.5194L96.4683 287.918V286.969C96.4683 286.555 96.805 286.219 97.2182 286.219H97.708C98.1212 286.219 98.4579 286.555 98.4579 286.969V287.918H99.4068L100.356 287.933H101.289L102.192 287.979L103.049 288.009L103.861 288.04L104.626 288.071L105.345 288.117L105.988 288.162L106.57 288.208L107.075 288.254L107.518 288.3L107.87 288.361L108.146 288.423L108.345 288.484L108.452 288.545L108.483 288.591V289.815L108.421 289.877L108.268 289.938L108.039 289.999L107.717 290.045L107.32 290.106L106.845 290.152L106.294 290.198L105.682 290.244L104.993 290.29L104.259 290.336L103.463 290.366L102.621 290.397L101.733 290.428H100.815L99.8813 290.458H98.9171H98.4426V339.296C98.4426 339.71 98.1059 340.046 97.6927 340.046H97.2029C96.7897 340.046 96.453 339.71 96.453 339.296V290.458H95.9785H95.0143H94.0807L93.1624 290.428L92.2747 290.397L91.4329 290.366L90.6371 290.336L89.9024 290.29L89.2137 290.244L88.6015 290.198L88.0505 290.152L87.5761 290.106L87.1781 290.045L86.8567 289.999L86.6272 289.938L86.4741 289.877L86.4129 289.815V288.591H86.4741Z" fill="#E9E778" stroke="#241F21" stroke-miterlimit="10"/><path d="M128.806 48.21V48.1641H128.5C128.408 48.1641 128.301 48.1641 128.209 48.1641C127.949 48.1641 127.673 48.1641 127.398 48.1641H127.306C127.153 48.1641 126.985 48.1641 126.832 48.1641H126.801C126.801 48.1641 126.663 48.1641 126.587 48.1641C126.556 48.1641 126.541 48.1641 126.51 48.1641C126.495 48.1641 126.48 48.1641 126.464 48.1641C126.434 48.1641 126.388 48.1641 126.357 48.1641C126.281 48.1641 126.204 48.1794 126.128 48.21C126.112 48.21 126.097 48.2253 126.082 48.2406C126.082 48.2406 126.066 48.2406 126.051 48.2559C126.036 48.2559 126.02 48.2559 126.005 48.2712C125.975 48.2712 125.944 48.3018 125.913 48.3171C125.898 48.3171 125.883 48.3477 125.867 48.363C125.867 48.363 125.852 48.363 125.837 48.3783C125.837 48.3783 125.806 48.3936 125.791 48.4089C125.76 48.4242 125.745 48.4549 125.714 48.4702C125.714 48.4855 125.684 48.5008 125.668 48.5314C125.668 48.5314 125.653 48.5467 125.638 48.562C125.638 48.562 125.623 48.5926 125.607 48.5926C125.592 48.6232 125.561 48.6385 125.546 48.6691C125.546 48.6844 125.515 48.715 125.515 48.7303C125.515 48.7303 125.515 48.7457 125.5 48.761C125.5 48.761 125.5 48.7916 125.485 48.8069C125.485 48.8375 125.454 48.8528 125.439 48.8834C125.408 48.9446 125.408 49.0211 125.393 49.0824H125.424V51.8985H125.316V52.8015C125.316 52.8015 125.332 52.8321 125.347 52.8474C125.439 53.0004 125.531 53.1535 125.607 53.3065C125.76 53.5973 125.929 53.8881 126.128 54.1636C126.128 54.1636 126.128 54.1636 126.128 54.1789C126.265 54.3932 126.388 54.6075 126.51 54.8217C126.633 55.0513 126.77 55.2809 126.908 55.4952C126.908 55.4952 126.939 55.4952 126.969 55.4799C127.015 55.4645 127.076 55.4339 127.153 55.4033C127.23 55.3727 127.337 55.3268 127.459 55.2656C127.582 55.2197 127.704 55.1584 127.857 55.0972C127.995 55.036 128.163 54.9595 128.316 54.8983C128.469 54.8217 128.638 54.7452 128.806 54.684C128.928 54.6228 129.051 54.5769 129.173 54.5156C129.296 54.4544 129.418 54.4085 129.525 54.3626C129.648 54.3167 129.755 54.2555 129.847 54.2095L130.168 54.0718C130.168 54.0718 130.306 54.0106 130.367 53.98L130.428 53.9494C130.428 53.9494 130.52 53.9034 130.551 53.9034H130.581C130.612 53.9034 130.643 53.8881 130.658 53.8728C130.658 53.8728 130.658 53.8728 130.673 53.8575C130.643 53.7351 130.597 53.6433 130.566 53.5361V53.4749C130.489 53.3218 130.428 53.1382 130.367 52.9545L130.336 52.878C130.306 52.8015 130.275 52.7096 130.245 52.6331L130.153 52.3729C130.107 52.2352 130.046 52.0821 130 51.9444V51.9138C129.939 51.776 129.893 51.6077 129.831 51.4546C129.785 51.3322 129.755 51.2251 129.709 51.1179C129.709 51.1179 129.678 51.0414 129.663 51.0108C129.602 50.8271 129.525 50.6129 129.464 50.4139C129.418 50.2915 129.388 50.169 129.342 50.0619C129.25 49.7711 129.097 49.3579 129.02 49.0977V49.0671C128.974 48.9599 128.928 48.8375 128.898 48.7303C128.898 48.6997 128.867 48.6538 128.852 48.6232C128.821 48.5467 128.806 48.5008 128.791 48.4396L128.76 48.2406L128.806 48.21Z" stroke="#241F21" stroke-miterlimit="10"/><path d="M130.554 38.3404V48.6559L130.585 48.6865H130.616L130.662 48.7172H131.09H133.906H133.967C134.411 48.6712 134.87 48.6712 135.314 48.7172H135.345C135.345 48.7172 135.36 48.7172 135.376 48.7172C135.376 48.7172 135.406 48.7018 135.406 48.6865C135.406 48.6865 135.437 48.6406 135.467 48.61C135.467 48.61 135.467 48.5947 135.483 48.5947C135.498 48.5641 135.513 48.5029 135.513 48.4723C135.513 48.4723 135.544 48.1509 135.574 47.906C135.574 47.7682 135.605 47.6152 135.605 47.5081C135.605 47.5081 135.605 47.4621 135.605 47.4468C135.605 47.4468 135.605 47.4315 135.605 47.4162C135.605 47.3397 135.605 47.2479 135.62 47.1713C135.62 47.1713 135.62 47.0948 135.62 47.0489C135.636 46.8499 135.651 46.6357 135.666 46.4214V46.3602C135.666 46.2684 135.666 46.1918 135.682 46.1C135.682 45.8704 135.712 45.6102 135.712 45.3807C135.712 45.3807 135.712 45.2429 135.712 45.197C135.712 45.0899 135.712 44.9674 135.712 44.8603V44.6919C135.712 44.5695 135.712 44.4624 135.712 44.3399V44.2328C135.712 44.2328 135.712 44.1256 135.712 44.0797V43.7736V43.743C135.712 43.4369 135.712 42.7329 135.712 42.5339V42.5033V42.2431V41.7228L135.682 41.2024L135.62 40.177L135.529 39.0444L135.437 38.1261L135.391 37.9883L135.314 37.8812L135.207 37.82H135.192L135.085 37.8047H134.488H133.799H131.044H130.463H130.417L130.386 37.8353L130.355 37.8659V37.9118V38.4016L130.554 38.3404Z" stroke="#241F21" stroke-miterlimit="10"/><path d="M124.567 49.0989H125.409C125.409 49.0989 125.409 48.9459 125.455 48.8846C125.455 48.854 125.486 48.8387 125.501 48.8081C125.501 48.8081 125.516 48.7775 125.516 48.7622C125.516 48.7622 125.516 48.7469 125.532 48.7316C125.532 48.7163 125.562 48.6857 125.562 48.6704C125.577 48.6398 125.608 48.6244 125.623 48.5938C125.623 48.5938 125.639 48.5785 125.654 48.5632C125.654 48.5632 125.669 48.5479 125.669 48.5326C125.685 48.5173 125.7 48.4867 125.715 48.4714C125.746 48.4408 125.761 48.4255 125.792 48.4102C125.792 48.4102 125.822 48.3949 125.838 48.3796C125.838 48.3796 125.853 48.3796 125.868 48.3643C125.884 48.3643 125.899 48.3337 125.929 48.3183C125.96 48.303 125.991 48.2877 126.021 48.2724C126.021 48.2724 126.052 48.2724 126.067 48.2571C126.067 48.2571 126.083 48.2571 126.098 48.2571C126.113 48.2571 126.128 48.2418 126.144 48.2265C126.22 48.1959 126.297 48.1806 126.373 48.1806C126.404 48.1806 126.45 48.1806 126.48 48.1806C126.496 48.1806 126.511 48.1806 126.526 48.1806C126.557 48.1806 126.572 48.1806 126.603 48.1806C126.679 48.1806 126.741 48.1806 126.817 48.1806H126.848C127.001 48.1806 127.169 48.1806 127.322 48.1806H127.414C127.674 48.1806 127.95 48.1806 128.225 48.1806C128.317 48.1806 128.424 48.1806 128.516 48.1806H130.567V38.416H127.429C127.062 38.416 126.695 38.416 126.327 38.416C125.838 38.416 125.348 38.416 124.843 38.416H124.629C124.491 38.416 124.338 38.416 124.2 38.416H123.879C123.251 38.416 122.624 38.416 121.996 38.416V49.1601H124.598L124.567 49.0989Z" stroke="#241F21" stroke-miterlimit="10"/><path d="M125.316 51.9297H124.046H121.949V54.3632H125.286L125.316 51.9297Z" stroke="#241F21" stroke-miterlimit="10"/><path d="M21.6246 14.6778C21.5787 14.9533 21.5328 15.2135 21.4563 15.4736C21.395 15.7185 21.3185 15.9634 21.2267 16.193C21.1196 16.4685 21.0124 16.744 20.8747 17.0041C20.7216 17.2796 20.5686 17.5551 20.3849 17.8153C20.1859 18.1061 19.9564 18.3816 19.7268 18.6418C19.5125 18.8713 19.2676 19.1009 19.0075 19.3152C18.7473 19.5295 18.4565 19.7284 18.1657 19.9121C17.8596 20.0957 17.5535 20.2641 17.2168 20.4018C16.8801 20.5396 16.5281 20.662 16.176 20.7539C15.8087 20.8457 15.4108 20.9222 15.0282 20.9528C14.7986 20.9681 14.5537 20.9834 14.3241 20.9834C14.1558 20.9834 14.0027 20.9834 13.8344 20.9681C13.4364 20.9375 13.0385 20.8763 12.6406 20.7845C12.2427 20.6926 11.8447 20.5549 11.4621 20.4018C11.0948 20.2488 10.7428 20.0651 10.4061 19.8509C10.0693 19.6366 9.74794 19.3917 9.44184 19.1315C9.18165 18.902 8.92147 18.6418 8.69189 18.3663C8.46232 18.1061 8.26335 17.8153 8.07969 17.5245C7.92664 17.2796 7.7889 17.0347 7.66646 16.7746C7.55932 16.5297 7.45219 16.2848 7.36036 16.0399C7.28383 15.8257 7.22261 15.5961 7.16139 15.3665C7.11548 15.1675 7.06956 14.9686 7.03895 14.7696C7.03895 14.6778 7.00834 14.3717 6.97773 14.1115C6.96243 13.8513 6.74816 13.6523 6.48797 13.6523C5.41662 13.6523 2.75355 13.6523 1.23836 13.6523C0.626159 13.6523 0.121094 14.1574 0.121094 14.7696V29.6308C0.121094 30.243 0.626159 30.748 1.23836 30.748H72.9576V13.6523H22.1603C21.9001 13.6523 21.6858 13.8513 21.6705 14.1115C21.6552 14.3411 21.6399 14.6013 21.6246 14.6931V14.6778Z" stroke="#241F21" stroke-miterlimit="10"/><path d="M124.949 54.3633H121.949V55.3581H124.949V54.3633Z" stroke="#241F21" stroke-miterlimit="10"/><path d="M122.791 63.4079H124.046H124.827V55.3574H121.949V63.4079H122.5H122.791Z" stroke="#241F21" stroke-miterlimit="10"/><path d="M77.9178 2.63281H73.0508V364.474H77.9178V2.63281Z" fill="#E9E778" stroke="#241F21" stroke-miterlimit="10"/><path d="M131.073 235.345V234.641H127.676V235.345H127.921H131.073Z" stroke="#241F21" stroke-miterlimit="10"/><path d="M127.934 154.917C127.934 154.748 127.934 154.58 127.949 154.396C127.949 153.983 127.98 153.57 127.98 153.141V153.065C127.98 152.82 127.995 152.59 127.995 152.346V152.284C127.995 152.055 127.995 151.825 128.01 151.611C128.01 151.305 128.025 150.999 128.041 150.677C128.041 150.295 128.056 149.927 128.071 149.545C128.071 149.101 128.087 148.657 128.102 148.229C128.102 147.754 128.117 147.326 128.133 146.912C128.133 146.423 128.148 145.933 128.163 145.474C128.163 144.923 128.163 144.418 128.178 143.943C128.178 143.423 128.178 142.887 128.178 142.351C128.178 141.724 128.178 141.219 128.178 140.806C128.178 140.561 128.178 140.331 128.178 140.102" stroke="#241F21" stroke-miterlimit="10"/><path d="M128.96 138.709C128.96 138.556 128.96 138.403 128.96 138.25C128.96 138.112 128.96 137.975 128.96 137.837C128.96 137.638 128.96 137.439 128.96 137.255V136.505C128.96 136.276 128.96 136.062 128.96 135.847C128.96 135.602 128.96 135.358 128.96 135.113C128.96 134.852 128.96 134.592 128.96 134.332C128.96 134.057 128.96 133.781 128.929 133.536C128.929 133.261 128.914 133.016 128.899 132.771C128.899 132.557 128.884 132.342 128.868 132.159C128.868 131.99 128.838 131.822 128.838 131.669C128.838 131.531 128.807 131.409 128.807 131.286C128.807 131.179 128.792 131.087 128.776 131.011C128.776 130.934 128.761 130.873 128.746 130.812C128.746 130.751 128.73 130.674 128.715 130.613C128.715 130.613 128.715 130.613 128.715 130.598C128.501 130.628 128.287 130.659 128.057 130.659C127.965 130.659 127.889 130.659 127.797 130.659C127.797 130.705 127.797 130.751 127.797 130.797C127.797 131.164 127.797 131.562 127.812 131.99C127.812 132.45 127.812 132.939 127.827 133.444C127.827 133.98 127.827 134.562 127.843 135.159C127.843 135.771 127.843 136.414 127.858 137.087C127.858 137.745 127.858 138.449 127.873 139.153C127.873 139.444 127.873 139.75 127.873 140.056L128.945 139.214C128.945 139.061 128.945 138.893 128.945 138.74L128.96 138.709Z" stroke="#241F21" stroke-miterlimit="10"/><path d="M128.378 129.496C128.378 129.496 128.408 129.542 128.439 129.588C128.47 129.633 128.485 129.695 128.515 129.771C128.546 129.848 128.577 129.94 128.592 130.031C128.623 130.123 128.638 130.215 128.653 130.322C128.668 130.399 128.684 130.506 128.699 130.598C128.699 130.659 128.714 130.735 128.73 130.797C128.73 130.858 128.745 130.934 128.76 130.996C128.76 131.087 128.776 131.179 128.791 131.286C128.791 131.409 128.822 131.531 128.822 131.669C128.822 131.822 128.852 131.99 128.852 132.159C128.852 132.358 128.883 132.557 128.883 132.771C128.883 133.016 128.913 133.276 128.913 133.536C128.913 133.781 128.929 134.057 128.929 134.332C128.929 134.592 128.929 134.852 128.944 135.113C128.944 135.342 128.944 135.587 128.944 135.847C128.944 136.062 128.944 136.291 128.944 136.505C128.944 136.75 128.944 137.01 128.944 137.255C128.944 137.439 128.944 137.638 128.944 137.837C128.944 137.975 128.944 138.112 128.944 138.25C128.944 138.403 128.944 138.556 128.944 138.709C128.944 138.893 128.944 139.092 128.944 139.291C128.944 139.597 128.944 139.918 128.929 140.24C128.929 140.622 128.913 141.005 128.898 141.418C128.898 141.847 128.883 142.291 128.867 142.735C128.852 143.331 128.837 143.944 128.806 144.571C128.791 145.214 128.76 145.872 128.745 146.561C128.714 147.234 128.699 147.954 128.668 148.688C128.638 149.423 128.607 150.188 128.577 150.969C128.546 151.734 128.515 152.514 128.47 153.387C128.439 154.167 128.393 155.009 128.347 155.851C128.316 156.631 128.271 157.427 128.24 158.223C128.209 158.973 128.163 159.723 128.133 160.473C128.102 161.177 128.072 161.881 128.026 162.6L127.934 164.529V166.411C127.934 167.697 127.934 168.875 127.934 170.008C127.934 171.324 127.934 172.549 127.934 173.758C127.934 175.151 127.934 176.421 127.934 177.615C127.934 179.007 127.934 180.308 127.903 181.563C127.903 182.665 127.888 183.737 127.873 184.747C127.873 185.849 127.857 186.92 127.842 187.93C127.842 189.002 127.811 190.058 127.796 191.083C127.781 192.124 127.766 193.149 127.735 194.159C127.72 195.124 127.689 196.088 127.674 197.052C127.658 197.97 127.628 198.889 127.597 199.776C127.567 200.649 127.551 201.506 127.521 202.332C127.49 203.143 127.459 203.939 127.429 204.72C127.398 205.47 127.368 206.22 127.337 206.939C127.306 207.628 127.276 208.332 127.245 209.005C127.245 209.296 127.215 209.571 127.199 209.847V210.077C127.215 210.49 127.23 210.888 127.245 211.286C127.26 211.729 127.766 216.229 127.766 223.239C127.766 224.019 127.766 224.8 127.766 225.565H129.924H130.903C130.903 224.127 130.888 222.657 130.857 221.173C130.842 219.826 130.811 218.494 130.781 216.903C130.75 215.586 130.719 214.194 130.673 212.663C130.658 211.867 130.628 211.071 130.612 210.275C130.612 209.694 130.582 209.128 130.566 208.546C130.52 206.908 130.49 205.577 130.459 204.337C130.429 202.715 130.398 201.246 130.367 199.853C130.337 198.169 130.321 196.639 130.291 195.169C130.276 193.532 130.26 191.909 130.26 190.333C130.26 188.221 130.26 186.323 130.276 184.502C130.291 182.971 130.321 181.426 130.352 179.926C130.398 179.115 130.474 176.543 130.566 172.977C130.704 167.743 130.888 160.565 131.163 153.647C131.27 151.137 131.377 148.749 131.5 146.438C131.729 141.786 131.928 137.76 131.898 134.546C131.867 131.026 131.546 128.868 130.903 127.782C130.122 126.45 129.418 126.312 128.959 126.419C128.209 126.603 127.674 127.583 127.643 128.179V128.225" stroke="#241F21" stroke-miterlimit="10"/><path d="M121.964 2.63281H117.066V364.474H121.964V2.63281Z" fill="#E9E778" stroke="#241F21" stroke-miterlimit="10"/><path d="M131.961 136.796L137.012 132.924C137.563 132.496 138.022 131.929 138.328 131.302C138.634 130.674 138.802 129.97 138.802 129.266V119.992C138.802 119.456 138.374 119.027 137.838 119.027H135.389C134.854 119.027 134.425 119.456 134.425 119.992V125.915C134.425 127.613 133.339 129.113 131.716 129.649L131.594 129.695C131.823 130.889 131.946 132.48 131.961 134.562C131.961 135.281 131.961 136.031 131.961 136.827V136.796Z" stroke="#241F21" stroke-miterlimit="10"/><path d="M124.446 129.373C124.446 129.312 124.446 129.236 124.446 129.174C124.446 128.914 124.461 128.685 124.476 128.47C124.476 128.348 124.492 128.241 124.507 128.149C124.507 128.042 124.537 127.965 124.553 127.874C124.568 127.782 124.599 127.69 124.614 127.598C124.614 127.567 124.645 127.522 124.645 127.491C124.645 127.46 124.675 127.43 124.69 127.399C124.69 127.368 124.721 127.338 124.752 127.292C124.752 127.277 124.782 127.246 124.813 127.2C124.844 127.154 124.874 127.124 124.92 127.078C124.966 127.032 125.012 126.986 125.073 126.94C125.134 126.879 125.211 126.833 125.287 126.787C125.379 126.741 125.471 126.695 125.578 126.664C125.685 126.634 125.808 126.603 125.915 126.588C126.022 126.588 126.144 126.588 126.252 126.588C126.359 126.588 126.466 126.634 126.573 126.664C126.665 126.695 126.772 126.741 126.848 126.787C126.925 126.833 126.986 126.879 127.063 126.94C127.155 127.016 127.231 127.093 127.308 127.2C127.338 127.231 127.354 127.261 127.369 127.292C127.369 127.307 127.399 127.338 127.415 127.353C127.445 127.399 127.461 127.43 127.476 127.46C127.491 127.491 127.507 127.521 127.522 127.552C127.553 127.629 127.568 127.675 127.583 127.72C127.598 127.782 127.614 127.828 127.614 127.874C127.614 127.935 127.629 127.996 127.629 128.042C127.629 128.149 127.644 128.271 127.66 128.44C127.675 128.608 127.675 128.792 127.69 129.006C127.69 129.22 127.69 129.465 127.706 129.756C127.706 129.94 127.706 130.123 127.706 130.322C127.706 130.399 127.706 130.475 127.706 130.552C127.706 130.598 127.706 130.644 127.706 130.69C127.706 131.057 127.706 131.455 127.721 131.883C127.721 132.343 127.721 132.832 127.736 133.337C127.736 133.873 127.736 134.455 127.751 135.052C127.751 135.664 127.751 136.307 127.767 136.98C127.767 137.638 127.767 138.342 127.782 139.046C127.782 139.352 127.782 139.658 127.782 139.98C127.782 140.087 127.782 140.179 127.782 140.286C127.782 140.607 127.782 140.913 127.782 141.235C127.782 142.168 127.782 143.133 127.797 144.112C127.797 145.076 127.797 146.086 127.813 147.112C127.813 148.107 127.813 149.147 127.813 150.188C127.813 151.214 127.813 152.254 127.813 153.31C127.813 154.03 127.813 154.764 127.813 155.514C127.813 155.82 127.813 156.142 127.813 156.448C127.813 157.489 127.813 158.529 127.813 159.601C127.813 160.687 127.813 161.774 127.813 162.876V166.32C127.813 167.605 127.813 168.784 127.813 169.916C127.813 171.233 127.813 172.457 127.813 173.666C127.813 175.059 127.813 176.329 127.813 177.523C127.813 178.916 127.813 180.217 127.782 181.472C127.782 182.574 127.767 183.645 127.751 184.655C127.751 185.757 127.736 186.828 127.721 187.839C127.721 188.91 127.69 189.966 127.675 190.991C127.66 192.032 127.644 193.058 127.614 194.068C127.598 195.032 127.568 196.011 127.553 196.976C127.537 197.894 127.507 198.812 127.476 199.7C127.445 200.572 127.415 201.429 127.399 202.256C127.369 203.067 127.338 203.863 127.308 204.643C127.277 205.393 127.246 206.143 127.216 206.863C127.185 207.551 127.155 208.255 127.124 208.929C127.124 209.128 127.109 209.327 127.093 209.526V209.786C127.063 210.306 127.032 210.811 127.002 211.301C126.956 212.036 126.925 212.755 126.879 213.444C126.833 214.117 126.787 214.791 126.741 215.418C126.695 216.076 126.65 216.704 126.604 217.301C126.573 217.637 126.558 217.959 126.527 218.265C126.512 218.464 126.496 218.663 126.481 218.846C126.435 219.352 126.389 219.841 126.343 220.3C126.298 220.775 126.252 221.219 126.19 221.647C126.144 222.076 126.083 222.474 126.037 222.856C125.991 223.178 125.945 223.469 125.9 223.744C125.854 224.02 125.808 224.28 125.762 224.509C125.716 224.739 125.67 224.953 125.624 225.167C125.578 225.382 125.532 225.55 125.471 225.718C125.41 225.902 125.349 226.086 125.287 226.239C125.226 226.376 125.15 226.545 124.997 226.759C124.935 226.851 124.828 226.973 124.675 227.111C124.568 227.203 124.4 227.325 124.17 227.417C123.956 227.509 123.726 227.54 123.497 227.54C123.374 227.54 123.252 227.524 123.129 227.494C123.007 227.463 122.9 227.433 122.793 227.371C122.624 227.295 122.471 227.188 122.334 227.065C122.211 226.943 122.104 226.82 122.012 226.667C121.936 226.56 121.89 226.438 121.844 226.331V144.556" stroke="#241F21" stroke-miterlimit="10"/><path d="M124.003 143.347C124.003 144.632 124.003 145.918 124.003 147.188C124.003 148.489 124.003 149.821 124.003 151.152C124.003 152.438 124.003 153.632 124.003 154.78C124.003 155.897 124.003 157.029 124.019 158.147C124.019 159.203 124.034 160.259 124.049 161.254C124.049 162.294 124.065 163.213 124.08 164.1C124.08 164.973 124.095 165.86 124.111 166.733C124.111 167.513 124.126 168.309 124.141 169.12C124.141 169.855 124.157 170.574 124.172 171.309C124.172 171.982 124.187 172.656 124.202 173.329L124.233 175.212C124.233 176.023 124.264 176.972 124.279 177.936C124.279 178.839 124.31 179.666 124.31 180.446C124.31 181.242 124.325 182.038 124.34 182.788C124.34 183.476 124.34 184.226 124.355 184.976C124.355 185.558 124.355 186.14 124.355 186.706C124.355 187.241 124.355 187.792 124.355 188.328C124.355 188.833 124.355 189.338 124.355 189.843C124.355 190.318 124.355 190.777 124.355 191.251V192.629C124.355 193.134 124.355 193.654 124.355 194.159C124.355 194.925 124.355 195.69 124.355 196.455C124.355 197.312 124.355 198.169 124.355 199.011C124.355 199.485 124.355 199.945 124.355 200.419C124.355 200.511 124.355 200.603 124.355 200.695C124.325 201.613 124.294 202.516 124.264 203.404C124.233 204.23 124.202 205.072 124.172 205.868C124.141 206.618 124.111 207.368 124.08 208.117C124.049 208.822 124.019 209.495 123.973 210.153C123.942 210.781 123.912 211.393 123.866 211.99C123.835 212.556 123.805 213.122 123.759 213.643C123.728 214.041 123.713 214.438 123.682 214.836C123.651 215.219 123.636 215.602 123.606 215.969C123.575 216.382 123.544 216.78 123.514 217.163C123.483 217.591 123.437 218.005 123.407 218.402C123.361 218.831 123.33 219.26 123.284 219.657C123.254 220.025 123.208 220.377 123.177 220.698C123.146 221.05 123.1 221.372 123.055 221.693C123.024 221.999 122.978 222.29 122.932 222.565C122.902 222.826 122.856 223.07 122.825 223.3C122.794 223.514 122.748 223.713 122.718 223.897C122.687 224.065 122.657 224.218 122.626 224.371C122.595 224.509 122.565 224.632 122.534 224.723C122.519 224.785 122.504 224.846 122.488 224.892C122.488 224.907 122.488 224.922 122.488 224.938C122.488 224.968 122.488 224.968 122.488 224.984C122.488 224.984 122.488 224.984 122.488 224.953C122.488 224.953 122.488 224.922 122.488 224.907C122.488 224.861 122.519 224.815 122.534 224.739C122.565 224.647 122.595 224.524 122.626 224.387C122.657 224.234 122.687 224.081 122.718 223.912C122.748 223.729 122.794 223.53 122.825 223.315C122.856 223.086 122.902 222.841 122.932 222.581C122.978 222.305 123.009 222.014 123.055 221.708C123.085 221.387 123.131 221.05 123.177 220.714C123.208 220.392 123.254 220.04 123.284 219.673C123.33 219.275 123.361 218.846 123.407 218.418C123.437 218.02 123.483 217.607 123.514 217.178C123.544 216.795 123.575 216.397 123.606 215.984C123.636 215.617 123.667 215.234 123.682 214.852C123.713 214.454 123.743 214.056 123.759 213.658C123.789 213.138 123.82 212.571 123.866 212.005C123.896 211.408 123.927 210.796 123.973 210.168C124.003 209.51 124.034 208.837 124.08 208.133C124.111 207.398 124.141 206.633 124.172 205.883C124.202 205.072 124.233 204.245 124.264 203.419C124.294 202.531 124.325 201.628 124.355 200.71C124.386 199.761 124.417 198.781 124.432 197.787C124.463 196.761 124.478 195.69 124.509 194.649C124.524 193.746 124.539 192.858 124.554 191.971C124.57 191.037 124.585 190.088 124.6 189.155C124.6 188.206 124.631 187.211 124.631 186.185C124.631 185.191 124.646 184.15 124.662 183.079C124.662 182.053 124.677 180.997 124.692 179.864C124.692 178.808 124.692 177.722 124.708 176.543C124.708 175.503 124.708 174.385 124.708 173.146C124.708 172.028 124.708 170.865 124.708 169.687C124.708 168.554 124.708 167.376 124.708 166.197C124.708 165.019 124.708 163.855 124.708 162.692C124.708 161.514 124.708 160.351 124.708 159.203C124.708 158.024 124.708 156.876 124.708 155.744C124.708 154.596 124.708 153.448 124.708 152.346C124.708 151.214 124.708 150.112 124.708 149.04C124.708 147.999 124.708 146.974 124.708 145.964C124.708 145.015 124.708 144.066 124.692 143.163C124.692 142.291 124.692 141.449 124.677 140.638C124.677 139.857 124.677 139.107 124.662 138.388C124.662 137.699 124.662 137.041 124.646 136.398C124.646 135.801 124.646 135.22 124.631 134.669C124.631 134.148 124.631 133.659 124.616 133.2C124.616 132.756 124.616 132.342 124.6 131.96C124.6 131.593 124.6 131.256 124.6 130.95C124.6 130.659 124.6 130.383 124.6 130.139C124.6 129.909 124.6 129.695 124.6 129.526C124.6 129.419 124.6 129.327 124.6 129.236C124.6 129.144 124.6 129.067 124.6 129.006C124.6 128.945 124.6 128.884 124.6 128.838C124.6 128.838 124.6 128.746 124.6 128.73" stroke="#241F21" stroke-miterlimit="10"/><path d="M131.685 233.631H127.062V234.626H131.685V233.631Z" stroke="#241F21" stroke-miterlimit="10"/><path d="M129.968 225.58H127.305V233.63H131.452V225.58H129.998H129.968Z" stroke="#241F21" stroke-miterlimit="10"/><path d="M131.442 251.629H127.295H127.188V252.455H127.31H131.427H131.565V251.629H131.442Z" stroke="#241F21" stroke-miterlimit="10"/><path d="M126.57 244.513H131.743H132.172V241.482H131.743H126.57V244.513Z" stroke="#241F21" stroke-miterlimit="10"/><path d="M127.31 251.614H131.427L131.565 245.768H131.228H127.188L127.31 251.614Z" stroke="#241F21" stroke-miterlimit="10"/><path d="M130.766 244.543H127.98V245.752H130.766V244.543Z" stroke="#241F21" stroke-miterlimit="10"/><path d="M126.941 237.32V238.04H131.808V237.32H127.921H126.941Z" stroke="#241F21" stroke-miterlimit="10"/><path d="M126.492 235.375V237.319H132.232V235.375H127.655H126.492Z" stroke="#241F21" stroke-miterlimit="10"/><path d="M131.565 238.055H127.188V241.452H131.565V238.055Z" stroke="#241F21" stroke-miterlimit="10"/><path d="M130.967 259.939H127.493L127.141 260.904H131.258H131.594L131.258 259.939H130.967Z" stroke="#241F21" stroke-miterlimit="10"/><path d="M131.395 253.313L131.411 252.486H127.324L127.34 253.313H131.395Z" stroke="#241F21" stroke-miterlimit="10"/><path d="M127.49 259.925H130.964H131.239L131.377 254.201H127.367L127.49 259.925Z" stroke="#241F21" stroke-miterlimit="10"/><path d="M131.412 253.344H127.341H127.188V254.17H127.356H131.381H131.565V253.344H131.412Z" stroke="#241F21" stroke-miterlimit="10"/><path d="M127.141 260.92V261.884H131.258H131.61V260.92H131.258H127.141Z" stroke="#241F21" stroke-miterlimit="10"/><path d="M124.69 142.49C124.69 141.862 124.69 141.235 124.69 140.638C124.69 139.857 124.69 139.107 124.675 138.388C124.675 137.699 124.675 137.041 124.66 136.398C124.66 135.802 124.66 135.22 124.644 134.669C124.644 134.149 124.644 133.659 124.644 133.2C124.644 132.756 124.644 132.343 124.629 131.96C124.629 131.593 124.629 131.256 124.629 130.95C124.629 130.659 124.629 130.384 124.629 130.139C124.629 129.986 124.629 129.833 124.629 129.695L124.446 129.634C123.328 129.266 122.456 128.425 122.027 127.338V144.357C122.456 144.189 122.854 143.974 123.206 143.699L124.752 142.505L124.69 142.49Z" stroke="#241F21" stroke-miterlimit="10"/><path d="M124.414 143.041C124.414 143.546 124.414 144.051 124.414 144.587C124.414 145.444 124.414 146.393 124.429 147.479C124.429 148.597 124.445 149.622 124.46 150.617C124.46 151.581 124.475 152.53 124.491 153.433C124.491 154.428 124.506 155.438 124.521 156.418C124.521 157.412 124.552 158.484 124.567 159.57C124.582 160.688 124.598 161.805 124.613 162.892C124.628 163.994 124.644 165.126 124.674 166.366C124.705 167.743 124.72 168.891 124.735 169.963C124.735 170.269 124.735 170.575 124.751 170.881C124.751 170.483 124.751 170.085 124.751 169.687" stroke="#241F21" stroke-miterlimit="10"/><path d="M124.553 129.435L124.461 129.404" stroke="#241F21" stroke-miterlimit="10"/><path d="M121.949 126.296V63.4082H124.245V129.342" fill="#E9E778"/><path d="M121.949 126.296V63.4082H124.245V129.342" stroke="#241F21" stroke-miterlimit="10"/><path d="M97.2145 23.8312L93.2199 20.6172L92.7148 21.26L96.7248 24.474C96.7707 24.1833 96.9543 23.9384 97.2298 23.8159L97.2145 23.8312Z" stroke="#241F21" stroke-miterlimit="10"/><path d="M97.6304 14.2344C91.891 14.2344 87.2383 18.8871 87.2383 24.6265V45.4566C87.2383 51.196 91.891 55.8487 97.6304 55.8487C103.37 55.8487 108.022 51.196 108.022 45.4566V24.6265C108.022 18.8871 103.37 14.2344 97.6304 14.2344ZM97.5079 32.9371C92.9164 32.9371 89.1973 29.218 89.1973 24.6265C89.1973 20.035 92.9164 16.3159 97.5079 16.3159C102.099 16.3159 105.819 20.035 105.819 24.6265C105.819 29.218 102.099 32.9371 97.5079 32.9371Z" stroke="#241F21" stroke-miterlimit="10"/><path d="M99.7129 47.0473H93.8205C93.5144 47.0473 93.2695 46.8024 93.2695 46.4963C93.2695 46.1902 93.5144 45.9453 93.8205 45.9453H99.7129C100.019 45.9453 100.264 46.1902 100.264 46.4963C100.264 46.8024 100.019 47.0473 99.7129 47.0473Z" stroke="#241F21" stroke-miterlimit="10"/><path d="M102.955 37.268C102.787 37.0384 102.481 36.9925 102.251 37.1302C101.945 37.3292 101.532 37.6047 101.287 37.7577C101.226 37.7883 101.195 37.8342 101.18 37.9108C101.164 37.9873 101.134 38.0638 101.103 38.125C100.92 38.5383 100.675 38.8903 100.307 39.1046C100.124 39.2117 99.9095 39.2729 99.6952 39.2882C99.3585 39.2882 99.0371 39.2117 98.7463 39.074H98.7157C98.4096 38.9362 98.0575 39.074 97.9504 39.4107C97.7208 40.1147 97.3535 41.2626 97.1392 41.936C97.0933 42.0584 97.0627 42.1809 97.0168 42.3033C97.0015 42.3492 96.9862 42.3798 96.925 42.3798C96.8178 42.3798 96.7107 42.3798 96.6189 42.3798C96.0526 42.3798 95.5781 42.5788 95.1802 42.992C94.8894 43.2981 94.7057 43.6501 94.6598 44.0634C94.6598 44.1552 94.6445 44.2317 94.6445 44.3236C94.6445 44.4307 94.6445 44.5684 94.6445 44.7215C94.6445 45.0735 94.9353 45.349 95.2873 45.349H98.2412C98.4861 45.349 98.7157 45.2878 98.9146 45.15C99.236 44.9511 99.6952 44.6603 99.7105 44.645C101.486 43.4818 103.231 42.3339 104.991 41.1707C105.266 40.9871 105.343 40.6045 105.144 40.3443C105.128 40.3137 103.613 38.2016 102.97 37.2986L102.955 37.268ZM99.986 42.2727C99.8941 42.5176 99.8635 42.7625 99.8635 43.0226C99.8635 43.2063 99.8635 43.4053 99.9248 43.5889C99.9248 43.6348 98.4708 44.6144 98.4402 44.6144H95.4251C95.4251 44.6144 95.3792 44.6144 95.3639 44.6144C95.3333 44.6144 95.3179 44.6144 95.3179 44.5684C95.3179 44.4001 95.3179 44.2164 95.3486 44.0481C95.4098 43.7573 95.5475 43.5124 95.7771 43.3287C96.0067 43.1451 96.2669 43.0379 96.5577 43.0379C96.6801 43.0379 96.8484 43.0379 97.0168 43.0379C97.3076 43.0379 97.5525 42.8543 97.6443 42.5941C97.6749 42.5176 97.6749 42.5023 97.7361 42.5329C97.8892 42.5788 98.0422 42.6247 98.1953 42.6706C98.2718 42.7012 98.3483 42.7165 98.4249 42.7471C98.4708 42.7471 98.4861 42.7471 98.4861 42.6859C98.5014 42.5176 98.5473 42.3645 98.6238 42.2115C98.6697 42.1196 98.6697 42.1043 98.6238 42.0737C98.4861 42.0278 98.3636 41.9819 98.2259 41.9513C98.1188 41.9207 98.0116 41.8748 97.9045 41.8442C97.981 41.5993 98.0576 41.3697 98.1341 41.1401C98.4249 41.232 98.7004 41.3238 98.9912 41.4156C99.0524 41.2013 99.1289 41.0024 99.1901 40.8034C99.1901 40.7881 99.1901 40.7575 99.1595 40.7575C99.083 40.7422 99.0218 40.7116 98.9452 40.681C98.7616 40.6198 98.5779 40.5585 98.3943 40.4973C98.3636 40.4973 98.333 40.4667 98.3483 40.4361C98.4249 40.2065 98.4861 39.9922 98.5626 39.7627C98.6238 39.778 98.6697 39.8086 98.731 39.8239C99.2666 40.0229 99.8176 40.0841 100.384 39.8545C100.598 39.7627 100.797 39.6402 100.981 39.5025C101.348 39.1964 101.608 38.7985 101.777 38.3546C101.777 38.324 101.807 38.2781 101.838 38.2628C102.052 38.125 102.266 37.972 102.496 37.8342C102.496 37.8342 102.496 37.8342 102.511 37.8342C102.756 38.2322 103.277 38.8291 103.231 38.9209C103.123 39.1505 102.97 39.3494 102.817 39.5178C102.465 39.9004 102.052 40.2218 101.608 40.482C101.21 40.7116 100.843 40.9871 100.552 41.3391C100.323 41.6146 100.124 41.936 100.017 42.288L99.986 42.2727ZM100.568 43.2216C100.568 43.2216 100.552 43.1145 100.552 43.0839C100.552 43.0073 100.552 42.9308 100.568 42.8543C100.598 42.5329 100.705 42.2421 100.889 41.9666C101.119 41.6299 101.425 41.3697 101.777 41.1554C102.052 40.9871 102.328 40.8187 102.588 40.6198C102.925 40.3749 103.215 40.0841 103.476 39.7627C103.552 39.6708 103.613 39.579 103.69 39.4872C103.965 39.8698 104.241 40.2524 104.516 40.6351C103.2 41.5074 101.884 42.3645 100.568 43.2369V43.2216Z" fill="#241F21"/><path d="M98.0627 49.7421C97.9709 49.6502 97.8178 49.6502 97.7107 49.7421L96.9454 50.5073V48.4871C96.9454 48.3493 96.8383 48.2422 96.7005 48.2422C96.5628 48.2422 96.4557 48.3493 96.4557 48.4871V50.5073L95.6904 49.7421C95.5986 49.6502 95.4455 49.6502 95.3384 49.7421C95.2466 49.8339 95.2466 49.987 95.3384 50.0941L96.5169 51.2726C96.5169 51.2726 96.624 51.3491 96.6852 51.3491C96.7465 51.3491 96.8077 51.3185 96.8536 51.2726L98.0321 50.0941C98.1239 50.0023 98.1239 49.8492 98.0321 49.7421H98.0627Z" stroke="#241F21" stroke-miterlimit="10"/><path d="M96.6836 24.6263C96.6836 24.1365 97.0815 23.7539 97.556 23.7539C98.0304 23.7539 98.4284 24.1518 98.4284 24.6263C98.4284 25.1007 98.0304 25.4987 97.556 25.4987C97.0815 25.4987 96.6836 25.1007 96.6836 24.6263Z" stroke="#241F21" stroke-miterlimit="10"/></g><defs><clipPath id="clip0_8810_1786"><rect width="139" height="366" fill="white"/></clipPath></defs></svg>