<svg xmlns="http://www.w3.org/2000/svg" fill="none" viewBox="0 0 374 34" height="34" width="374"><g opacity="0.5"><path fill="#241F21" d="M182.861 2.1875C183.552 2.1875 183.924 2.24769 184.309 2.5351C184.654 2.78904 184.894 3.31044 184.894 3.83844C184.894 4.36644 184.654 4.89444 184.309 5.14179C183.924 5.42244 183.539 5.48939 182.861 5.48939H181.752V8.00917H181.52V2.1875H182.861ZM181.752 5.27551H182.868C183.519 5.27551 183.851 5.19537 184.183 4.95463C184.462 4.74736 184.661 4.2863 184.661 3.84504C184.661 3.40379 184.468 2.92261 184.183 2.7221C183.858 2.48151 183.525 2.40121 182.868 2.40121H181.752V5.28196V5.2752V5.27551Z"/><path fill="#241F21" d="M185.107 5.089C185.107 3.35116 186.449 2.08789 188.109 2.08789C189.77 2.08789 191.112 3.35116 191.112 5.10236C191.112 6.85356 189.77 8.11683 188.109 8.11683C186.449 8.11683 185.107 6.85356 185.107 5.10236V5.089ZM185.34 5.10236C185.34 6.70648 186.575 7.8962 188.11 7.8962C189.644 7.8962 190.879 6.70648 190.879 5.0956C190.879 3.48473 189.644 2.29501 188.11 2.29501C186.575 2.29501 185.34 3.48473 185.34 5.0956V5.10236Z"/><path fill="#241F21" d="M191.768 2.1875H193.09C193.986 2.1875 194.345 2.26764 194.631 2.42809C195.102 2.66207 195.467 3.30368 195.467 3.97877C195.481 4.33973 195.374 4.79418 195.102 5.15514C194.677 5.71661 194.199 5.7834 193.541 5.81011L195.095 8.00241H194.796L193.103 5.59624H193.269C193.694 5.59624 194.378 5.59624 194.743 5.22869C195.109 4.84101 195.235 4.43998 195.235 3.98553C195.235 3.48424 194.996 2.92277 194.544 2.63536C194.192 2.40813 193.774 2.40137 193.089 2.40137H192V8.00917H191.768V2.1875H191.768Z"/><path fill="#241F21" d="M196.951 2.40137H195.377V2.1875H198.751V2.40137H197.177V8.00917H196.944V2.40137H196.951Z"/><path fill="#241F21" d="M199.429 2.1875V5.96396C199.429 6.53203 199.429 6.89298 199.788 7.36096C200.04 7.68844 200.512 7.89571 200.977 7.89571C201.442 7.89571 201.894 7.68844 202.139 7.36096C202.498 6.88638 202.498 6.52543 202.498 5.96396V2.1875H202.73V5.96396C202.737 6.49196 202.717 7.27406 202.033 7.75523C201.734 7.97586 201.356 8.10943 200.957 8.10943C200.558 8.10943 200.186 7.9757 199.888 7.75523C199.21 7.27406 199.183 6.49196 199.19 5.96396V2.1875H199.429Z"/><path fill="#241F21" d="M208.802 3.47798C208.57 3.17045 208.297 2.9165 207.992 2.72935C207.547 2.44869 207.022 2.29485 206.458 2.29485C204.924 2.29485 203.688 3.48458 203.688 5.09545C203.688 6.70632 204.923 7.89605 206.458 7.89605C207.195 7.89605 207.839 7.62875 208.324 7.23432C208.816 6.83329 209.154 6.29853 209.254 5.75718H205.807V5.5433H209.533C209.5 5.84408 209.414 6.13149 209.281 6.39879C208.803 7.388 207.727 8.10316 206.451 8.10316C204.797 8.10316 203.449 6.83989 203.449 5.08869C203.449 3.33749 204.791 2.07422 206.451 2.07422C207.514 2.07422 208.557 2.60222 209.075 3.46446H208.796L208.803 3.47782L208.802 3.47798Z"/><path fill="#241F21" d="M209.682 8.00917H209.43L211.907 2.1875H212.213L214.69 8.00917H214.438L213.568 5.97731H210.546L209.675 8.00917H209.682ZM212.06 2.40797L210.652 5.76329H213.475L212.06 2.40797Z"/><path fill="#241F21" d="M215.153 2.1875H215.386V7.7953H217.83V8.00917H215.146V2.1875H215.153Z"/><path fill="#241F21" d="M180.934 27.2458C182.853 25.3876 184.746 23.5028 186.646 21.638C188.24 20.1274 189.92 18.6704 190.013 16.5247C190.013 14.2388 188.466 12.8017 186.453 12.8017C184.44 12.8017 182.986 14.3791 182.92 17.0394H181.073C181.12 15.3416 181.591 13.9045 182.574 12.8485C183.723 11.4583 185.43 11.084 186.646 11.084C189.854 11.084 191.986 13.4367 191.932 16.4311C191.859 18.316 190.996 19.6327 189.289 21.424C187.396 23.3289 185.496 25.2405 183.577 27.1454H191.979V28.8165H180.934V27.2391V27.2458Z"/><path fill="#241F21" d="M193.408 17.1188C193.408 12.0791 197.573 11.0898 199.26 11.0898C202.043 11.0898 205.138 13.0214 205.138 16.9785V23.2414C205.138 27.8333 201.252 29.13 199.333 29.13C197.134 29.13 193.408 27.7196 193.408 23.2414V17.1188ZM195.354 23.2881C195.354 25.7411 197.061 27.4121 199.286 27.4121C201.086 27.4121 203.218 26.0018 203.218 23.2881V16.9249C203.218 15.2071 202.189 12.8008 199.24 12.8008C196.968 12.8008 195.354 14.4986 195.354 17.0184V23.2879L195.354 23.2881Z"/><path fill="#241F21" d="M207.363 15.5154C207.483 12.3606 210.007 11.084 212.046 11.084C214.53 11.084 216.542 12.7818 216.542 15.3683C216.542 17.1128 215.513 18.336 214.158 19.0445C217.226 20.1073 217.645 22.6271 217.645 23.7099C217.645 26.8915 215.207 29.1306 211.959 29.1306C210.252 29.1306 208.446 28.4021 207.396 27.0118C206.672 26.0493 206.34 24.8462 206.32 23.7167H208.266C208.359 26.0493 210.139 27.4129 212.032 27.4129C214.324 27.4129 215.705 25.7151 215.705 23.6699C215.705 21.8117 214.204 19.9468 211.634 19.9468H210.485V18.4362H211.348C213.832 18.4362 214.623 16.6248 214.623 15.5888C214.623 14.0114 213.593 12.8083 212.026 12.8083C210.226 12.8083 209.355 14.1718 209.263 15.5153H207.363L207.363 15.5154Z"/><path fill="#241F21" d="M219.201 17.1188C219.201 12.0791 223.366 11.0898 225.053 11.0898C227.836 11.0898 230.931 13.0214 230.931 16.9785V23.2414C230.931 27.8333 227.045 29.13 225.126 29.13C222.927 29.13 219.201 27.7196 219.201 23.2414V17.1188ZM221.147 23.2881C221.147 25.7411 222.854 27.4121 225.079 27.4121C226.879 27.4121 229.011 26.0018 229.011 23.2881V16.9249C229.011 15.2071 227.982 12.8008 225.033 12.8008C222.761 12.8008 221.147 14.4986 221.147 17.0184V23.2879L221.147 23.2881Z"/><path fill="#241F21" d="M165.476 2.12109V18.7107L159.79 22.8346L157.725 27.7541V10.6632L165.476 2.12109Z"/><path fill="#241F21" d="M167.803 4.06706L177.573 2.08203V15.2962L172.439 20.3826L161.201 24.5802L167.803 19.9349V4.06706Z"/><path fill="#241F21" d="M172.433 22.5332L161.201 26.7641L169.278 29.3977L172.439 28.4218L172.433 22.5332Z"/><path fill="#241F21" d="M250.955 3.23047V29.0104H289.385V3.23047H250.955ZM277.124 11.5051L277.436 10.5293L277.742 11.5051H278.758L277.935 12.1001L278.247 13.0626L277.436 12.4676L276.619 13.0626L276.932 12.1001L276.108 11.5051H277.124ZM260.446 15.7361H261.463L261.775 14.7602L262.08 15.7361H263.097L262.273 16.331L262.585 17.2935L261.775 16.6986L260.958 17.2935L261.27 16.331L260.446 15.7361ZM263.708 21.5244L262.897 20.9295L262.087 21.5244L262.393 20.5619L261.576 19.967H262.585L262.897 18.9911L263.209 19.967H264.226L263.402 20.5619L263.708 21.5244H263.708ZM263.402 12.1134L263.708 13.0759L262.897 12.481L262.087 13.0759L262.393 12.1134L261.576 11.5185H262.585L262.897 10.5426L263.209 11.5185H264.226L263.402 12.1134ZM265.66 8.42388L265.966 7.44803L266.278 8.42388H267.294L266.471 9.01883L266.776 9.98133L265.966 9.38638L265.156 9.98133L265.468 9.01883L264.644 8.42388H265.661H265.66ZM266.783 24.619L265.972 24.0241L265.162 24.619L265.474 23.6565L264.651 23.0616H265.667L265.972 22.0857L266.285 23.0616H267.301L266.477 23.6565L266.783 24.619H266.783ZM270.974 25.742L270.163 25.147L269.353 25.742L269.665 24.7795L268.842 24.1845H269.858L270.164 23.2087L270.476 24.1845H271.492L270.668 24.7795L270.974 25.742H270.974ZM270.668 7.88253L270.974 8.84503L270.163 8.25008L269.353 8.84503L269.665 7.88253L268.842 7.28758H269.851L270.163 6.31173L270.476 7.28758H271.492L270.668 7.88253ZM275.165 24.6192L274.354 24.0242L273.544 24.6192L273.856 23.6567L273.033 23.0617H274.049L274.355 22.0859L274.667 23.0617H275.683L274.859 23.6567L275.165 24.6192ZM274.873 9.01883L275.178 9.98133L274.368 9.38638L273.558 9.98133L273.863 9.01883L273.046 8.42388H274.056L274.368 7.44803L274.68 8.42388H275.696L274.873 9.01883H274.873ZM278.247 21.5244L277.436 20.9295L276.626 21.5244L276.932 20.5619L276.108 19.967H277.124L277.436 18.9911L277.742 19.967H278.758L277.935 20.5619L278.247 21.5244H278.247ZM279.356 17.2801L278.545 16.6852L277.735 17.2801L278.047 16.3176L277.224 15.7227H278.24L278.546 14.7468L278.858 15.7227H279.874L279.05 16.3176L279.356 17.2801H279.356Z"/><path fill="#241F21" d="M299.496 10.6897L300.731 11.0842C300.545 11.7794 300.226 12.294 299.788 12.6281C299.35 12.9623 298.792 13.1294 298.114 13.1294C297.277 13.1294 296.587 12.842 296.049 12.2671C295.511 11.6923 295.238 10.9036 295.238 9.90762C295.238 8.85162 295.511 8.02945 296.049 7.44787C296.593 6.86644 297.304 6.57227 298.187 6.57227C298.958 6.57227 299.582 6.79949 300.067 7.26071C300.352 7.53477 300.572 7.92244 300.711 8.43032L299.449 8.73109C299.376 8.40361 299.217 8.14291 298.984 7.94899C298.745 7.76184 298.46 7.66158 298.121 7.66158C297.656 7.66158 297.277 7.82862 296.985 8.16962C296.693 8.50387 296.547 9.05198 296.547 9.80721C296.547 10.6093 296.693 11.1775 296.979 11.5183C297.264 11.8592 297.636 12.0264 298.095 12.0264C298.433 12.0264 298.726 11.9194 298.965 11.6989C299.211 11.485 299.383 11.1442 299.489 10.6762L299.496 10.6896L299.496 10.6897Z"/><path fill="#241F21" d="M301.533 10.6634C301.533 10.2624 301.633 9.86799 301.832 9.49383C302.031 9.11292 302.31 8.8255 302.676 8.62499C303.041 8.42447 303.446 8.32422 303.891 8.32422C304.582 8.32422 305.146 8.55145 305.592 8.9993C306.03 9.45376 306.256 10.022 306.256 10.7104C306.256 11.3989 306.03 11.9803 305.585 12.4415C305.14 12.9027 304.575 13.13 303.904 13.13C303.486 13.13 303.087 13.0365 302.709 12.8425C302.33 12.6488 302.038 12.3747 301.846 12.007C301.646 11.6395 301.547 11.1916 301.547 10.6636H301.533L301.533 10.6634ZM302.769 10.7302C302.769 11.1847 302.875 11.5323 303.094 11.7796C303.306 12.0202 303.572 12.1406 303.891 12.1406C304.21 12.1406 304.469 12.0202 304.681 11.7796C304.894 11.539 305 11.1847 305 10.7236C305 10.2626 304.894 9.92817 304.681 9.68759C304.469 9.447 304.203 9.32663 303.891 9.32663C303.579 9.32663 303.313 9.447 303.094 9.68759C302.881 9.92817 302.769 10.2758 302.769 10.737V10.7302Z"/><path fill="#241F21" d="M306.701 8.4252H307.371V8.0776C307.371 7.68993 307.411 7.40252 307.491 7.20876C307.571 7.0216 307.724 6.86116 307.943 6.74095C308.162 6.62057 308.441 6.56055 308.773 6.56055C309.105 6.56055 309.457 6.61397 309.782 6.71423L309.616 7.56312C309.424 7.51629 309.238 7.49633 309.059 7.49633C308.879 7.49633 308.76 7.5364 308.68 7.6167C308.607 7.69685 308.567 7.85729 308.567 8.09128V8.41876H309.47V9.3745H308.567V13.0172H307.358V9.3745H306.688V8.41876L306.701 8.42552L306.701 8.4252ZM310.095 7.80355V6.6806H311.303V7.80355H310.095ZM310.095 13.0237V8.42505H311.303V13.0237H310.095Z"/><path fill="#241F21" d="M316.729 13.0222H315.52V10.6761C315.52 10.1814 315.493 9.86065 315.44 9.71356C315.387 9.56648 315.307 9.45286 315.188 9.37272C315.075 9.29258 314.929 9.25235 314.769 9.25235C314.557 9.25235 314.371 9.31253 314.205 9.42615C314.039 9.53976 313.926 9.69345 313.866 9.88736C313.806 10.0745 313.773 10.4287 313.773 10.9434V13.022H312.564V8.42342H313.687V9.09851C314.085 8.57711 314.59 8.31641 315.195 8.31641C315.46 8.31641 315.706 8.36324 315.925 8.46349C316.144 8.55699 316.31 8.68412 316.423 8.83105C316.536 8.97798 316.616 9.15193 316.662 9.33909C316.709 9.52625 316.729 9.8003 316.729 10.1545V13.0219V13.0222Z"/><path fill="#241F21" d="M318.861 9.82897L317.765 9.62846C317.891 9.18736 318.104 8.85312 318.402 8.63924C318.701 8.42537 319.153 8.31836 319.744 8.31836C320.282 8.31836 320.687 8.38515 320.946 8.51212C321.212 8.63909 321.398 8.80629 321.504 9.00004C321.611 9.20056 321.664 9.56152 321.664 10.0895L321.651 11.5065C321.651 11.9075 321.671 12.2083 321.71 12.4022C321.75 12.5959 321.823 12.7966 321.93 13.0171H320.734C320.701 12.9369 320.661 12.8166 320.621 12.6561C320.601 12.5826 320.588 12.5358 320.581 12.5158C320.375 12.7163 320.156 12.87 319.917 12.9703C319.685 13.0705 319.432 13.1239 319.167 13.1239C318.695 13.1239 318.323 12.997 318.058 12.7363C317.785 12.4823 317.652 12.1548 317.652 11.7604C317.652 11.4997 317.712 11.2725 317.838 11.0652C317.964 10.8647 318.137 10.7043 318.356 10.5974C318.576 10.4905 318.901 10.3969 319.32 10.3167C319.884 10.2097 320.276 10.1095 320.495 10.016V9.8956C320.495 9.66162 320.435 9.49457 320.323 9.39432C320.21 9.29406 319.99 9.24723 319.672 9.24723C319.459 9.24723 319.286 9.2873 319.167 9.3742C319.047 9.4611 318.948 9.60819 318.875 9.82206L318.861 9.82882L318.861 9.82897ZM320.475 10.8182C320.322 10.8716 320.076 10.9318 319.738 11.0053C319.399 11.0789 319.18 11.1457 319.08 11.2192C318.921 11.3328 318.841 11.4732 318.841 11.647C318.841 11.8208 318.901 11.9611 319.027 12.0881C319.153 12.215 319.313 12.2752 319.512 12.2752C319.731 12.2752 319.937 12.2017 320.136 12.0613C320.282 11.9543 320.375 11.8208 320.422 11.6603C320.455 11.5533 320.468 11.3595 320.468 11.0654V10.8248L320.475 10.818V10.8182Z"/><path fill="#241F21" d="M327.006 13.0222H325.797V10.6761C325.797 10.1814 325.771 9.86065 325.718 9.71356C325.665 9.56648 325.585 9.45286 325.465 9.37272C325.352 9.29258 325.206 9.25235 325.047 9.25235C324.834 9.25235 324.648 9.31253 324.482 9.42615C324.316 9.53976 324.203 9.69345 324.144 9.88736C324.084 10.0745 324.051 10.4287 324.051 10.9434V13.022H322.842V8.42342H323.964V9.09851C324.363 8.57711 324.868 8.31641 325.472 8.31641C325.738 8.31641 325.983 8.36324 326.203 8.46349C326.422 8.55699 326.588 8.68412 326.701 8.83105C326.814 8.97798 326.893 9.15193 326.94 9.33909C326.986 9.52625 327.006 9.8003 327.006 10.1545V13.0219V13.0222Z"/><path fill="#241F21" d="M332.217 9.78726L331.028 10.0011C330.988 9.76055 330.895 9.57999 330.755 9.45978C330.616 9.33956 330.43 9.27938 330.204 9.27938C329.905 9.27938 329.666 9.38639 329.487 9.59351C329.307 9.80062 329.221 10.155 329.221 10.6429C329.221 11.191 329.314 11.5719 329.494 11.7992C329.673 12.0264 329.919 12.14 330.224 12.14C330.457 12.14 330.643 12.0732 330.789 11.9462C330.935 11.8125 331.041 11.592 331.101 11.2712L332.29 11.4717C332.164 12.0198 331.931 12.4342 331.579 12.7148C331.227 12.9955 330.762 13.136 330.171 13.136C329.5 13.136 328.969 12.9221 328.57 12.501C328.172 12.0798 327.973 11.4916 327.973 10.7364C327.973 9.98118 328.172 9.38624 328.57 8.96509C328.969 8.54395 329.507 8.33008 330.184 8.33008C330.742 8.33008 331.181 8.45045 331.513 8.69103C331.845 8.93162 332.077 9.29933 332.223 9.79386L332.217 9.7871V9.78726Z"/><path fill="#241F21" d="M333.133 7.80263V6.67969H334.342V7.80263H333.133ZM333.133 13.0228V8.42413H334.342V13.0228H333.133Z"/><path fill="#241F21" d="M336.486 9.82897L335.39 9.62846C335.516 9.18736 335.729 8.85312 336.027 8.63924C336.326 8.42537 336.778 8.31836 337.369 8.31836C337.907 8.31836 338.312 8.38515 338.571 8.51212C338.837 8.63909 339.023 8.80629 339.129 9.00004C339.236 9.20056 339.289 9.56152 339.289 10.0895L339.276 11.5065C339.276 11.9075 339.296 12.2083 339.335 12.4022C339.375 12.5961 339.448 12.7966 339.555 13.0171H338.359C338.326 12.9369 338.286 12.8166 338.246 12.6561C338.226 12.5826 338.213 12.5358 338.206 12.5158C338 12.7163 337.781 12.87 337.542 12.9703C337.31 13.0705 337.057 13.1239 336.792 13.1239C336.32 13.1239 335.948 12.997 335.683 12.7363C335.41 12.4823 335.277 12.1548 335.277 11.7604C335.277 11.4997 335.337 11.2725 335.463 11.0652C335.589 10.8647 335.762 10.7043 335.981 10.5974C336.201 10.4904 336.526 10.3969 336.945 10.3167C337.509 10.2097 337.901 10.1095 338.12 10.016V9.8956C338.12 9.66162 338.06 9.49457 337.948 9.39432C337.835 9.29406 337.615 9.24723 337.297 9.24723C337.084 9.24723 336.911 9.2873 336.792 9.3742C336.672 9.4611 336.573 9.60819 336.5 9.82206L336.486 9.82882L336.486 9.82897ZM338.1 10.8182C337.947 10.8716 337.701 10.9318 337.363 11.0053C337.024 11.0789 336.805 11.1457 336.705 11.2192C336.546 11.3328 336.466 11.4732 336.466 11.647C336.466 11.8208 336.526 11.9611 336.652 12.0881C336.778 12.215 336.938 12.2752 337.137 12.2752C337.356 12.2752 337.562 12.2017 337.761 12.0613C337.907 11.9543 338 11.8208 338.047 11.6603C338.08 11.5533 338.093 11.3595 338.093 11.0654V10.8248L338.1 10.818V10.8182Z"/><path fill="#241F21" d="M344.668 13.0229H343.545V12.3478C343.359 12.6085 343.14 12.809 342.888 12.936C342.635 13.063 342.376 13.1298 342.117 13.1298C341.592 13.1298 341.141 12.9159 340.769 12.4882C340.397 12.0604 340.211 11.4722 340.211 10.7102C340.211 9.94826 340.39 9.33996 340.756 8.93233C341.121 8.52454 341.579 8.32403 342.137 8.32403C342.648 8.32403 343.087 8.5379 343.459 8.96564V6.67969H344.668V13.0228V13.0229ZM341.44 10.6233C341.44 11.1113 341.506 11.4655 341.639 11.6861C341.831 12.0002 342.104 12.1607 342.456 12.1607C342.735 12.1607 342.967 12.0403 343.166 11.8065C343.359 11.5659 343.459 11.2115 343.459 10.7371C343.459 10.2091 343.366 9.82804 343.173 9.59422C342.981 9.36023 342.741 9.24661 342.449 9.24661C342.157 9.24661 341.925 9.36023 341.732 9.58746C341.539 9.81469 341.44 10.1623 341.44 10.6167V10.6235V10.6233Z"/><path fill="#241F21" d="M345.576 10.6634C345.576 10.2624 345.676 9.86799 345.875 9.49383C346.074 9.11292 346.353 8.8255 346.719 8.62499C347.084 8.42447 347.489 8.32422 347.934 8.32422C348.625 8.32422 349.189 8.55145 349.634 8.9993C350.073 9.45376 350.299 10.022 350.299 10.7104C350.299 11.3989 350.073 11.9803 349.628 12.4415C349.183 12.9027 348.618 13.13 347.947 13.13C347.529 13.13 347.13 13.0365 346.752 12.8425C346.373 12.6488 346.081 12.3747 345.888 12.007C345.689 11.6395 345.59 11.1916 345.59 10.6636H345.576L345.576 10.6634ZM346.811 10.7302C346.811 11.1847 346.918 11.5323 347.137 11.7796C347.349 12.0202 347.615 12.1406 347.934 12.1406C348.253 12.1406 348.512 12.0202 348.724 11.7796C348.937 11.539 349.043 11.1847 349.043 10.7236C349.043 10.2626 348.937 9.92817 348.724 9.68759C348.512 9.447 348.246 9.32663 347.934 9.32663C347.622 9.32663 347.356 9.447 347.137 9.68759C346.924 9.92817 346.811 10.2758 346.811 10.737V10.7302Z"/><path fill="#241F21" d="M353.65 8.42448H354.78V9.09956C354.926 8.86558 355.125 8.67842 355.371 8.53809C355.623 8.39101 355.895 8.32422 356.201 8.32422C356.732 8.32422 357.184 8.53149 357.549 8.95248C357.921 9.37362 358.107 9.95505 358.107 10.7037C358.107 11.4523 357.921 12.0672 357.549 12.4949C357.177 12.9227 356.726 13.1366 356.194 13.1366C355.942 13.1366 355.716 13.0831 355.51 12.9829C355.304 12.8826 355.092 12.7088 354.866 12.4615V14.7741H353.657V8.43108L353.651 8.42432L353.65 8.42448ZM354.846 10.6435C354.846 11.1581 354.946 11.5392 355.152 11.7864C355.357 12.0336 355.603 12.1539 355.895 12.1539C356.188 12.1539 356.407 12.0403 356.6 11.8131C356.785 11.5859 356.878 11.2182 356.878 10.6969C356.878 10.2157 356.785 9.85479 356.593 9.62081C356.4 9.38682 356.161 9.2732 355.882 9.2732C355.603 9.2732 355.344 9.38682 355.145 9.61405C354.952 9.84128 354.853 10.1821 354.853 10.63L354.846 10.6433V10.6435Z"/><path fill="#241F21" d="M361.71 11.5601L362.913 11.7606C362.76 12.2017 362.514 12.5425 362.182 12.7765C361.85 13.0105 361.431 13.1241 360.927 13.1241C360.13 13.1241 359.545 12.8634 359.166 12.3422C358.868 11.921 358.715 11.393 358.715 10.758C358.715 9.99602 358.914 9.40123 359.306 8.96673C359.705 8.53223 360.203 8.31836 360.807 8.31836C361.485 8.31836 362.023 8.54559 362.414 8.99345C362.806 9.4479 362.992 10.1363 362.979 11.0655H359.95C359.957 11.4265 360.056 11.7071 360.243 11.9077C360.429 12.1082 360.661 12.2084 360.94 12.2084C361.126 12.2084 361.285 12.155 361.418 12.0547C361.551 11.9545 361.644 11.7807 361.71 11.5535V11.5602V11.5601ZM361.777 10.3303C361.77 9.97606 361.677 9.7086 361.504 9.5282C361.332 9.3478 361.126 9.25415 360.873 9.25415C360.608 9.25415 360.389 9.34764 360.223 9.54156C360.05 9.73532 359.963 9.99602 359.97 10.3303H361.777Z"/><path fill="#241F21" d="M363.965 13.0228V6.67969H365.174V13.0228H363.965Z"/><path fill="#241F21" d="M367.318 9.82897L366.222 9.62846C366.348 9.18736 366.561 8.85312 366.86 8.63924C367.158 8.42537 367.61 8.31836 368.201 8.31836C368.739 8.31836 369.144 8.38515 369.403 8.51212C369.669 8.63909 369.855 8.80629 369.961 9.00004C370.068 9.20056 370.121 9.56152 370.121 10.0895L370.108 11.5065C370.108 11.9075 370.128 12.2083 370.167 12.4022C370.207 12.5961 370.28 12.7966 370.387 13.0171H369.191C369.158 12.9369 369.118 12.8166 369.078 12.6561C369.058 12.5826 369.045 12.5358 369.038 12.5158C368.832 12.7163 368.613 12.87 368.374 12.9703C368.142 13.0705 367.889 13.1239 367.624 13.1239C367.152 13.1239 366.78 12.997 366.515 12.7363C366.242 12.4823 366.109 12.1548 366.109 11.7604C366.109 11.4997 366.169 11.2725 366.295 11.0652C366.422 10.8647 366.594 10.7043 366.813 10.5974C367.033 10.4904 367.358 10.3969 367.777 10.3167C368.341 10.2097 368.733 10.1095 368.952 10.016V9.8956C368.952 9.66162 368.893 9.49457 368.78 9.39432C368.667 9.29406 368.447 9.24723 368.129 9.24723C367.916 9.24723 367.744 9.2873 367.624 9.3742C367.504 9.4611 367.405 9.60819 367.332 9.82206L367.318 9.82882L367.318 9.82897ZM368.932 10.8182C368.779 10.8716 368.533 10.9318 368.195 11.0053C367.856 11.0789 367.637 11.1457 367.537 11.2192C367.378 11.3328 367.298 11.4732 367.298 11.647C367.298 11.8208 367.358 11.9611 367.484 12.0881C367.61 12.215 367.77 12.2752 367.969 12.2752C368.188 12.2752 368.394 12.2017 368.593 12.0613C368.739 11.9543 368.832 11.8208 368.879 11.6603C368.912 11.5533 368.925 11.3595 368.925 11.0654V10.8248L368.932 10.818V10.8182Z"/><path fill="#241F21" d="M295.451 17.3125H296.726V20.7481C296.726 21.2962 296.74 21.6438 296.773 21.8109C296.826 22.0716 296.959 22.2787 297.165 22.4391C297.371 22.5996 297.65 22.6731 298.009 22.6731C298.367 22.6731 298.64 22.5996 298.826 22.4525C299.011 22.3054 299.118 22.1182 299.158 21.9044C299.197 21.6905 299.211 21.3295 299.211 20.8283V17.3193H300.486V20.6546C300.486 21.4166 300.453 21.9514 300.38 22.2721C300.313 22.5862 300.187 22.8535 300.001 23.0675C299.815 23.2816 299.569 23.4552 299.257 23.5822C298.945 23.7092 298.54 23.7759 298.042 23.7759C297.437 23.7759 296.986 23.7092 296.674 23.5687C296.361 23.4283 296.116 23.2478 295.936 23.0206C295.757 22.7999 295.637 22.5593 295.578 22.3188C295.491 21.9578 295.451 21.4164 295.451 20.7079V17.3125H295.451Z"/><path fill="#241F21" d="M305.969 23.6567H304.76V21.3107C304.76 20.816 304.734 20.4953 304.681 20.3482C304.627 20.2011 304.548 20.0875 304.428 20.0073C304.315 19.9272 304.169 19.887 304.01 19.887C303.797 19.887 303.611 19.9471 303.445 20.0608C303.279 20.1744 303.166 20.3281 303.107 20.522C303.047 20.7091 303.013 21.0633 303.013 21.578V23.6567H301.805V19.058H302.927V19.7331C303.326 19.2117 303.83 18.9512 304.435 18.9512C304.7 18.9512 304.946 18.998 305.165 19.0983C305.385 19.1918 305.551 19.3189 305.664 19.4658C305.776 19.6129 305.856 19.7867 305.903 19.9739C305.949 20.161 305.969 20.4351 305.969 20.7893V23.6567Z"/><path fill="#241F21" d="M307.191 18.4433V17.3203H308.4V18.4433H307.191ZM307.191 23.6634V19.0648H308.4V23.6634H307.191Z"/><path fill="#241F21" d="M310.546 20.469L309.45 20.2685C309.577 19.8274 309.789 19.4931 310.088 19.2793C310.387 19.0654 310.839 18.9584 311.43 18.9584C311.968 18.9584 312.373 19.0252 312.632 19.1521C312.898 19.2791 313.084 19.4461 313.19 19.6401C313.296 19.8406 313.349 20.2015 313.349 20.7295L313.336 22.1465C313.336 22.5475 313.356 22.8483 313.396 23.0422C313.436 23.2361 313.509 23.4366 313.615 23.6571H312.42C312.386 23.577 312.347 23.4566 312.307 23.2961C312.287 23.2226 312.273 23.1758 312.267 23.1558C312.061 23.3563 311.842 23.51 311.603 23.6103C311.37 23.7105 311.118 23.764 310.852 23.764C310.381 23.764 310.009 23.637 309.743 23.3763C309.471 23.1223 309.338 22.7949 309.338 22.4004C309.338 22.1397 309.398 21.9125 309.524 21.7052C309.65 21.5047 309.823 21.3443 310.042 21.2374C310.261 21.1306 310.587 21.0369 311.005 20.9568C311.57 20.8497 311.962 20.7495 312.181 20.656V20.5356C312.181 20.3016 312.121 20.1346 312.008 20.0343C311.895 19.9341 311.676 19.8872 311.357 19.8872C311.145 19.8872 310.972 19.9273 310.852 20.0142C310.733 20.1011 310.633 20.2482 310.56 20.4621L310.547 20.4688L310.546 20.469ZM310.54 18.4505H309.988V18.2968C309.988 17.996 310.061 17.762 310.208 17.595C310.354 17.4346 310.54 17.3477 310.772 17.3477C310.872 17.3477 310.965 17.361 311.051 17.3811C311.137 17.4012 311.297 17.468 311.523 17.5683C311.748 17.6685 311.928 17.722 312.061 17.722C312.154 17.722 312.227 17.6953 312.293 17.6351C312.353 17.5749 312.393 17.4814 312.413 17.3477H312.971C312.971 17.7353 312.898 18.016 312.751 18.1832C312.612 18.3502 312.426 18.4371 312.2 18.4371C312.101 18.4371 312.007 18.4238 311.915 18.4037C311.848 18.3835 311.682 18.3301 311.423 18.2233C311.158 18.123 310.965 18.0696 310.845 18.0696C310.752 18.0696 310.679 18.0963 310.633 18.1565C310.58 18.2099 310.553 18.3102 310.553 18.4505H310.54H310.54ZM312.167 21.4582C312.014 21.5116 311.768 21.5718 311.43 21.6454C311.091 21.7189 310.872 21.7857 310.772 21.8592C310.613 21.9728 310.533 22.1132 310.533 22.287C310.533 22.4608 310.593 22.6011 310.719 22.7281C310.845 22.855 311.005 22.9152 311.204 22.9152C311.423 22.9152 311.629 22.8417 311.828 22.7014C311.974 22.5943 312.067 22.4608 312.114 22.3003C312.147 22.1933 312.16 21.9996 312.16 21.7054V21.4648L312.167 21.4582Z"/><path fill="#241F21" d="M314.264 21.2963C314.264 20.8952 314.363 20.5008 314.563 20.1266C314.762 19.7457 315.041 19.4583 315.406 19.2578C315.771 19.0573 316.177 18.957 316.622 18.957C317.312 18.957 317.877 19.1843 318.322 19.6321C318.76 20.0866 318.986 20.6548 318.986 21.3432C318.986 22.0317 318.76 22.6133 318.315 23.0743C317.87 23.5288 317.306 23.7628 316.635 23.7628C316.216 23.7628 315.818 23.6693 315.439 23.4754C315.061 23.2816 314.769 23.0075 314.576 22.6398C314.377 22.2723 314.277 21.8244 314.277 21.2964H314.264L314.264 21.2963ZM315.499 21.363C315.499 21.8175 315.605 22.1651 315.824 22.4124C316.037 22.653 316.303 22.7734 316.621 22.7734C316.94 22.7734 317.199 22.653 317.412 22.4124C317.624 22.1719 317.731 21.8175 317.731 21.3564C317.731 20.8954 317.624 20.561 317.412 20.3204C317.199 20.0798 316.934 19.9594 316.621 19.9594C316.309 19.9594 316.044 20.0798 315.824 20.3204C315.612 20.561 315.499 20.9086 315.499 21.3698V21.363Z"/><path fill="#241F21" d="M322.381 23.6556V17.3125H327.057V18.3886H323.656V19.7922H326.824V20.8616H323.656V22.5861H327.176V23.6554L322.381 23.6556Z"/><path fill="#241F21" d="M331.25 23.6574V22.9689C331.084 23.2163 330.865 23.41 330.593 23.5504C330.32 23.6907 330.035 23.7642 329.736 23.7642C329.437 23.7642 329.151 23.6975 328.912 23.5637C328.666 23.43 328.494 23.2362 328.381 22.9957C328.274 22.7483 328.215 22.4142 328.215 21.9797V19.0723H329.424V21.1844C329.424 21.8328 329.444 22.2271 329.49 22.3742C329.537 22.5212 329.616 22.6349 329.736 22.7218C329.855 22.8087 330.001 22.8487 330.181 22.8487C330.387 22.8487 330.573 22.7885 330.739 22.6749C330.905 22.5613 331.011 22.421 331.071 22.2538C331.131 22.0867 331.164 21.6724 331.164 21.0106V19.0723H332.373V23.6709H331.25V23.6575L331.25 23.6574Z"/><path fill="#241F21" d="M334.781 23.6561H333.572V19.0574H334.695V19.7124C334.887 19.4049 335.06 19.1978 335.213 19.1041C335.366 19.0039 335.538 18.957 335.737 18.957C336.01 18.957 336.275 19.0306 336.534 19.1843L336.163 20.247C335.957 20.1133 335.771 20.0465 335.598 20.0465C335.426 20.0465 335.286 20.0933 335.166 20.1868C335.047 20.2803 334.954 20.4475 334.887 20.6949C334.821 20.9422 334.788 21.4569 334.788 22.2388V23.6558H334.781V23.6561Z"/><path fill="#241F21" d="M336.771 21.2963C336.771 20.8952 336.871 20.5008 337.07 20.1266C337.27 19.7457 337.549 19.4583 337.914 19.2578C338.279 19.0573 338.684 18.957 339.129 18.957C339.82 18.957 340.385 19.1843 340.83 19.6321C341.268 20.0866 341.494 20.6548 341.494 21.3432C341.494 22.0317 341.268 22.6133 340.823 23.0743C340.378 23.5355 339.814 23.7628 339.143 23.7628C338.724 23.7628 338.326 23.6693 337.947 23.4754C337.569 23.2816 337.276 23.0075 337.084 22.6398C336.885 22.2723 336.785 21.8244 336.785 21.2964H336.772L336.771 21.2963ZM338.007 21.363C338.007 21.8175 338.113 22.1651 338.332 22.4124C338.545 22.653 338.81 22.7734 339.129 22.7734C339.448 22.7734 339.707 22.653 339.92 22.4124C340.132 22.1719 340.239 21.8175 340.239 21.3564C340.239 20.8954 340.132 20.561 339.92 20.3204C339.707 20.0798 339.442 19.9594 339.129 19.9594C338.817 19.9594 338.552 20.0798 338.332 20.3204C338.12 20.561 338.007 20.9086 338.007 21.3698V21.363Z"/><path fill="#241F21" d="M342.4 19.0651H343.53V19.7402C343.676 19.5062 343.875 19.319 344.121 19.1787C344.373 19.0316 344.645 18.9648 344.951 18.9648C345.482 18.9648 345.934 19.1721 346.299 19.5931C346.671 20.0142 346.857 20.5957 346.857 21.3443C346.857 22.0929 346.671 22.7078 346.299 23.1356C345.927 23.5633 345.476 23.7772 344.944 23.7772C344.692 23.7772 344.466 23.7238 344.26 23.6235C344.054 23.5232 343.842 23.3494 343.616 23.1021V25.4148H342.407V19.0717L342.4 19.0649V19.0651ZM343.596 21.2841C343.596 21.7988 343.696 22.1798 343.902 22.427C344.107 22.6742 344.353 22.7946 344.645 22.7946C344.938 22.7946 345.157 22.681 345.35 22.4537C345.535 22.2265 345.628 21.8588 345.628 21.3375C345.628 20.8564 345.535 20.4954 345.343 20.2614C345.15 20.0274 344.911 19.9138 344.632 19.9138C344.353 19.9138 344.094 20.0274 343.895 20.2547C343.702 20.4819 343.603 20.8227 343.603 21.2706L343.596 21.284L343.596 21.2841Z"/><path fill="#241F21" d="M350.453 22.1987L351.655 22.3992C351.502 22.8403 351.256 23.1812 350.924 23.4152C350.592 23.6492 350.174 23.7628 349.669 23.7628C348.872 23.7628 348.287 23.5021 347.909 22.9808C347.61 22.5597 347.457 22.0317 347.457 21.3967C347.457 20.6347 347.656 20.0399 348.048 19.6054C348.44 19.1709 348.945 18.957 349.549 18.957C350.227 18.957 350.765 19.1843 351.157 19.6321C351.549 20.0866 351.734 20.775 351.721 21.7042H348.692C348.699 22.0652 348.799 22.3458 348.985 22.5463C349.171 22.7468 349.403 22.8471 349.682 22.8471C349.868 22.8471 350.027 22.7937 350.16 22.6934C350.293 22.5932 350.386 22.4194 350.453 22.1921V22.1989V22.1987ZM350.519 20.9689C350.512 20.6147 350.419 20.3473 350.247 20.1669C350.074 19.9865 349.868 19.8928 349.616 19.8928C349.35 19.8928 349.131 19.9863 348.965 20.1802C348.792 20.374 348.706 20.6347 348.712 20.9689H350.519Z"/><path fill="#241F21" d="M352.713 18.4433V17.3203H353.922V18.4433H352.713ZM352.713 23.6634V19.0648H353.922V23.6634H352.713Z"/><path fill="#241F21" d="M356.06 20.4676L354.964 20.2671C355.09 19.826 355.303 19.4918 355.602 19.2779C355.901 19.064 356.352 18.957 356.943 18.957C357.481 18.957 357.887 19.0238 358.146 19.1508C358.411 19.2778 358.597 19.4448 358.704 19.6387C358.81 19.8392 358.863 20.2002 358.863 20.7282L358.85 22.1451C358.85 22.5462 358.87 22.8469 358.91 23.0409C358.949 23.2346 359.022 23.4353 359.129 23.6558H357.933C357.9 23.5756 357.86 23.4552 357.82 23.2948C357.8 23.2213 357.787 23.1744 357.781 23.1545C357.575 23.355 357.356 23.5087 357.116 23.6089C356.884 23.7092 356.632 23.7626 356.366 23.7626C355.894 23.7626 355.522 23.6356 355.257 23.3749C354.984 23.121 354.852 22.7935 354.852 22.3991C354.852 22.1384 354.911 21.9112 355.038 21.7039C355.164 21.5034 355.336 21.3429 355.556 21.2361C355.775 21.1291 356.1 21.0356 356.519 20.9554C357.083 20.8484 357.475 20.7481 357.695 20.6546V20.5343C357.695 20.3003 357.635 20.1332 357.522 20.033C357.409 19.9327 357.19 19.8859 356.871 19.8859C356.658 19.8859 356.486 19.926 356.366 20.0129C356.246 20.0998 356.147 20.2469 356.074 20.4607L356.06 20.4675L356.06 20.4676ZM357.674 21.4569C357.521 21.5103 357.276 21.5705 356.937 21.644C356.598 21.7176 356.379 21.7843 356.279 21.8579C356.12 21.9715 356.04 22.1118 356.04 22.2856C356.04 22.4594 356.1 22.5998 356.226 22.7267C356.352 22.8537 356.512 22.9139 356.711 22.9139C356.93 22.9139 357.136 22.8403 357.335 22.7C357.482 22.593 357.574 22.4594 357.621 22.299C357.654 22.192 357.667 21.9982 357.667 21.704V21.4635L357.674 21.4569Z"/><path fill="#241F21" d="M6.84871 16.1363C6.51033 16.9517 6.34121 17.7979 6.34121 18.6754C6.34121 19.5711 6.51033 20.4211 6.84871 21.2272C7.18679 22.0334 7.64041 22.7412 8.21022 23.3501C8.77971 23.959 9.45196 24.4476 10.226 24.8145C11.0005 25.1814 11.8322 25.3651 12.7223 25.3651C13.2738 25.3651 13.8079 25.2842 14.3243 25.1231C14.8404 24.9621 15.3299 24.7381 15.7927 24.4513C16.2553 24.1653 16.678 23.8291 17.061 23.4442C17.4436 23.0592 17.7773 22.6514 18.0623 22.2218L21.5598 23.6454C21.1324 24.4341 20.6074 25.1459 19.9844 25.7816C19.3613 26.418 18.6716 26.9639 17.9152 27.4204C17.1588 27.8777 16.3401 28.2311 15.459 28.4817C14.578 28.7324 13.6658 28.8579 12.7223 28.8579C11.3342 28.8579 10.0257 28.5892 8.79767 28.052C7.56968 27.5145 6.49706 26.7848 5.58043 25.8623C4.6635 24.9401 3.93863 23.8605 3.40458 22.6247C2.87054 21.3889 2.60352 20.0722 2.60352 18.6752C2.60352 17.2782 2.87054 15.9617 3.40458 14.7251C3.93847 13.4894 4.6635 12.4107 5.58043 11.4883C6.4969 10.566 7.56968 9.83533 8.79767 9.2979C10.0257 8.76063 11.3341 8.49176 12.7223 8.49176C13.6658 8.49176 14.578 8.61747 15.459 8.86812C16.3401 9.11955 17.1586 9.47312 17.9152 9.92946C18.6716 10.386 19.3613 10.9328 19.9844 11.5683C20.6074 12.2047 21.1324 12.9078 21.5598 13.6778L18.0623 15.1013C17.7773 14.6716 17.4436 14.2686 17.061 13.8923C16.6781 13.5159 16.2553 13.1851 15.7927 12.8985C15.3299 12.6125 14.8404 12.3878 14.3243 12.2267C13.8079 12.0657 13.2738 11.9847 12.7223 11.9847C11.8322 11.9847 11.0005 12.1686 10.226 12.5355C9.45196 12.9032 8.77971 13.391 8.21022 13.9999C7.64041 14.6089 7.18679 15.3213 6.84871 16.1361V16.1363ZM24.0205 28.4819H37.9517V25.1997H27.2821V20.3163H35.0548V17.034H27.2821V12.0972H37.9517V8.815H24.0205V28.4819ZM54.4038 20.7175L41.1613 8.84172V28.4819H44.8989V16.7947L58.1413 28.4819V8.84172H54.4038V20.7175ZM60.8188 12.1461H66.4253V28.4819H70.1633V12.1461H75.743V8.815H60.8189V12.1461H60.8188ZM89.9029 21.8723L94.5438 28.4819H90.0848L85.7864 22.222H82.0874V28.4819H78.3498V8.815H87.2286C88.227 8.815 89.1409 8.98079 89.97 9.31142C90.799 9.64377 91.508 10.1089 92.0962 10.709C92.684 11.3093 93.1435 12.025 93.4733 12.8586C93.8033 13.6913 93.9683 14.6004 93.9683 15.5855C93.9683 17.0719 93.5983 18.3705 92.8582 19.4814C92.1182 20.5916 91.1332 21.3889 89.9029 21.872V21.8723ZM89.2455 18.0707C89.5292 17.7934 89.7647 17.4484 89.9508 17.0361C90.137 16.6244 90.2303 16.1412 90.2303 15.5858C90.2303 15.299 90.1949 14.9588 90.1242 14.5645C90.0531 14.1709 89.911 13.7945 89.6983 13.4364C89.4856 13.0781 89.1838 12.7741 88.7936 12.5226C88.4029 12.272 87.8798 12.1463 87.2236 12.1463H82.0874V18.8902H87.2236C87.5609 18.8902 87.9107 18.8234 88.2744 18.6891C88.6382 18.5547 88.9617 18.3489 89.2455 18.0707ZM123.807 14.5301C124.978 13.6743 126.084 12.8663 126.084 11.2796C126.084 9.66939 124.921 8.58699 123.19 8.58699C121.588 8.58699 120.398 9.60826 120.159 11.189L120.118 11.4578H121.627C121.839 10.5103 122.355 10.0459 123.207 10.0459C124.06 10.0459 124.543 10.4903 124.543 11.2667C124.543 12.0847 123.89 12.5745 122.902 13.316L122.632 13.5164C121.349 14.4637 120.137 15.3578 120.137 16.8863V18.0415L126.084 18.0482V16.6074H121.725C121.885 15.9021 123.074 15.0533 123.807 14.5301ZM136.347 24.6536C136.075 26.8061 134.348 28.5443 132.209 28.818C129.071 29.2195 126.42 26.5508 126.819 23.3935C127.091 21.2414 128.818 19.5035 130.957 19.23C134.094 18.8285 136.746 21.4961 136.347 24.6536ZM134.798 23.4668C134.574 22.1087 133.486 21.0135 132.136 20.7893C129.908 20.4189 128.001 22.3378 128.369 24.5802C128.592 25.9384 129.68 27.0341 131.03 27.2587C133.258 27.6296 135.166 25.7093 134.798 23.4668ZM126.786 12.6557C127.058 10.5037 128.786 8.76613 130.924 8.49255C134.062 8.09089 136.713 10.7589 136.314 13.9165C136.042 16.0687 134.315 17.8067 132.177 18.0806C129.039 18.4824 126.387 15.8135 126.786 12.6557ZM128.336 13.8425C128.559 15.2011 129.647 16.2969 130.998 16.5213C133.226 16.8917 135.133 14.9717 134.764 12.7296C134.541 11.3714 133.453 10.2761 132.103 10.0517C129.875 9.68133 127.968 11.6002 128.336 13.8425ZM116.315 14.6854C116.849 15.9306 117.116 17.2512 117.116 18.6481C117.116 20.0638 116.849 21.3891 116.315 22.6249C115.781 23.8608 115.056 24.9402 114.139 25.8625C113.222 26.7848 112.15 27.5147 110.922 28.0521C109.694 28.5894 108.376 28.8581 106.97 28.8581C105.582 28.8581 104.274 28.5894 103.046 28.0521C101.818 27.5147 100.745 26.7849 99.8283 25.8625C98.9114 24.9401 98.1865 23.8606 97.6525 22.6249C97.1184 21.3891 96.8514 20.0638 96.8514 18.6479C96.8514 17.2511 97.1184 15.9304 97.6525 14.6852C98.1864 13.4408 98.9114 12.3573 99.8283 11.4343C100.745 10.512 101.818 9.78206 103.046 9.24479C103.656 8.97749 104.289 8.7831 104.939 8.64922L104.938 8.64702C104.981 8.63759 105.025 8.63099 105.068 8.62219C105.106 8.61496 105.142 8.60553 105.18 8.59877L105.181 8.60082C105.763 8.48987 106.364 8.42969 106.987 8.42969C107.618 8.42969 108.228 8.4905 108.821 8.60742C109.548 8.73989 110.248 8.95014 110.922 9.24479C112.15 9.78206 113.222 10.512 114.139 11.4343C115.055 12.3573 115.781 13.4408 116.315 14.6852V14.6854ZM105.292 8.80887L106.981 11.9583H106.981L108.67 8.80793C108.122 8.70642 107.559 8.6522 106.987 8.6522C106.423 8.6522 105.834 8.71207 105.292 8.80887ZM113.378 18.6481C113.378 17.7712 113.209 16.9244 112.872 16.1097C112.534 15.2943 112.077 14.5825 111.499 13.9735C110.922 13.3646 110.247 12.8767 109.475 12.5091C108.702 12.1423 107.872 11.9585 106.984 11.9585C106.096 11.9585 105.265 12.1423 104.492 12.5091C103.72 12.8768 103.045 13.3646 102.468 13.9735C101.89 14.5825 101.433 15.2943 101.096 16.1097C100.758 16.9244 100.59 17.7714 100.59 18.6481C100.59 19.5446 100.758 20.3945 101.096 21.2005C101.433 22.0067 101.89 22.7185 102.468 23.3367C103.045 23.9549 103.72 24.4476 104.492 24.8145C105.265 25.1814 106.095 25.3653 106.984 25.3653C107.872 25.3653 108.702 25.1814 109.475 24.8145C110.247 24.4477 110.922 23.9551 111.499 23.3367C112.077 22.7184 112.534 22.0067 112.872 21.2005C113.209 20.3945 113.378 19.5444 113.378 18.6481ZM106.984 16.9806C106.069 16.9806 105.327 17.7274 105.327 18.6485C105.327 19.5697 106.069 20.3163 106.984 20.3163C107.899 20.3163 108.641 19.5695 108.641 18.6485C108.641 17.7275 107.899 16.9806 106.984 16.9806ZM124.765 23.7348C125.348 23.2739 125.673 22.6079 125.673 21.8363C125.673 20.3578 124.518 19.3244 122.865 19.3244C121.338 19.3244 120.25 20.2036 119.953 21.677L119.898 21.9498H121.482C121.636 21.1997 122.145 20.7685 122.895 20.7685C123.267 20.7685 124.132 20.8815 124.132 21.9284C124.132 22.6909 123.7 23.0935 122.883 23.0935H122.039V24.5511H122.883C123.892 24.5511 124.518 25.0966 124.518 25.9752C124.518 26.8438 123.893 27.405 122.926 27.405C122.064 27.405 121.513 26.9392 121.28 26.0278H119.797L119.756 26.0394L119.812 26.3185C120.129 27.9033 121.296 28.8499 122.932 28.8499C124.773 28.8499 126.058 27.6751 126.058 25.9931C126.058 24.9881 125.594 24.1913 124.765 23.7348Z"/></g></svg>