<svg width="137" height="201" viewBox="0 0 137 201" fill="none" xmlns="http://www.w3.org/2000/svg"><path d="M29.3015 57.7301V98.7627L27.9764 98.826V63.7879M130.616 83.5021C130.574 82.7 129.964 82.0668 129.186 81.9824C125.169 81.4969 121.11 81.7291 117.198 82.6578C116.44 82.8478 115.915 83.5443 115.957 84.3464L116.525 94.2246M131.163 93.5281L130.595 83.5021M43.8772 88.1246C43.8351 87.3225 43.2462 86.6893 42.468 86.5838C38.4718 86.0561 34.3914 86.2461 30.4583 87.1537C29.9114 87.2803 29.4697 87.6814 29.3015 88.1879M29.3015 90.8475L29.6801 98.7627L44.361 98.0029L43.8982 88.1457M7.13289 197.756C7.28012 197.777 7.44839 197.798 7.59562 197.798H130.385C131.857 197.798 133.056 196.595 133.056 195.118V98.8471C133.056 97.3696 131.857 96.1665 130.385 96.1665C130.343 96.1665 130.301 96.1665 130.238 96.1665L21.2669 101.865L4.96652 194.653C4.71412 196.11 5.68163 197.503 7.13289 197.756ZM111.876 51.2712C111.813 50.0892 110.804 49.1816 109.626 49.2449C109.584 49.2449 109.542 49.2449 109.521 49.2449L29.028 57.6879L21.7507 99.1215L114.043 94.3091L111.876 51.2712ZM2.33742 194.189L26.5882 56.2315C26.6513 55.8515 26.6303 55.4505 26.5462 55.0706L12.8538 3.82198L15.4409 3.12544L29.1332 54.374C29.1332 54.374 29.2173 54.9439 29.2594 55.556L109.331 47.1342C109.331 47.1342 109.479 47.1342 109.563 47.1342C111.918 47.0076 113.937 48.8228 114.064 51.1868L116.23 94.2246L130.154 93.507C130.154 93.507 130.343 93.507 130.427 93.507C133.372 93.507 135.77 95.9132 135.77 98.8683V195.139C135.77 198.094 133.372 200.5 130.427 200.5H7.63768C7.32219 200.5 7.0067 200.479 6.71224 200.416C3.80971 199.909 1.8747 197.123 2.37948 194.21L2.33742 194.189ZM61.2082 87.1959C61.1662 86.3938 60.5773 85.7606 59.799 85.6551C55.8028 85.1274 51.7224 85.3174 47.7893 86.225C47.0321 86.3938 46.4853 87.1115 46.5273 87.8924L46.9901 97.834L61.671 97.0741L61.2082 87.1959ZM113.264 84.3886C113.222 83.6077 112.612 82.9533 111.834 82.8689C107.838 82.3834 103.758 82.6156 99.8455 83.5443C99.0673 83.7343 98.5415 84.4308 98.6046 85.2329L99.1725 95.1112L113.853 94.3513L113.285 84.4097L113.264 84.3886ZM95.8703 85.3174C95.8282 84.5153 95.2183 83.8821 94.4401 83.7976C90.4438 83.3122 86.3635 83.5443 82.4514 84.4731C81.6942 84.663 81.1684 85.3596 81.2104 86.1616L81.7783 96.0399L96.4592 95.2589L95.8913 85.3174H95.8703ZM78.5813 86.2883C78.5393 85.4862 77.9504 84.853 77.1721 84.7475C73.1759 84.2198 69.0955 84.4097 65.1624 85.3174C64.4052 85.4862 63.8584 86.2039 63.9004 86.9848L64.3632 96.9264L79.0441 96.1665L78.5813 86.2883ZM37.8198 48.4851C38.5769 48.274 39.0817 47.5564 39.0186 46.7543C38.6611 42.7228 37.6094 38.7757 35.8637 35.1241C35.5272 34.4065 34.7279 34.0477 33.9708 34.2376L24.4219 36.8338L28.2709 51.0813L37.8198 48.4851ZM33.3187 31.6414C34.0759 31.4304 34.5807 30.7127 34.5176 29.9106C34.16 25.8791 33.0874 21.9321 31.3627 18.2805C31.0262 17.5629 30.2269 17.204 29.4697 17.394L19.9208 19.9902L23.7698 34.2165L33.3187 31.6203V31.6414ZM28.8177 14.7978C29.5749 14.5867 30.0797 13.8691 30.0166 13.067C29.659 9.03549 28.5864 5.08842 26.8617 1.43686C26.5251 0.719209 25.7259 0.360384 24.9687 0.55035L15.4198 3.12544L19.2268 17.4151L28.8177 14.7978Z" stroke="#241F21" stroke-miterlimit="10"/></svg>