<svg class="right-svg" width="97" height="268" viewBox="0 0 97 268" fill="none" xmlns="http://www.w3.org/2000/svg"><g clip-path="url(#clip0_8810_1838)"><path d="M13.1575 4.54297H13.0313M6.75391 8.14028V8.26651" stroke="#241F21" stroke-width="0.5" stroke-miterlimit="10"/><path d="M14.328 6.62564L13.1293 4.57454M6.72575 8.26652L7.92445 10.3176M13.6971 4.13277C13.6971 4.13277 13.7287 4.10121 13.7602 4.06966C13.7602 4.0381 13.7602 4.00654 13.7602 3.97499L12.6562 2.05011C12.53 1.86078 12.3092 1.73456 12.0883 1.79767C11.2051 1.987 10.3218 2.30255 9.53323 2.74433L9.3755 2.839V2.87055V2.90211H9.34396L9.31242 2.93366H9.28087L9.24933 2.96522H9.21778L9.18624 2.99677H9.15469L9.12315 3.02833H9.0916L9.06006 3.05988H9.02851L8.99697 3.09144H8.96542L8.93388 3.12299H8.90233L8.87079 3.15455H8.83924L8.8077 3.1861H8.77615L8.74461 3.24922H8.71307L8.68152 3.31233H8.64998L8.61843 3.37544H8.58689L8.55534 3.43855H8.5238L8.49225 3.4701H8.46071L8.42916 3.53321H8.39762L8.36607 3.56477H8.33453L8.30298 3.59632H8.27144L8.23989 3.62788H8.20835L8.1768 3.65944H8.14526L8.11372 3.69099H8.08217L8.05063 3.72255H8.01908L7.98754 3.7541H7.95599V3.78566H7.92445V3.81721C7.00965 4.35365 6.28412 4.95321 5.68477 5.64743C5.55859 5.8052 5.52705 6.02609 5.59014 6.21542V6.27853V6.34164C5.59014 6.34164 6.50494 7.8563 6.66266 8.1403V8.17186C6.66266 8.17186 6.6942 8.20341 6.72575 8.20341C6.78884 8.20341 6.85193 8.17186 6.85193 8.17186V8.1403L6.88347 8.10875H6.91502L6.94656 8.07719H6.97811L7.00965 8.04564H7.0412L7.10428 7.98252H7.16737L7.23046 7.91941H7.29355L7.35664 7.8563H7.41973L7.48282 7.79319H7.54591L7.609 7.73008H7.67209L7.73518 7.66697H7.79827L7.86136 7.57231H7.92445L7.98754 7.47764H8.05063L8.14526 7.38297H8.20835L8.30298 7.28831L8.39762 7.2252L8.49225 7.16208H8.58689L8.68152 7.06742L8.77615 7.00431L8.87079 6.9412L8.96542 6.87809L9.06006 6.81498L9.15469 6.75186L9.24933 6.68875L9.34396 6.62564L9.43859 6.56253L9.53323 6.49942L9.62786 6.43631L9.7225 6.3732L9.81713 6.31009L9.91176 6.24698L10.0064 6.18387L10.101 6.12076L10.1957 6.05765L10.2903 5.99453L10.3849 5.93142L10.4796 5.86831L10.5742 5.8052L10.6688 5.74209L10.7635 5.67898L10.8581 5.61587L10.9527 5.55276L11.0474 5.48965L11.142 5.42654L11.2366 5.36343L11.3313 5.30032L11.4259 5.23721L11.5205 5.17409L11.6152 5.11098L11.7098 5.04787L11.8044 4.98476L11.8991 4.92165L11.9937 4.85854L12.0883 4.79543L12.183 4.73232L12.2776 4.66921H12.3723L12.4669 4.57454H12.5615L12.6562 4.47988H12.7508L12.8139 4.38521H12.9085L12.9716 4.29054H13.0347L13.0978 4.19588H13.1609L13.224 4.10121H13.287L13.3501 4.0381H13.4132L13.4763 3.97499H13.5394L13.6025 3.91188H13.6656L13.7287 3.84877H13.7918L13.8549 3.78566H13.8864L13.9179 3.72255H13.9495L13.981 3.69099H14.0126L14.0441 3.65944L14.0757 3.62788V3.59632C14.1072 3.59632 14.1388 3.56477 14.1703 3.56477L13.6971 4.13277Z" stroke="#241F21" stroke-miterlimit="10"/><path d="M20.9102 9.84485V9.5293" stroke="#241F21" stroke-width="0.5" stroke-miterlimit="10"/><path d="M3.30836 17.5557L3.24527 14.4513M93.684 17.5557L93.7471 14.4513M18.6706 7.98244H18.8915L18.7968 7.79311L18.8915 7.60378C18.8915 7.60378 18.7968 7.47755 18.8284 7.41444L18.923 7.25667L19.7116 6.78334L19.8693 6.878V6.90956V6.94111L19.9009 6.97267H19.9324L19.964 7.00422L19.9955 7.03578H20.0271V7.06733H20.0586L20.0902 7.09889H20.1217L20.1532 7.13045H20.1848L20.2163 7.162H20.2479L20.2794 7.19356H20.311L20.3425 7.22511H20.3741L20.4056 7.25667H20.4371L20.4687 7.28822H20.5002L20.5318 7.31978V7.35133V7.38289C20.5318 7.38289 20.5633 7.41444 20.6895 7.47755V8.39266L20.5949 8.51888C20.5949 8.51888 20.4687 8.61355 20.4056 8.58199L20.3425 8.67666C20.3425 8.67666 20.3425 8.70822 20.2794 8.77133C20.2794 8.73977 20.2479 8.67666 20.2479 8.67666C20.2479 8.67666 20.2479 8.70822 20.2479 8.77133C20.2479 8.80288 20.2479 8.89755 20.1848 8.99221M20.9103 9.84421V11.99V9.52866C20.9103 9.52866 20.9103 9.52866 20.9103 9.4971C20.9103 9.40243 20.8472 9.33932 20.7841 9.27621L20.5949 9.11844L18.6391 8.04555L18.4183 7.91933L22.109 1.2927V1.26114C22.109 1.26114 22.109 1.26114 22.2352 1.04025C22.2983 0.914032 22.2667 0.756255 22.1406 0.693144L21.7936 0.472256C21.7936 0.472256 21.5097 0.440701 21.415 0.566922C21.2889 0.756255 21.2889 0.756255 21.2889 0.756255V0.78781L17.0619 7.31978C17.0619 7.31978 17.0303 7.38289 16.9988 7.38289C16.9988 7.38289 16.9672 7.446 16.9357 7.446C16.9357 7.446 16.9041 7.50911 16.8726 7.50911C16.841 7.50911 16.841 7.57222 16.8095 7.57222L16.2732 8.39266C16.2732 8.42422 16.2102 8.45577 16.1786 8.48733C16.0524 8.55044 15.8947 8.48733 15.8001 8.39266L14.8537 6.75178L14.7276 6.49934C14.7276 6.49934 14.6014 6.40467 14.5383 6.43623C14.4752 6.46778 14.4436 6.49934 14.4436 6.49934V6.53089H14.4121L14.3806 6.56245H14.349L14.3175 6.594H14.2859L14.2544 6.65711H14.2228L14.1913 6.72023H14.1282L14.0651 6.78334H14.002L13.9389 6.84645H13.8758L13.8128 6.90956H13.7497L13.6866 6.97267C13.6866 6.97267 13.655 6.97267 13.6235 6.97267L13.5604 7.00422H13.4973L13.4342 7.09889H13.3711L13.308 7.19356H13.2449L13.1819 7.28822H13.1188L13.0557 7.38289H12.9926L12.898 7.47755H12.8033L12.7087 7.57222H12.6141L12.5194 7.66689H12.4248L12.3302 7.76155L12.2355 7.82466L12.1409 7.88777L12.0463 7.95089L11.9516 8.014L11.857 8.07711L11.7623 8.14022L11.6677 8.20333L11.5731 8.26644L11.4784 8.32955L11.3838 8.39266L11.2892 8.45577L11.1945 8.51888L11.0999 8.58199L11.0053 8.6451L10.9106 8.70822L10.816 8.77133L10.7214 8.83444L10.6267 8.89755L10.5321 8.96066L10.4375 9.02377L10.3428 9.08688L10.2482 9.14999L10.1536 9.2131H10.0589L9.9643 9.30777L9.86967 9.37088H9.77503L9.6804 9.46555H9.58576L9.49113 9.56021H9.39649L9.30186 9.65488H9.23877L9.14414 9.74954H9.08105L9.01796 9.84421H8.95487L8.89178 9.93888H8.82869L8.7656 10.0335H8.70251L8.63942 10.0967H8.57633L8.51324 10.1598H8.45015L8.38706 10.2229H8.32398L8.26088 10.286H8.19779L8.13471 10.3491H8.07162L8.00853 10.4122H7.97698L7.94544 10.4753H7.91389L7.88235 10.5069H7.8508L7.81926 10.5384H7.78771L7.75617 10.57V10.6015C7.75617 10.6015 7.75617 10.6015 7.66154 10.6646C7.59845 10.6962 7.5669 10.7909 7.59845 10.854C7.59845 10.854 7.62999 10.9171 7.66154 10.9486C7.69308 11.0118 7.75617 11.1064 7.75617 11.1064L8.38706 12.2424M91.7155 263.875H82.9903V49.3831H91.7155V263.875ZM80.1198 263.875H69.3946V49.3831H80.1198V263.875ZM66.8394 263.875H56.1142V49.3831H66.8394V263.875ZM53.5906 263.875H42.8654V49.3831H53.5906V263.875ZM40.3103 263.875H29.5851V49.3831H40.3103V263.875ZM27.0615 263.875H16.3363V49.3831H27.0615V263.875ZM13.4658 263.875H4.74056V49.3831H13.4658V263.875ZM93.6934 46.4365V265.758H2.9204V46.4365H93.6934ZM96.5861 267.62H0.40625V17.5557H96.5861V267.62ZM20.9419 11.99H96.1445C96.3337 11.99 96.4915 12.1478 96.4915 12.3055L96.5861 14.4513H0.40625L0.500884 12.3055C0.500884 12.1162 0.658608 11.99 0.847876 11.99H20.9419Z" stroke="#241F21" stroke-miterlimit="10"/></g><defs><clipPath id="clip0_8810_1838"><rect width="97" height="268" fill="white"/></clipPath></defs></svg>