<svg xmlns="http://www.w3.org/2000/svg" fill="none" viewBox="0 0 320 34" height="34" width="320"><g opacity="0.5"><path fill="#241F21" d="M214.361 2.72656V28.6917H253.094V2.72656H214.361ZM223.925 15.3222L224.947 15.3251L225.26 14.3396L225.573 15.3222H226.596L225.767 15.9216L226.077 16.8913L225.26 16.292L224.443 16.8913L224.754 15.9216L223.923 15.3222H223.925ZM227.214 21.1523L226.396 20.5516L225.578 21.1523L225.889 20.1826L225.06 19.5833H226.083L226.396 18.6006L226.709 19.5833H227.731L226.902 20.1826L227.214 21.1523ZM226.902 11.6748L227.214 12.6446L226.396 12.0453L225.578 12.6446L225.889 11.6748L225.06 11.0755H226.083L226.396 10.0929L226.709 11.0755H227.731L226.902 11.6748ZM229.178 7.95736L229.491 6.97328L229.804 7.95593H230.827L229.997 8.55524L230.307 9.52502L229.491 8.9257L228.673 9.52502L228.983 8.55524L228.154 7.95593H229.177L229.178 7.95736ZM230.315 24.2705L229.498 23.6712L228.68 24.2705L228.99 23.3007L228.161 22.7014H229.184L229.497 21.7202L229.81 22.7014H230.832L230.003 23.3007L230.313 24.2705H230.315ZM233.407 6.81451L233.72 5.83186L234.033 6.81308H235.056L234.225 7.41239L234.537 8.38217L233.719 7.78285L232.901 8.38217L233.212 7.41239L232.383 6.81308H233.406L233.407 6.81451ZM234.538 25.4005L233.721 24.8012L232.903 25.4005L233.214 24.4307L232.384 23.8314H233.407L233.72 22.8487L234.033 23.8314H235.056L234.225 24.4307L234.537 25.4005H234.538ZM238.763 24.2705L237.945 23.6712L237.127 24.2705L237.437 23.3007L236.608 22.7014H237.63L237.945 21.7202L238.258 22.7014H239.28L238.45 23.3007L238.761 24.2705H238.763ZM238.464 8.55667L238.774 9.52645L237.958 8.9257L237.14 9.52645L237.45 8.55667L236.62 7.95593L237.643 7.95879L237.956 6.97471L238.269 7.95593H239.293L238.463 8.55667H238.464ZM240.733 11.0641L241.046 10.08L241.36 11.0626H242.383L241.552 11.662L241.864 12.6317L241.046 12.0324L240.228 12.6317L240.539 11.662L239.709 11.0626H240.731L240.733 11.0641ZM241.864 21.1523L241.046 20.5516L240.228 21.1523L240.539 20.1826L239.709 19.5833H240.731L241.046 18.6006L241.36 19.5833H242.383L241.552 20.1826L241.864 21.1523ZM242.986 16.8813L242.168 16.2806L241.352 16.8813L241.662 15.9115L240.831 15.3122H241.854L242.167 14.3296L242.481 15.3122H243.504L242.673 15.9115L242.983 16.8813H242.986Z"/><path fill="#241F21" d="M257.891 8.52468V2.72461H261.845V3.70583H259.056V5.07897H261.464V6.06019H259.056V8.52468H257.891Z"/><path fill="#241F21" d="M262.797 3.75303V2.72461H263.902V3.75303H262.797ZM262.797 8.52468V4.32374H263.902V8.52468H262.797Z"/><path fill="#241F21" d="M268.835 8.52581H267.73V6.38172C267.73 5.9283 267.706 5.63507 267.659 5.50205C267.612 5.36903 267.535 5.26604 267.429 5.19166C267.322 5.11729 267.194 5.08153 267.044 5.08153C266.852 5.08153 266.682 5.13445 266.529 5.2403C266.377 5.34614 266.273 5.48489 266.217 5.65939C266.16 5.83389 266.133 6.15572 266.133 6.62488V8.52724H265.027V4.3263H266.054V4.94278C266.419 4.46791 266.878 4.23047 267.431 4.23047C267.675 4.23047 267.898 4.27481 268.1 4.36349C268.302 4.45217 268.454 4.56517 268.558 4.70248C268.662 4.8398 268.733 4.99571 268.774 5.16878C268.815 5.34328 268.835 5.59216 268.835 5.91685V8.52867V8.52581Z"/><path fill="#241F21" d="M270.784 5.60399L269.781 5.42234C269.894 5.01612 270.088 4.71574 270.363 4.51978C270.639 4.32526 271.047 4.22656 271.591 4.22656C272.084 4.22656 272.451 4.28521 272.692 4.4025C272.933 4.51978 273.103 4.66854 273.201 4.8502C273.299 5.03042 273.349 5.36226 273.349 5.84572L273.337 7.14305C273.337 7.51208 273.355 7.78528 273.39 7.95978C273.426 8.13571 273.491 8.32309 273.589 8.52334H272.495C272.467 8.44896 272.431 8.34025 272.389 8.19436C272.37 8.12856 272.357 8.08422 272.349 8.06419C272.16 8.24871 271.958 8.38745 271.743 8.479C271.528 8.57197 271.298 8.61774 271.054 8.61774C270.625 8.61774 270.285 8.50045 270.037 8.26587C269.79 8.0313 269.666 7.73378 269.666 7.3762C269.666 7.13876 269.723 6.92707 269.835 6.74112C269.948 6.55517 270.106 6.41214 270.309 6.31344C270.512 6.21475 270.805 6.12893 271.188 6.05455C271.704 5.95729 272.063 5.86575 272.262 5.78135V5.67122C272.262 5.45809 272.209 5.30505 272.104 5.21494C271.999 5.12339 271.801 5.07905 271.51 5.07905C271.313 5.07905 271.16 5.11767 271.049 5.19634C270.939 5.27358 270.85 5.41089 270.781 5.60542L270.784 5.60399ZM272.263 6.50654C272.121 6.55374 271.898 6.61096 271.591 6.67675C271.283 6.74255 271.083 6.80692 270.989 6.87128C270.845 6.97427 270.773 7.10443 270.773 7.2632C270.773 7.42197 270.831 7.55356 270.946 7.66656C271.061 7.77955 271.208 7.83677 271.387 7.83677C271.586 7.83677 271.777 7.77097 271.958 7.63938C272.091 7.53926 272.18 7.41625 272.221 7.27178C272.249 7.17738 272.263 6.99572 272.263 6.72968V6.50797V6.50654Z"/><path fill="#241F21" d="M278.242 8.52581H277.136V6.38172C277.136 5.9283 277.112 5.63507 277.065 5.50205C277.018 5.36903 276.941 5.26604 276.835 5.19166C276.728 5.11729 276.6 5.08153 276.451 5.08153C276.259 5.08153 276.088 5.13445 275.936 5.2403C275.784 5.34614 275.68 5.48489 275.623 5.65939C275.566 5.83389 275.539 6.15572 275.539 6.62488V8.52724H274.434V4.3263H275.461V4.94278C275.825 4.46791 276.284 4.23047 276.838 4.23047C277.081 4.23047 277.304 4.27481 277.506 4.36349C277.708 4.45217 277.86 4.56517 277.964 4.70248C278.068 4.8398 278.139 4.99571 278.18 5.16878C278.222 5.34328 278.242 5.59216 278.242 5.91685V8.52867V8.52581Z"/><path fill="#241F21" d="M283.007 5.56589L281.917 5.76328C281.88 5.54444 281.798 5.37995 281.667 5.26838C281.537 5.15824 281.368 5.10246 281.162 5.10246C280.886 5.10246 280.667 5.19829 280.503 5.38996C280.34 5.58163 280.257 5.9006 280.257 6.34973C280.257 6.84892 280.341 7.20079 280.507 7.40676C280.674 7.61273 280.897 7.71571 281.179 7.71571C281.388 7.71571 281.56 7.65564 281.694 7.53549C281.828 7.41534 281.923 7.20937 281.977 6.91615L283.062 7.10209C282.95 7.60271 282.734 7.98176 282.414 8.23779C282.094 8.49382 281.665 8.62112 281.126 8.62112C280.515 8.62112 280.028 8.4266 279.664 8.03897C279.301 7.65135 279.119 7.11496 279.119 6.4284C279.119 5.74183 279.301 5.194 279.665 4.80781C280.03 4.42161 280.523 4.22852 281.145 4.22852C281.654 4.22852 282.058 4.33865 282.358 4.55893C282.658 4.7792 282.875 5.11533 283.005 5.56589H283.007Z"/><path fill="#241F21" d="M283.846 3.75303V2.72461H284.951V3.75303H283.846ZM283.846 8.52468V4.32374H284.951V8.52468H283.846Z"/><path fill="#241F21" d="M286.909 5.60399L285.906 5.42234C286.019 5.01612 286.213 4.71574 286.488 4.51978C286.764 4.32526 287.172 4.22656 287.716 4.22656C288.209 4.22656 288.576 4.28521 288.817 4.4025C289.058 4.51978 289.228 4.66854 289.326 4.8502C289.424 5.03042 289.474 5.36226 289.474 5.84572L289.462 7.14305C289.462 7.51208 289.48 7.78528 289.515 7.95978C289.551 8.13571 289.616 8.32309 289.714 8.52334H288.62C288.592 8.44896 288.556 8.34025 288.514 8.19436C288.495 8.12856 288.482 8.08422 288.474 8.06419C288.285 8.24871 288.083 8.38745 287.868 8.479C287.653 8.57197 287.423 8.61774 287.179 8.61774C286.75 8.61774 286.41 8.50045 286.162 8.26587C285.915 8.0313 285.791 7.73378 285.791 7.3762C285.791 7.13876 285.848 6.92707 285.96 6.74112C286.073 6.55517 286.231 6.41214 286.434 6.31344C286.637 6.21475 286.93 6.12893 287.313 6.05455C287.829 5.95729 288.188 5.86575 288.387 5.78135V5.67122C288.387 5.45809 288.334 5.30505 288.229 5.21494C288.124 5.12339 287.926 5.07905 287.635 5.07905C287.438 5.07905 287.285 5.11767 287.174 5.19634C287.064 5.27358 286.975 5.41089 286.906 5.60542L286.909 5.60399ZM288.388 6.50654C288.246 6.55374 288.023 6.61096 287.716 6.67675C287.408 6.74255 287.208 6.80692 287.114 6.87128C286.97 6.97427 286.898 7.10443 286.898 7.2632C286.898 7.42197 286.956 7.55356 287.071 7.66656C287.186 7.77955 287.333 7.83677 287.512 7.83677C287.711 7.83677 287.902 7.77097 288.083 7.63938C288.216 7.53926 288.305 7.41625 288.346 7.27178C288.374 7.17738 288.388 6.99572 288.388 6.72968V6.50797V6.50654Z"/><path fill="#241F21" d="M294.396 8.52468H293.369V7.9082C293.198 8.1485 292.997 8.32729 292.764 8.44458C292.532 8.56187 292.297 8.62052 292.061 8.62052C291.582 8.62052 291.169 8.42599 290.828 8.03693C290.485 7.64788 290.314 7.10577 290.314 6.40919C290.314 5.71261 290.481 5.15621 290.814 4.78575C291.147 4.41528 291.568 4.22934 292.077 4.22934C292.543 4.22934 292.947 4.42387 293.289 4.81435V2.72461H294.394V8.52468H294.396ZM291.444 6.33196C291.444 6.77965 291.505 7.10434 291.629 7.30459C291.807 7.59495 292.057 7.73942 292.377 7.73942C292.632 7.73942 292.848 7.63071 293.026 7.4133C293.204 7.19589 293.293 6.8712 293.293 6.4378C293.293 5.95577 293.206 5.6082 293.033 5.39507C292.859 5.18338 292.637 5.07611 292.369 5.07611C292.1 5.07611 291.886 5.18052 291.71 5.39078C291.532 5.60105 291.444 5.91429 291.444 6.33052V6.33196Z"/><path fill="#241F21" d="M295.229 6.36351C295.229 5.99448 295.32 5.63689 295.5 5.29074C295.681 4.9446 295.938 4.68141 296.27 4.49976C296.601 4.3181 296.972 4.22656 297.381 4.22656C298.012 4.22656 298.532 4.43253 298.935 4.8459C299.339 5.25928 299.541 5.77992 299.541 6.41071C299.541 7.04149 299.338 7.57358 298.93 7.99125C298.522 8.40891 298.008 8.61774 297.389 8.61774C297.007 8.61774 296.641 8.53049 296.294 8.35599C295.947 8.18148 295.682 7.92688 295.502 7.59075C295.321 7.25462 295.23 6.84554 295.23 6.36208L295.229 6.36351ZM296.362 6.42358C296.362 6.83981 296.46 7.15878 296.657 7.38049C296.853 7.60219 297.096 7.71233 297.385 7.71233C297.674 7.71233 297.916 7.60219 298.11 7.38049C298.305 7.15878 298.403 6.83695 298.403 6.415C298.403 5.99305 298.305 5.68695 298.11 5.46525C297.916 5.24354 297.672 5.13341 297.385 5.13341C297.098 5.13341 296.854 5.24354 296.657 5.46525C296.46 5.68695 296.362 6.00592 296.362 6.42215V6.42358Z"/><path fill="#241F21" d="M302.615 4.3224H303.647V4.93888C303.78 4.72862 303.961 4.55697 304.19 4.42395C304.419 4.29236 304.671 4.22656 304.95 4.22656C305.435 4.22656 305.847 4.41823 306.186 4.80013C306.524 5.18204 306.693 5.71556 306.693 6.39784C306.693 7.08011 306.523 7.6451 306.183 8.03416C305.841 8.42321 305.429 8.61774 304.944 8.61774C304.713 8.61774 304.504 8.57197 304.317 8.479C304.129 8.38602 303.931 8.22868 303.725 8.00412V10.121H302.62V4.3224H302.615ZM303.709 6.35206C303.709 6.82408 303.802 7.17309 303.988 7.39908C304.174 7.62508 304.4 7.73807 304.669 7.73807C304.938 7.73807 305.14 7.63509 305.311 7.42769C305.482 7.22029 305.567 6.88129 305.567 6.40928C305.567 5.96873 305.479 5.64118 305.304 5.42806C305.127 5.21494 304.91 5.10766 304.651 5.10766C304.392 5.10766 304.156 5.21207 303.978 5.42234C303.8 5.6326 303.711 5.94298 303.711 6.35349L303.709 6.35206Z"/><path fill="#241F21" d="M309.989 7.18843L311.09 7.37438C310.947 7.7806 310.724 8.08956 310.418 8.30268C310.112 8.51437 309.73 8.62165 309.272 8.62165C308.545 8.62165 308.007 8.38278 307.659 7.90504C307.383 7.52314 307.246 7.03968 307.246 6.45753C307.246 5.76094 307.427 5.21598 307.789 4.8212C308.151 4.42643 308.609 4.23047 309.162 4.23047C309.784 4.23047 310.275 4.43644 310.633 4.84981C310.993 5.26318 311.164 5.8954 311.148 6.74646H308.378C308.386 7.07687 308.475 7.3329 308.646 7.51599C308.816 7.69907 309.028 7.79061 309.283 7.79061C309.457 7.79061 309.602 7.74341 309.72 7.64758C309.838 7.55317 309.927 7.40013 309.987 7.18843H309.989ZM310.053 6.06418C310.044 5.74235 309.962 5.49776 309.805 5.33041C309.649 5.16306 309.457 5.07867 309.23 5.07867C308.989 5.07867 308.789 5.16735 308.633 5.34328C308.475 5.52065 308.398 5.75951 308.401 6.06275H310.054L310.053 6.06418Z"/><path fill="#241F21" d="M312.051 8.52468V2.72461H313.156V8.52468H312.051Z"/><path fill="#241F21" d="M315.116 5.60399L314.113 5.42234C314.226 5.01612 314.421 4.71574 314.695 4.51978C314.971 4.32526 315.379 4.22656 315.923 4.22656C316.416 4.22656 316.783 4.28521 317.024 4.4025C317.266 4.51978 317.435 4.66854 317.533 4.8502C317.631 5.03042 317.681 5.36226 317.681 5.84572L317.669 7.14305C317.669 7.51208 317.687 7.78528 317.722 7.95978C317.758 8.13571 317.823 8.32309 317.921 8.52334H316.827C316.799 8.44896 316.763 8.34025 316.721 8.19436C316.702 8.12856 316.689 8.08422 316.681 8.06419C316.492 8.24871 316.29 8.38745 316.075 8.479C315.86 8.57197 315.63 8.61774 315.386 8.61774C314.957 8.61774 314.617 8.50045 314.369 8.26587C314.122 8.0313 313.998 7.73378 313.998 7.3762C313.998 7.13876 314.055 6.92707 314.167 6.74112C314.28 6.55517 314.438 6.41214 314.641 6.31344C314.844 6.21475 315.137 6.12893 315.52 6.05455C316.036 5.95729 316.395 5.86575 316.594 5.78135V5.67122C316.594 5.45809 316.541 5.30505 316.436 5.21494C316.331 5.12339 316.133 5.07905 315.842 5.07905C315.645 5.07905 315.492 5.11767 315.381 5.19634C315.271 5.27358 315.182 5.41089 315.113 5.60542L315.116 5.60399ZM316.596 6.50654C316.453 6.55374 316.23 6.61096 315.923 6.67675C315.615 6.74255 315.415 6.80692 315.321 6.87128C315.177 6.97427 315.105 7.10443 315.105 7.2632C315.105 7.42197 315.163 7.55356 315.278 7.66656C315.394 7.77955 315.54 7.83677 315.719 7.83677C315.918 7.83677 316.109 7.77097 316.29 7.63938C316.423 7.53926 316.512 7.41625 316.553 7.27178C316.581 7.17738 316.596 6.99572 316.596 6.72968V6.50797V6.50654Z"/><path fill="#241F21" d="M257.875 12.4473H259.04V15.5883C259.04 16.0875 259.054 16.4093 259.083 16.5581C259.132 16.7955 259.251 16.9858 259.438 17.1302C259.626 17.2747 259.882 17.3462 260.208 17.3462C260.534 17.3462 260.787 17.279 260.956 17.1431C261.124 17.0072 261.225 16.8399 261.259 16.6425C261.293 16.4451 261.31 16.1161 261.31 15.657V12.4487H262.475V15.4953C262.475 16.1919 262.444 16.684 262.381 16.9715C262.319 17.259 262.202 17.5021 262.033 17.6995C261.864 17.8969 261.637 18.0557 261.354 18.173C261.071 18.2902 260.701 18.3489 260.245 18.3489C259.694 18.3489 259.276 18.2845 258.992 18.1572C258.707 18.0299 258.482 17.8626 258.317 17.658C258.152 17.4535 258.043 17.2389 257.99 17.0158C257.913 16.684 257.876 16.1934 257.876 15.544V12.4501L257.875 12.4473Z"/><path fill="#241F21" d="M267.496 18.2465H266.39V16.1024C266.39 15.649 266.366 15.3558 266.319 15.2228C266.272 15.0897 266.195 14.9867 266.089 14.9124C265.982 14.838 265.854 14.8022 265.705 14.8022C265.513 14.8022 265.342 14.8552 265.19 14.961C265.037 15.0668 264.934 15.2056 264.877 15.3801C264.82 15.5546 264.793 15.8764 264.793 16.3456V18.2479H263.688V14.047H264.715V14.6635C265.079 14.1886 265.538 13.9512 266.092 13.9512C266.335 13.9512 266.558 13.9955 266.76 14.0842C266.962 14.1729 267.114 14.2859 267.218 14.4232C267.322 14.5605 267.393 14.7164 267.434 14.8895C267.476 15.064 267.496 15.3129 267.496 15.6376V18.2494V18.2465Z"/><path fill="#241F21" d="M268.617 13.4757V12.4473H269.722V13.4757H268.617ZM268.617 18.2473V14.0464H269.722V18.2473H268.617Z"/><path fill="#241F21" d="M271.681 15.3271L270.678 15.1455C270.79 14.7392 270.985 14.4389 271.26 14.2429C271.535 14.0484 271.944 13.9497 272.487 13.9497C272.981 13.9497 273.348 14.0083 273.588 14.1256C273.83 14.2429 273.999 14.3917 274.097 14.5733C274.196 14.7535 274.245 15.0854 274.245 15.5688L274.234 16.8662C274.234 17.2352 274.251 17.5084 274.287 17.6829C274.322 17.8588 274.388 18.0462 274.486 18.2465H273.392C273.363 18.1721 273.328 18.0634 273.285 17.9175C273.267 17.8517 273.254 17.8073 273.245 17.7873C273.056 17.9718 272.854 18.1106 272.639 18.2021C272.425 18.2951 272.194 18.3409 271.951 18.3409C271.521 18.3409 271.181 18.2236 270.934 17.989C270.686 17.7544 270.562 17.4583 270.562 17.0993C270.562 16.8619 270.619 16.6502 270.732 16.4642C270.844 16.2783 271.002 16.1353 271.205 16.0366C271.409 15.9379 271.702 15.8521 272.085 15.7777C272.601 15.6804 272.959 15.5889 273.159 15.5045V15.3943C273.159 15.1812 273.106 15.0282 273.001 14.9381C272.895 14.8465 272.698 14.8022 272.406 14.8022C272.21 14.8022 272.056 14.8408 271.945 14.9195C271.836 14.9967 271.746 15.134 271.678 15.3285L271.681 15.3271ZM271.672 13.4791H271.168C271.166 13.419 271.164 13.3704 271.164 13.3361C271.164 13.0586 271.231 12.8455 271.365 12.6967C271.498 12.5479 271.671 12.4736 271.88 12.4736C271.972 12.4736 272.058 12.4836 272.136 12.5036C272.214 12.5236 272.358 12.5794 272.567 12.6738C272.776 12.7668 272.938 12.814 273.056 12.814C273.14 12.814 273.21 12.7882 273.267 12.7353C273.324 12.6824 273.359 12.5937 273.375 12.4707H273.887C273.884 12.8269 273.819 13.0815 273.688 13.2345C273.558 13.3876 273.39 13.4634 273.186 13.4634C273.096 13.4634 273.008 13.4548 272.922 13.4362C272.863 13.4205 272.71 13.3661 272.47 13.2746C272.228 13.1816 272.053 13.1358 271.942 13.1358C271.858 13.1358 271.793 13.1616 271.746 13.2131C271.699 13.2645 271.673 13.3532 271.671 13.4805L271.672 13.4791ZM273.16 16.2297C273.018 16.2769 272.794 16.3341 272.487 16.3999C272.18 16.4657 271.979 16.53 271.885 16.5944C271.742 16.6974 271.669 16.8276 271.669 16.9863C271.669 17.1451 271.728 17.2767 271.843 17.3897C271.958 17.5027 272.104 17.5599 272.284 17.5599C272.483 17.5599 272.673 17.4941 272.854 17.3625C272.988 17.2624 273.076 17.1394 273.117 16.9949C273.146 16.9005 273.16 16.7188 273.16 16.4528V16.2311V16.2297Z"/><path fill="#241F21" d="M275.082 16.0862C275.082 15.7171 275.173 15.3595 275.354 15.0134C275.534 14.6673 275.792 14.4041 276.123 14.2224C276.455 14.0408 276.826 13.9492 277.234 13.9492C277.866 13.9492 278.385 14.1552 278.789 14.5686C279.193 14.9819 279.395 15.5026 279.395 16.1334C279.395 16.7641 279.192 17.2962 278.783 17.7139C278.375 18.1316 277.862 18.3404 277.243 18.3404C276.86 18.3404 276.495 18.2531 276.147 18.0786C275.8 17.9041 275.536 17.6495 275.355 17.3134C275.174 16.9773 275.083 16.5682 275.083 16.0847L275.082 16.0862ZM276.214 16.1462C276.214 16.5625 276.312 16.8814 276.509 17.1031C276.705 17.3248 276.948 17.435 277.237 17.435C277.526 17.435 277.768 17.3248 277.963 17.1031C278.157 16.8814 278.256 16.5596 278.256 16.1377C278.256 15.7157 278.157 15.4096 277.963 15.1879C277.768 14.9662 277.524 14.8561 277.237 14.8561C276.95 14.8561 276.707 14.9662 276.509 15.1879C276.312 15.4096 276.214 15.7286 276.214 16.1448V16.1462Z"/><path fill="#241F21" d="M282.506 18.2473V12.4473H286.783V13.4285H283.671V14.7144H286.567V15.6913H283.671V17.2704H286.893V18.2473H282.506Z"/><path fill="#241F21" d="M290.623 18.2459V17.6165C290.471 17.8411 290.271 18.017 290.023 18.1472C289.776 18.2759 289.514 18.3417 289.238 18.3417C288.962 18.3417 288.706 18.2802 288.483 18.1558C288.259 18.0313 288.099 17.8582 287.999 17.6337C287.899 17.4091 287.85 17.1002 287.85 16.7039V14.0449H288.955V15.9759C288.955 16.5666 288.975 16.9285 289.016 17.0615C289.057 17.1946 289.131 17.3004 289.238 17.3776C289.346 17.4549 289.481 17.4949 289.648 17.4949C289.837 17.4949 290.006 17.4434 290.155 17.339C290.305 17.2346 290.407 17.1059 290.463 16.9514C290.518 16.7969 290.545 16.4193 290.545 15.8186V14.0464H291.651V18.2473H290.623V18.2459Z"/><path fill="#241F21" d="M293.851 18.2465H292.746V14.0456H293.773V14.6435C293.948 14.3617 294.107 14.1757 294.247 14.0856C294.388 13.9955 294.547 13.9512 294.725 13.9512C294.977 13.9512 295.22 14.0213 295.453 14.1614L295.11 15.1312C294.924 15.0096 294.75 14.9496 294.591 14.9496C294.432 14.9496 294.305 14.9925 294.197 15.0783C294.089 15.1641 294.005 15.3186 293.944 15.5432C293.883 15.7677 293.851 16.2369 293.851 16.952V18.2494V18.2465Z"/><path fill="#241F21" d="M295.676 16.0862C295.676 15.7171 295.767 15.3595 295.947 15.0134C296.128 14.6673 296.386 14.4041 296.717 14.2224C297.048 14.0408 297.42 13.9492 297.828 13.9492C298.46 13.9492 298.979 14.1552 299.383 14.5686C299.787 14.9819 299.989 15.5026 299.989 16.1334C299.989 16.7641 299.785 17.2962 299.377 17.7139C298.969 18.1316 298.455 18.3404 297.837 18.3404C297.454 18.3404 297.088 18.2531 296.741 18.0786C296.394 17.9041 296.13 17.6495 295.949 17.3134C295.768 16.9773 295.677 16.5682 295.677 16.0847L295.676 16.0862ZM296.808 16.1462C296.808 16.5625 296.906 16.8814 297.103 17.1031C297.299 17.3248 297.542 17.435 297.831 17.435C298.12 17.435 298.361 17.3248 298.556 17.1031C298.751 16.8814 298.849 16.5596 298.849 16.1377C298.849 15.7157 298.751 15.4096 298.556 15.1879C298.361 14.9662 298.118 14.8561 297.831 14.8561C297.544 14.8561 297.3 14.9662 297.103 15.1879C296.906 15.4096 296.808 15.7286 296.808 16.1448V16.1462Z"/><path fill="#241F21" d="M300.822 14.0451H301.854V14.6615C301.987 14.4513 302.168 14.2796 302.397 14.1466C302.626 14.015 302.878 13.9492 303.157 13.9492C303.642 13.9492 304.054 14.1409 304.393 14.5228C304.731 14.9047 304.901 15.4382 304.901 16.1205C304.901 16.8028 304.73 17.3678 304.39 17.7568C304.048 18.1459 303.636 18.3404 303.151 18.3404C302.92 18.3404 302.711 18.2946 302.524 18.2017C302.336 18.1087 302.138 17.9513 301.932 17.7268V19.8437H300.827V14.0436L300.822 14.0451ZM301.916 16.0747C301.916 16.5467 302.009 16.8957 302.195 17.1217C302.381 17.3477 302.608 17.4593 302.876 17.4593C303.145 17.4593 303.347 17.3563 303.518 17.1489C303.689 16.9415 303.774 16.6025 303.774 16.1305C303.774 15.69 303.686 15.3624 303.511 15.1493C303.334 14.9362 303.117 14.8289 302.858 14.8289C302.599 14.8289 302.363 14.9333 302.185 15.1436C302.007 15.3538 301.918 15.6642 301.918 16.0747H301.916Z"/><path fill="#241F21" d="M308.194 16.9091L309.295 17.0951C309.152 17.5013 308.929 17.8103 308.623 18.0234C308.317 18.2351 307.935 18.3424 307.477 18.3424C306.75 18.3424 306.212 18.1035 305.864 17.6257C305.588 17.2438 305.451 16.7604 305.451 16.1782C305.451 15.4816 305.632 14.9367 305.995 14.5419C306.356 14.1471 306.814 13.9512 307.367 13.9512C307.989 13.9512 308.48 14.1571 308.838 14.5705C309.198 14.9839 309.369 15.6161 309.353 16.4672H306.583C306.591 16.7961 306.68 17.0536 306.851 17.2367C307.022 17.4198 307.234 17.5113 307.488 17.5113C307.662 17.5113 307.807 17.4641 307.925 17.3683C308.043 17.2739 308.133 17.1208 308.192 16.9091H308.194ZM308.256 15.7863C308.248 15.4645 308.165 15.2199 308.009 15.0525C307.851 14.8852 307.66 14.8008 307.434 14.8008C307.192 14.8008 306.993 14.8895 306.837 15.0654C306.679 15.2428 306.602 15.4816 306.605 15.7849H308.258L308.256 15.7863Z"/><path fill="#241F21" d="M310.256 13.4757V12.4473H311.361V13.4757H310.256ZM310.256 18.2473V14.0464H311.361V18.2473H310.256Z"/><path fill="#241F21" d="M313.321 15.3266L312.318 15.145C312.431 14.7388 312.626 14.4384 312.9 14.2424C313.176 14.0479 313.584 13.9492 314.128 13.9492C314.621 13.9492 314.988 14.0079 315.229 14.1252C315.471 14.2424 315.64 14.3912 315.738 14.5729C315.836 14.7531 315.886 15.0849 315.886 15.5684L315.875 16.8657C315.875 17.2347 315.892 17.5079 315.927 17.6824C315.963 17.8584 316.028 18.0457 316.126 18.246H315.032C315.004 18.1716 314.968 18.0629 314.926 17.917C314.907 17.8512 314.894 17.8069 314.886 17.7868C314.697 17.9714 314.495 18.1101 314.28 18.2017C314.065 18.2946 313.835 18.3404 313.591 18.3404C313.162 18.3404 312.822 18.2231 312.574 17.9885C312.327 17.754 312.203 17.4579 312.203 17.0989C312.203 16.8614 312.26 16.6497 312.372 16.4638C312.485 16.2778 312.643 16.1348 312.846 16.0361C313.05 15.9374 313.343 15.8516 313.725 15.7772C314.242 15.6799 314.6 15.5884 314.799 15.504V15.3939C314.799 15.1808 314.747 15.0277 314.641 14.9376C314.536 14.846 314.338 14.8017 314.047 14.8017C313.85 14.8017 313.697 14.8403 313.586 14.919C313.476 14.9962 313.387 15.1335 313.318 15.3281L313.321 15.3266ZM314.801 16.2292C314.658 16.2764 314.435 16.3336 314.128 16.3994C313.82 16.4652 313.62 16.5296 313.526 16.5939C313.382 16.6969 313.31 16.8271 313.31 16.9859C313.31 17.1446 313.368 17.2762 313.483 17.3892C313.599 17.5022 313.745 17.5594 313.924 17.5594C314.123 17.5594 314.314 17.4936 314.495 17.362C314.628 17.2619 314.717 17.1389 314.758 16.9944C314.786 16.9 314.801 16.7184 314.801 16.4523V16.2306V16.2292Z"/><path fill="#241F21" d="M257.885 28.6813V23.668H258.562L261.181 27.6043V23.668H261.814V28.6813H261.137L258.518 24.7422V28.6813H257.885Z"/><path fill="#241F21" d="M265.316 27.5114L265.949 27.5901C265.85 27.962 265.665 28.2495 265.395 28.4554C265.124 28.66 264.78 28.7629 264.36 28.7629C263.833 28.7629 263.413 28.5999 263.104 28.2723C262.794 27.9448 262.641 27.4856 262.641 26.8963C262.641 26.307 262.797 25.8107 263.11 25.4731C263.423 25.1356 263.828 24.9668 264.328 24.9668C264.827 24.9668 265.205 25.1327 265.511 25.4631C265.817 25.7935 265.971 26.2584 265.971 26.8577C265.971 26.8949 265.971 26.9493 265.968 27.0222H263.274C263.296 27.4213 263.409 27.7274 263.611 27.9391C263.813 28.1508 264.065 28.2566 264.366 28.2566C264.591 28.2566 264.781 28.198 264.941 28.0792C265.1 27.9605 265.225 27.7717 265.318 27.5114H265.316ZM263.306 26.5159H265.323C265.296 26.2098 265.22 25.9809 265.092 25.8279C264.897 25.5904 264.643 25.4717 264.333 25.4717C264.052 25.4717 263.816 25.5661 263.624 25.7549C263.432 25.9437 263.326 26.1969 263.306 26.5144V26.5159Z"/><path fill="#241F21" d="M266.311 28.6824L267.631 26.7944L266.41 25.0508H267.175L267.73 25.9018C267.834 26.0635 267.918 26.1994 267.982 26.3095C268.082 26.1593 268.174 26.0263 268.258 25.909L268.867 25.0508H269.598L268.35 26.7601L269.693 28.6824H268.942L268.201 27.5539L268.003 27.2492L267.055 28.6824H266.313H266.311Z"/><path fill="#241F21" d="M271.536 28.1304L271.624 28.674C271.452 28.7097 271.298 28.7283 271.161 28.7283C270.94 28.7283 270.767 28.6926 270.645 28.6225C270.523 28.5524 270.436 28.4594 270.386 28.3435C270.336 28.2291 270.311 27.986 270.311 27.6169V25.5272H269.861V25.048H270.311V24.1483L270.92 23.7793V25.048H271.536V25.5272H270.92V27.6513C270.92 27.8272 270.931 27.9402 270.952 27.9903C270.974 28.0403 271.009 28.0804 271.058 28.1104C271.106 28.1404 271.176 28.1547 271.267 28.1547C271.335 28.1547 271.425 28.1462 271.536 28.1304Z"/><path fill="#241F21" d="M274.547 26.7165V26.1286L276.659 26.1257V27.9866C276.335 28.2469 276.001 28.4415 275.656 28.5731C275.312 28.7046 274.958 28.769 274.595 28.769C274.106 28.769 273.661 28.6632 273.261 28.4529C272.861 28.2426 272.558 27.9365 272.355 27.5375C272.151 27.1384 272.049 26.6921 272.049 26.2001C272.049 25.7081 272.15 25.2575 272.353 24.8341C272.557 24.4107 272.848 24.0975 273.23 23.8915C273.611 23.687 274.049 23.584 274.545 23.584C274.905 23.584 275.232 23.6426 275.523 23.7599C275.814 23.8772 276.042 24.0403 276.208 24.2505C276.373 24.4608 276.5 24.734 276.585 25.0716L275.991 25.236C275.915 24.9814 275.823 24.7798 275.712 24.6339C275.601 24.488 275.441 24.3707 275.235 24.2834C275.029 24.1962 274.8 24.1518 274.548 24.1518C274.247 24.1518 273.986 24.1976 273.766 24.2906C273.545 24.3836 273.369 24.5037 273.234 24.6553C273.099 24.8055 272.993 24.9714 272.919 25.1517C272.793 25.462 272.729 25.7982 272.729 26.16C272.729 26.6063 272.806 26.9811 272.958 27.2814C273.111 27.5818 273.333 27.8064 273.626 27.9523C273.919 28.0982 274.23 28.1711 274.558 28.1711C274.844 28.1711 275.123 28.1153 275.395 28.0052C275.666 27.8951 275.872 27.7763 276.013 27.6519V26.7179H274.547V26.7165Z"/><path fill="#241F21" d="M280.027 27.5114L280.66 27.5901C280.561 27.962 280.376 28.2495 280.105 28.4554C279.835 28.66 279.491 28.7629 279.071 28.7629C278.544 28.7629 278.124 28.5999 277.815 28.2723C277.505 27.9448 277.352 27.4856 277.352 26.8963C277.352 26.307 277.508 25.8107 277.821 25.4731C278.134 25.1356 278.539 24.9668 279.039 24.9668C279.538 24.9668 279.916 25.1327 280.222 25.4631C280.528 25.7935 280.682 26.2584 280.682 26.8577C280.682 26.8949 280.682 26.9493 280.679 27.0222H277.985C278.007 27.4213 278.12 27.7274 278.322 27.9391C278.524 28.1508 278.775 28.2566 279.077 28.2566C279.302 28.2566 279.492 28.198 279.652 28.0792C279.811 27.9605 279.936 27.7717 280.029 27.5114H280.027ZM278.017 26.5159H280.034C280.007 26.2098 279.931 25.9809 279.803 25.8279C279.608 25.5904 279.354 25.4717 279.044 25.4717C278.763 25.4717 278.527 25.5661 278.335 25.7549C278.142 25.9437 278.037 26.1969 278.017 26.5144V26.5159Z"/><path fill="#241F21" d="M281.428 28.68V25.0483H281.978V25.5647C282.244 25.1656 282.627 24.9668 283.128 24.9668C283.345 24.9668 283.546 25.0068 283.728 25.0855C283.91 25.1642 284.047 25.2672 284.138 25.3945C284.229 25.5218 284.291 25.6734 284.328 25.8493C284.351 25.9638 284.362 26.1626 284.362 26.4472V28.68H283.751V26.4701C283.751 26.2198 283.726 26.0324 283.68 25.908C283.633 25.7835 283.547 25.6848 283.426 25.6105C283.305 25.5361 283.163 25.4989 283 25.4989C282.739 25.4989 282.515 25.5818 282.324 25.7492C282.135 25.9151 282.039 26.2312 282.039 26.6961V28.68H281.428Z"/><path fill="#241F21" d="M287.773 27.5114L288.406 27.5901C288.307 27.962 288.122 28.2495 287.852 28.4554C287.581 28.66 287.237 28.7629 286.817 28.7629C286.29 28.7629 285.87 28.5999 285.561 28.2723C285.251 27.9448 285.098 27.4856 285.098 26.8963C285.098 26.307 285.254 25.8107 285.567 25.4731C285.88 25.1356 286.285 24.9668 286.785 24.9668C287.284 24.9668 287.662 25.1327 287.968 25.4631C288.274 25.7935 288.428 26.2584 288.428 26.8577C288.428 26.8949 288.428 26.9493 288.425 27.0222H285.731C285.753 27.4213 285.866 27.7274 286.068 27.9391C286.27 28.1508 286.522 28.2566 286.823 28.2566C287.048 28.2566 287.239 28.198 287.398 28.0792C287.557 27.9605 287.682 27.7717 287.775 27.5114H287.773ZM285.763 26.5159H287.78C287.753 26.2098 287.677 25.9809 287.549 25.8279C287.354 25.5904 287.101 25.4717 286.79 25.4717C286.509 25.4717 286.273 25.5661 286.081 25.7549C285.889 25.9437 285.783 26.1969 285.763 26.5144V26.5159Z"/><path fill="#241F21" d="M289.168 28.68V25.0483H289.718V25.599C289.859 25.3415 289.989 25.1713 290.108 25.0898C290.228 25.0083 290.359 24.9668 290.501 24.9668C290.707 24.9668 290.916 25.0326 291.13 25.1656L290.919 25.7363C290.77 25.6476 290.62 25.6033 290.47 25.6033C290.336 25.6033 290.216 25.6434 290.11 25.7249C290.003 25.8064 289.928 25.918 289.882 26.061C289.814 26.2799 289.78 26.5187 289.78 26.7791V28.68H289.168Z"/><path fill="#241F21" d="M293.852 28.2328C293.626 28.4273 293.407 28.5632 293.198 28.6433C292.988 28.7234 292.762 28.7635 292.522 28.7635C292.125 28.7635 291.821 28.6662 291.607 28.4717C291.394 28.2772 291.287 28.0283 291.287 27.725C291.287 27.5477 291.327 27.3846 291.408 27.2373C291.489 27.09 291.594 26.9727 291.724 26.884C291.855 26.7953 292.001 26.7281 292.165 26.6823C292.284 26.6508 292.466 26.6194 292.71 26.5893C293.203 26.5307 293.567 26.4592 293.801 26.3776C293.803 26.2933 293.804 26.2403 293.804 26.2174C293.804 25.9671 293.745 25.7898 293.63 25.6868C293.473 25.548 293.242 25.478 292.933 25.478C292.644 25.478 292.432 25.528 292.296 25.6296C292.159 25.7311 292.057 25.9099 291.991 26.1688L291.392 26.0873C291.446 25.8298 291.536 25.621 291.661 25.4637C291.786 25.3049 291.966 25.1833 292.202 25.0975C292.438 25.0117 292.711 24.9688 293.021 24.9688C293.331 24.9688 293.58 25.0059 293.772 25.0789C293.964 25.1518 294.106 25.2434 294.198 25.3549C294.289 25.4651 294.351 25.6053 294.388 25.774C294.408 25.8785 294.418 26.0687 294.418 26.3419V27.1629C294.418 27.735 294.431 28.0969 294.456 28.2485C294.482 28.4002 294.535 28.5461 294.611 28.6848H293.971C293.907 28.5575 293.868 28.4073 293.849 28.2371L293.852 28.2328ZM293.801 26.8582C293.579 26.9498 293.244 27.027 292.801 27.0914C292.549 27.1286 292.371 27.1686 292.267 27.2144C292.163 27.2602 292.082 27.326 292.025 27.4147C291.968 27.5019 291.94 27.6006 291.94 27.7064C291.94 27.8709 292.001 28.0068 292.125 28.117C292.249 28.2271 292.429 28.2814 292.667 28.2814C292.904 28.2814 293.112 28.23 293.296 28.1255C293.479 28.0211 293.614 27.8795 293.7 27.6993C293.765 27.5605 293.798 27.3546 293.798 27.0842V26.8582H293.801Z"/><path fill="#241F21" d="M296.706 28.1304L296.794 28.674C296.622 28.7097 296.468 28.7283 296.331 28.7283C296.11 28.7283 295.937 28.6926 295.815 28.6225C295.693 28.5524 295.606 28.4594 295.556 28.3435C295.506 28.2291 295.481 27.986 295.481 27.6169V25.5272H295.031V25.048H295.481V24.1483L296.09 23.7793V25.048H296.706V25.5272H296.09V27.6513C296.09 27.8272 296.101 27.9402 296.122 27.9903C296.144 28.0403 296.179 28.0804 296.228 28.1104C296.276 28.1404 296.346 28.1547 296.437 28.1547C296.505 28.1547 296.595 28.1462 296.706 28.1304Z"/><path fill="#241F21" d="M297.307 24.376V23.668H297.918V24.376H297.307ZM297.307 28.6813V25.0497H297.918V28.6813H297.307Z"/><path fill="#241F21" d="M298.623 26.8649C298.623 26.1926 298.809 25.6948 299.181 25.3702C299.491 25.1012 299.869 24.9668 300.317 24.9668C300.814 24.9668 301.219 25.1299 301.535 25.4574C301.851 25.785 302.007 26.2369 302.007 26.8134C302.007 27.2811 301.937 27.6487 301.798 27.9162C301.659 28.1837 301.455 28.3925 301.189 28.5398C300.923 28.6886 300.632 28.7615 300.317 28.7615C299.812 28.7615 299.403 28.5985 299.091 28.2723C298.78 27.9462 298.623 27.4771 298.623 26.8634V26.8649ZM299.253 26.8649C299.253 27.3297 299.354 27.6787 299.556 27.9105C299.758 28.1422 300.011 28.258 300.319 28.258C300.626 28.258 300.875 28.1422 301.077 27.909C301.279 27.6759 301.38 27.3226 301.38 26.8448C301.38 26.3957 301.279 26.0553 301.075 25.8236C300.872 25.5919 300.62 25.476 300.319 25.476C300.017 25.476 299.758 25.5904 299.556 25.8207C299.354 26.051 299.253 26.3986 299.253 26.8634V26.8649Z"/><path fill="#241F21" d="M302.725 28.68V25.0483H303.275V25.5647C303.541 25.1656 303.924 24.9668 304.424 24.9668C304.642 24.9668 304.843 25.0068 305.025 25.0855C305.207 25.1642 305.343 25.2672 305.434 25.3945C305.525 25.5218 305.588 25.6734 305.625 25.8493C305.648 25.9638 305.659 26.1626 305.659 26.4472V28.68H305.048V26.4701C305.048 26.2198 305.023 26.0324 304.976 25.908C304.929 25.7835 304.844 25.6848 304.723 25.6105C304.602 25.5361 304.46 25.4989 304.296 25.4989C304.036 25.4989 303.811 25.5818 303.621 25.7492C303.432 25.9151 303.336 26.2312 303.336 26.6961V28.68H302.725Z"/><path fill="#241F21" d="M306.691 28.6813V23.668H310.295V24.2601H307.35V25.7963H310.108V26.3842H307.35V28.0906H310.411V28.6828H306.689L306.691 28.6813Z"/><path fill="#241F21" d="M314.595 23.6674H315.255V26.5639C315.255 27.0674 315.198 27.4679 315.085 27.764C314.971 28.0601 314.767 28.3018 314.47 28.4877C314.174 28.6737 313.786 28.7666 313.305 28.7666C312.824 28.7666 312.456 28.6851 312.159 28.5235C311.861 28.3619 311.649 28.1273 311.523 27.8212C311.396 27.5151 311.332 27.096 311.332 26.5639V23.6674H311.992V26.561C311.992 26.9959 312.032 27.3177 312.113 27.5237C312.194 27.7296 312.332 27.8884 312.528 28C312.725 28.1115 312.964 28.1673 313.248 28.1673C313.733 28.1673 314.079 28.0572 314.285 27.8355C314.491 27.6138 314.595 27.189 314.595 26.5596V23.666V23.6674Z"/><path fill="#241F21" d="M49.0154 10.6355C49.0055 14.2986 46.0012 16.4928 42.8191 16.4842L40.1676 16.477L40.1548 21.2072L36.2344 21.1958L36.2813 4.73242L42.8532 4.75102C46.0353 4.7596 49.0268 6.97092 49.0169 10.6355M45.0951 10.624C45.0993 9.27951 44.132 8.46421 42.8418 8.46135L40.1903 8.4542L40.1775 12.7667L42.829 12.7739C44.1207 12.7781 45.0908 11.9686 45.0951 10.624Z"/><path fill="#241F21" d="M56.2417 16.5238L54.3043 16.5181L54.2915 21.2482L50.3711 21.2368L50.418 4.77344L56.9899 4.79203C60.172 4.80061 63.1635 7.01194 63.1536 10.6765C63.1465 13.018 61.9203 14.7773 60.1877 15.7228L63.3541 21.274L58.9501 21.2611L56.2431 16.5238H56.2417ZM54.3142 12.8077L56.9658 12.8149C58.2574 12.8192 59.2275 12.0096 59.2318 10.6651C59.236 9.32052 58.2688 8.50522 56.9786 8.50236L54.327 8.49521L54.3142 12.8077Z"/><path fill="#241F21" d="M71.0679 16.5648L69.1304 16.5591L69.1176 21.2892L65.1973 21.2778L65.2442 4.81445L71.8161 4.83305C74.9982 4.84163 77.9897 7.05295 77.9798 10.7175C77.9726 13.059 76.7465 14.8183 75.0139 15.7638L78.1803 21.315L73.7763 21.3021L71.0679 16.5648ZM69.1418 12.8502L71.7933 12.8573C73.085 12.8616 74.0551 12.052 74.0594 10.7075C74.0636 9.36297 73.0963 8.54767 71.8061 8.54481L69.1546 8.53766L69.1418 12.8502Z"/><path fill="#241F21" d="M38.8275 24.4105C38.8261 25.0598 38.3211 25.4217 37.7464 25.4203H37.1888L37.1859 26.3643H36.6738L36.6824 23.3906L37.7521 23.3935C38.3268 23.3949 38.8289 23.7611 38.8275 24.409M38.3154 24.409C38.3154 24.0615 38.075 23.8812 37.7507 23.8798H37.193L37.1902 24.9325H37.7478C38.0721 24.9354 38.314 24.7552 38.3154 24.4076"/><path fill="#241F21" d="M39.4579 23.2315L39.4492 26.3711L39.9613 26.3725L39.97 23.2329L39.4579 23.2315Z"/><path fill="#241F21" d="M41.7847 24.2188C42.1475 24.2188 42.4291 24.4133 42.5372 24.6564L42.5671 24.2631H43.0536L43.0479 26.3829H42.5614L42.5329 25.9881C42.4234 26.2298 42.1403 26.4229 41.7776 26.4215C41.1745 26.4201 40.7335 25.9237 40.7363 25.3173C40.7378 24.7108 41.1802 24.2173 41.7847 24.2188ZM41.8672 25.9352C42.2257 25.9352 42.4803 25.6563 42.4803 25.3216C42.4803 24.9869 42.2285 24.7051 41.8701 24.7051C41.5116 24.7051 41.2484 24.984 41.2484 25.3187C41.2484 25.6534 41.5045 25.9352 41.8672 25.9352Z"/><path fill="#241F21" d="M45.973 25.1377L45.9701 26.3893H45.458L45.4609 25.3751C45.4609 24.8817 45.2831 24.7129 45 24.7129C44.6415 24.7129 44.4281 24.9832 44.4153 25.3265L44.4125 26.385H43.9004L43.9061 24.2652H44.3883L44.4125 24.5799C44.6173 24.3753 44.8833 24.2251 45.2005 24.2266C45.7084 24.228 45.9744 24.5598 45.973 25.1377Z"/><path fill="#241F21" d="M46.7012 25.3334C46.7026 24.727 47.1749 24.2335 47.8363 24.2363C48.4935 24.2378 48.9587 24.7341 48.9572 25.3406C48.9558 25.947 48.4878 26.4405 47.8306 26.4377C47.1692 26.4362 46.6998 25.9399 46.7012 25.3334ZM48.4451 25.3391C48.4451 25.0044 48.1934 24.7227 47.8349 24.7227C47.4722 24.7227 47.2133 25.0016 47.2133 25.3363C47.2133 25.671 47.4693 25.9528 47.8321 25.9528C48.1905 25.9528 48.4451 25.6738 48.4451 25.3391Z"/><path fill="#241F21" d="M52.5001 24.2484C52.8628 24.2484 53.1445 24.4429 53.2526 24.6861L53.2569 23.2715H53.7732L53.7647 26.4125H53.2782L53.2497 26.0178C53.1402 26.2595 52.8571 26.4526 52.4944 26.4512C51.8913 26.4497 51.4503 25.9534 51.4531 25.3469C51.456 24.7405 51.897 24.247 52.5015 24.2484M52.5826 25.9648C52.9411 25.9648 53.1957 25.6859 53.1957 25.3512C53.1957 25.0165 52.9439 24.7347 52.5854 24.7347C52.227 24.7347 51.9638 25.0137 51.9638 25.3484C51.9638 25.6831 52.2199 25.9648 52.5826 25.9648Z"/><path fill="#241F21" d="M56.6848 25.5208L55.0902 25.5165C55.1016 25.7768 55.2965 26.0028 55.6678 26.0043C55.9338 26.0043 56.1059 25.8627 56.1884 25.7168L56.6379 25.7683C56.5753 26.0572 56.2453 26.462 55.6621 26.4606C55.012 26.4591 54.5767 25.9628 54.5781 25.3435C54.5796 24.7527 54.9978 24.2564 55.635 24.2578C56.2851 24.2592 56.6863 24.7799 56.6848 25.3864V25.5208ZM55.0916 25.1604L56.1742 25.1632C56.1585 24.9287 55.9551 24.7141 55.6336 24.7141C55.3221 24.7141 55.1045 24.9172 55.0916 25.1604Z"/><path fill="#241F21" d="M60.141 25.4976H59.6204L59.6176 26.4288H59.1055L59.114 23.4551L60.225 23.4579C60.7612 23.4594 61.2605 23.8456 61.2591 24.4821C61.2591 24.9341 61.0031 25.2602 60.6617 25.4061L61.2833 26.4331H60.7043L60.141 25.4962V25.4976ZM59.6218 25.0099H60.2207C60.508 25.0127 60.7456 24.8125 60.747 24.4821C60.747 24.1474 60.5109 23.9457 60.2235 23.9443H59.6247L59.6218 25.0099Z"/><path fill="#241F21" d="M63.9778 25.5423L62.3832 25.538C62.3946 25.7983 62.5895 26.0243 62.9607 26.0258C63.2267 26.0258 63.3989 25.8842 63.4814 25.7383L63.9309 25.7898C63.8683 26.0787 63.5383 26.4835 62.955 26.482C62.305 26.4806 61.8697 25.9843 61.8711 25.3649C61.8725 24.7742 62.2907 24.2779 62.928 24.2793C63.5781 24.2807 63.9792 24.8014 63.9778 25.4078V25.5423ZM62.3846 25.1819L63.4671 25.1847C63.4515 24.9501 63.2481 24.7356 62.9266 24.7356C62.6051 24.7356 62.3974 24.9387 62.3846 25.1819Z"/><path fill="#241F21" d="M65.8456 24.7729C65.5341 24.7729 65.2211 25.0175 65.2197 25.3865C65.2197 25.7541 65.5298 26.003 65.8428 26.003C66.0376 26.003 66.214 25.9372 66.3805 25.7784V26.2719C66.2368 26.3964 66.0291 26.4879 65.7574 26.4879C65.1329 26.4865 64.6763 25.983 64.6777 25.3837C64.6792 24.7886 65.1386 24.2837 65.7631 24.2852C66.0334 24.2852 66.2411 24.3781 66.3833 24.5054V24.9946C66.2155 24.8344 66.0405 24.7715 65.8456 24.7715"/><path fill="#241F21" d="M69.24 24.3392L69.2343 26.4575H68.7507L68.7265 26.1414C68.5217 26.346 68.2599 26.4962 67.9384 26.4947C67.4306 26.4933 67.1646 26.1615 67.166 25.5836L67.1689 24.332H67.681L67.6781 25.3461C67.6781 25.8396 67.8559 26.0084 68.139 26.0084C68.5046 26.0084 68.7222 25.7209 68.7236 25.3662L68.7265 24.3363H69.2386L69.24 24.3392Z"/><path fill="#241F21" d="M70.0906 24.3414H70.5742L70.6027 24.7361C70.715 24.493 70.9953 24.3013 71.358 24.3027C71.9611 24.3042 72.4064 24.7991 72.4035 25.407C72.4021 26.0134 71.9555 26.5069 71.3509 26.5055C70.9882 26.5055 70.7108 26.311 70.5984 26.0678L70.5941 27.4238H70.082L70.0906 24.3414ZM71.2684 26.0177C71.6269 26.0177 71.8858 25.7388 71.8858 25.4041C71.8858 25.0694 71.6297 24.7876 71.2712 24.7876C70.9085 24.7876 70.6581 25.0666 70.6581 25.4013C70.6581 25.736 70.9057 26.0177 71.2684 26.0177Z"/><path fill="#241F21" d="M75.1673 25.5736L73.5726 25.5693C73.584 25.8296 73.7789 26.0556 74.1502 26.057C74.4162 26.057 74.5883 25.9154 74.6708 25.7695L75.1203 25.821C75.0577 26.1099 74.7277 26.5147 74.1445 26.5133C73.4944 26.5119 73.0591 26.0155 73.0606 25.3962C73.062 24.7768 73.4802 24.3091 74.1175 24.3106C74.7675 24.312 75.1687 24.8326 75.1673 25.4391V25.5736ZM73.5741 25.2131L74.6566 25.216C74.6409 24.9814 74.4375 24.7668 74.116 24.7668C73.8045 24.7668 73.5869 24.9699 73.5741 25.2131Z"/><path fill="#241F21" d="M77.1481 24.4113L77.0712 24.859C77.03 24.8333 76.9461 24.8047 76.8636 24.8047C76.589 24.8047 76.4382 25.0879 76.4368 25.5356L76.434 26.4768H75.9219L75.9276 24.357H76.4112L76.4311 24.5887C76.5648 24.4256 76.7199 24.3169 76.8934 24.3184C77.0143 24.3184 77.1011 24.3656 77.1466 24.4113"/><path fill="#241F21" d="M78.7027 24.3242C79.0654 24.3242 79.3471 24.5187 79.4552 24.7619L79.4851 24.3686H79.9716L79.9659 26.4883H79.4794L79.4509 26.0936C79.3414 26.3353 79.0583 26.5284 78.6956 26.527C78.0924 26.5255 77.6515 26.0292 77.6543 25.4227C77.6572 24.8163 78.0981 24.3228 78.7027 24.3242ZM78.7852 26.0421C79.1437 26.0421 79.3983 25.7632 79.3983 25.4285C79.3983 25.0937 79.1465 24.812 78.788 24.812C78.4253 24.812 78.1664 25.0909 78.1664 25.4256C78.1664 25.7603 78.4225 26.0421 78.7852 26.0421Z"/><path fill="#241F21" d="M81.2217 25.432C81.2217 25.7996 81.5318 26.0485 81.8447 26.0485C82.0396 26.0485 82.216 25.9827 82.3824 25.8239V26.3174C82.2601 26.4261 82.0936 26.5047 81.876 26.5291L81.775 26.7007C82.0325 26.7007 82.1989 26.7937 82.1989 26.9996C82.1989 27.4059 81.5104 27.3787 81.3027 27.3787L81.3952 27.1441C81.6783 27.1441 81.9158 27.137 81.9158 27.0068C81.9158 26.9067 81.8035 26.8852 81.6669 26.8852L81.3796 26.8967L81.5346 26.5119C81.031 26.4061 80.6783 25.9526 80.6797 25.4291C80.6811 24.8341 81.1406 24.3292 81.7651 24.332C82.0353 24.332 82.243 24.425 82.3853 24.5509V25.0401C82.2174 24.8799 82.0424 24.8169 81.8476 24.8169C81.5346 24.8169 81.2231 25.0615 81.2217 25.4306"/><path fill="#241F21" d="M84.1304 24.3387C84.4932 24.3387 84.7748 24.5332 84.8829 24.7764L84.9128 24.383H85.3993L85.3936 26.5028H84.9071L84.8786 26.108C84.7691 26.3497 84.486 26.5428 84.1233 26.5414C83.5202 26.54 83.0792 26.0436 83.082 25.4372C83.0849 24.8307 83.5259 24.3372 84.1304 24.3387ZM83.8289 23.2788C84.1446 23.2788 84.2741 23.5649 84.523 23.5649C84.6639 23.5649 84.7478 23.4948 84.7478 23.3431L85.1717 23.4275C85.1418 23.7208 84.9953 23.9754 84.6368 23.9739C84.321 23.9739 84.1916 23.6922 83.9426 23.6907C83.8047 23.6907 83.7222 23.778 83.7207 23.9124L83.2926 23.8237C83.3224 23.5348 83.469 23.2759 83.8274 23.2773M84.2129 26.0551C84.5714 26.0551 84.826 25.7762 84.826 25.4415C84.826 25.1068 84.5742 24.825 84.2158 24.825C83.853 24.825 83.5941 25.1039 83.5941 25.4386C83.5941 25.7733 83.8502 26.0551 84.2129 26.0551Z"/><path fill="#241F21" d="M86.1094 25.4447C86.1108 24.8383 86.5831 24.3448 87.2445 24.3477C87.9017 24.3491 88.3669 24.8454 88.3654 25.4519C88.364 26.0584 87.896 26.5518 87.2388 26.549C86.5774 26.5475 86.108 26.0512 86.1094 25.4447ZM87.8534 25.449C87.8534 25.1143 87.6016 24.8326 87.2431 24.8326C86.8846 24.8326 86.6215 25.1115 86.6215 25.4462C86.6215 25.7809 86.8775 26.0627 87.2403 26.0627C87.5987 26.0627 87.8534 25.7837 87.8534 25.449Z"/><path fill="#241F21" d="M38.8391 30.3704L37.2445 30.3661C37.2559 30.6265 37.4508 30.8525 37.8221 30.8539C38.0881 30.8539 38.2602 30.7123 38.3427 30.5664L38.7922 30.6179C38.7296 30.9068 38.3996 31.3116 37.8164 31.3102C37.1663 31.3087 36.731 30.8124 36.7324 30.1931C36.7338 29.5737 37.1521 29.106 37.7893 29.1074C38.4394 29.1089 38.8406 29.6295 38.8391 30.236V30.3704ZM37.2459 30.0114L38.3285 30.0143C38.3128 29.7797 38.1094 29.5651 37.7879 29.5651C37.4764 29.5651 37.2587 29.7682 37.2459 30.0114Z"/><path fill="#241F21" d="M42.2953 30.3492H41.7747L41.7719 31.2803H41.2598L41.2683 28.3066L42.3793 28.3095C42.9155 28.3109 43.4148 28.6971 43.4134 29.3336C43.4134 29.7856 43.1574 30.1117 42.816 30.2576L43.4376 31.2846H42.8586L42.2953 30.3478V30.3492ZM41.7761 29.8614H42.375C42.6623 29.8643 42.8999 29.664 42.9013 29.3336C42.9027 29.0032 42.6652 28.7973 42.3778 28.7958H41.779L41.7761 29.8614Z"/><path fill="#241F21" d="M46.1341 30.3919L44.5394 30.3876C44.5508 30.6479 44.7457 30.8739 45.117 30.8754C45.383 30.8754 45.5551 30.7338 45.6376 30.5879L46.0871 30.6394C46.0245 30.9283 45.6945 31.3331 45.1113 31.3317C44.4612 31.3302 44.0259 30.8339 44.0273 30.2145C44.0288 29.6238 44.447 29.1275 45.0843 29.1289C45.7215 29.1303 46.1355 29.651 46.1341 30.2575V30.3919ZM44.5409 30.0315L45.6234 30.0343C45.6077 29.7997 45.4043 29.5852 45.0828 29.5852C44.7713 29.5852 44.5537 29.7883 44.5409 30.0315Z"/><path fill="#241F21" d="M47.2914 30.6563C47.3198 30.8065 47.482 30.908 47.7324 30.9095C47.9073 30.9095 48.0652 30.8479 48.0652 30.7178C48.0652 30.5504 47.8988 30.5161 47.4749 30.3774C47.1164 30.2672 46.8476 30.0913 46.8476 29.748C46.8476 29.3675 47.2288 29.1372 47.6271 29.1387C48.1477 29.1401 48.4593 29.4348 48.4706 29.7895H47.9585C47.9472 29.6336 47.7807 29.5649 47.6427 29.5649C47.5133 29.5649 47.3597 29.6264 47.3597 29.748C47.3597 29.8825 47.509 29.9111 47.9543 30.0684C48.4194 30.2286 48.5816 30.4589 48.5816 30.7321C48.5816 31.1254 48.1975 31.3414 47.7181 31.3414C47.1847 31.34 46.8077 31.1126 46.7793 30.6563H47.2914Z"/><path fill="#241F21" d="M49.3145 28.6226C49.3145 28.4767 49.4311 28.3594 49.5776 28.3594C49.7227 28.3594 49.8394 28.4767 49.8394 28.624C49.8394 28.7713 49.7227 28.8872 49.5762 28.8872C49.4311 28.8872 49.3145 28.7699 49.3145 28.6226ZM49.828 31.303H49.3159L49.3216 29.1833H49.8337L49.828 31.303Z"/><path fill="#241F21" d="M50.7118 28.1631L50.7031 31.3027L51.2152 31.3042L51.2239 28.1646L50.7118 28.1631Z"/><path fill="#241F21" d="M52.0488 28.6304C52.0488 28.4845 52.1655 28.3672 52.312 28.3672C52.4585 28.3672 52.5737 28.4845 52.5737 28.6318C52.5737 28.7791 52.4571 28.895 52.3106 28.895C52.164 28.895 52.0488 28.7777 52.0488 28.6304ZM52.5609 31.3109H52.0488L52.0545 29.1911H52.5666L52.5609 31.3109Z"/><path fill="#241F21" d="M55.4622 30.4198L53.8676 30.4155C53.8789 30.6758 54.0738 30.9018 54.4451 30.9032C54.7111 30.9032 54.8832 30.7616 54.9657 30.6157L55.4152 30.6672C55.3526 30.9562 55.0226 31.3609 54.4394 31.3595C53.7893 31.3581 53.354 30.8618 53.3555 30.2424C53.3569 29.6517 53.7751 29.1553 54.4124 29.1568C55.0625 29.1582 55.4636 29.6789 55.4622 30.2853V30.4198ZM54.1848 28.7663H53.7267L54.2275 28.1055H54.6144L55.108 28.7692H54.6542L54.4223 28.3901L54.1834 28.7663H54.1848ZM53.869 30.0593L54.9515 30.0622C54.9359 29.8276 54.7324 29.6131 54.411 29.6131C54.0895 29.6131 53.8818 29.8162 53.869 30.0593Z"/><path fill="#241F21" d="M58.2913 30.0752L58.2885 31.3268H57.7764L57.7792 30.3126C57.7792 29.8192 57.6014 29.6504 57.3183 29.6504C56.9599 29.6504 56.7465 29.9207 56.7337 30.264L56.7308 31.3225H56.2188L56.2244 29.2027H56.7067L56.7308 29.5174C56.9357 29.3128 57.2017 29.1626 57.5189 29.1641C58.0267 29.1655 58.2927 29.4973 58.2913 30.0752Z"/><path fill="#241F21" d="M60.1854 29.6577C59.8739 29.6577 59.561 29.9023 59.5595 30.2713C59.5595 30.6389 59.8697 30.8878 60.1826 30.8878C60.3775 30.8878 60.5539 30.822 60.7203 30.6632V31.1567C60.5766 31.2811 60.3689 31.3727 60.0973 31.3727C59.4728 31.3712 59.0162 30.8678 59.0176 30.2684C59.019 29.6734 59.4785 29.1685 60.1029 29.1699C60.3732 29.1699 60.5809 29.2629 60.7231 29.3902V29.8794C60.5553 29.7192 60.3803 29.6562 60.1854 29.6562"/><path fill="#241F21" d="M61.4805 28.6558C61.4805 28.5099 61.5971 28.3926 61.7436 28.3926C61.8887 28.3926 62.0054 28.5099 62.0054 28.6572C62.0054 28.8045 61.8887 28.9204 61.7422 28.9204C61.5957 28.9204 61.4805 28.8031 61.4805 28.6558ZM61.9926 31.3362H61.4805L61.4862 29.2165H61.9983L61.9926 31.3362Z"/><path fill="#241F21" d="M63.8355 29.1816C64.1982 29.1816 64.4799 29.3762 64.588 29.6193L64.6179 29.226H65.1044L65.0987 31.3458H64.6122L64.5837 30.951C64.4742 31.1927 64.1911 31.3858 63.8284 31.3844C63.2253 31.383 62.7843 30.8866 62.7871 30.2802C62.79 29.6737 63.2309 29.1802 63.8355 29.1816ZM63.918 30.8995C64.2765 30.8995 64.5311 30.6206 64.5311 30.2859C64.5311 29.9512 64.2793 29.6694 63.9208 29.6694C63.5581 29.6694 63.2992 29.9483 63.2992 30.283C63.2992 30.6177 63.5553 30.8995 63.918 30.8995Z"/><path fill="#241F21" d="M7.91425 11.3609C8.57855 10.1194 11.0836 6.31607 16.9243 5.89698C16.2173 5.219 15.3496 4.82851 14.1632 4.82422C13.7066 4.82422 13.1974 4.83423 12.6483 4.91576C12.0864 4.99872 11.5416 5.17179 11.0281 5.41352C10.7336 5.55227 10.4363 5.70388 10.139 5.87124C10.139 5.87124 10.1404 5.86981 10.1419 5.86838C10.0551 5.92559 9.96832 5.98423 9.88155 6.04145C7.81467 7.69064 7.53871 9.49432 7.91709 11.3595L7.91425 11.3609Z"/><path fill="#241F21" d="M8.15996 10.242C8.10164 8.68148 8.72896 7.44994 10.1173 6.34285L10.2994 6.2227C10.6123 6.04391 10.9025 5.89658 11.1884 5.7607C11.6863 5.52612 12.1956 5.37021 12.702 5.29441C13.2397 5.21574 13.7404 5.20572 14.1614 5.20715C14.8314 5.20858 15.4019 5.34161 15.9097 5.61766C11.6095 6.23558 9.24532 8.69721 8.15996 10.242Z"/><path fill="#241F21" d="M30.9737 20.7376C30.8343 19.6835 30.4801 18.688 29.9196 17.8297C29.7774 17.6109 29.611 17.3963 29.4289 17.1961C28.4004 16.0532 26.8485 15.3509 25.4786 14.7302C25.1472 14.5814 24.8229 14.4327 24.5142 14.2839C22.9182 13.5144 21.3278 12.5432 20.4928 10.6751C20.3221 10.2932 20.1585 9.91847 19.9992 9.54801C19.4686 8.32649 18.9722 7.18221 18.3676 6.22531C17.8982 5.48009 17.2012 4.57039 16.0859 4.04974C16.4444 4.02543 16.7602 4.01828 17.0234 4.01971C17.672 4.02114 18.1087 4.0712 18.2353 4.08979C18.2552 4.09551 18.2766 4.0998 18.2965 4.10124C25.6579 4.79066 31.1928 10.924 31.1714 18.3661C31.1686 19.1686 31.1017 19.9595 30.9709 20.7362L30.9737 20.7376Z"/><path fill="#241F21" d="M9.97825 30.7841C5.5472 28.2881 2.73778 23.5723 2.75201 18.2857C2.76054 15.1933 3.73495 12.2539 5.57138 9.78369C5.98106 9.23301 6.43056 8.71093 6.91563 8.22461C6.72217 8.86541 6.63967 9.53481 6.68377 10.1871C6.78619 11.6818 7.38648 13.1936 7.91706 14.5282L8.16885 15.169C8.50455 16.0343 8.87582 17.0413 9.04652 18.054C9.18735 18.8965 9.15178 19.7776 9.10627 20.4527C9.05648 21.1607 8.97255 21.8802 8.89147 22.5782L8.81608 23.2319C8.57425 25.3874 8.4064 27.6502 9.21722 29.5454C9.33386 29.8186 9.56715 30.2749 9.97683 30.7855L9.97825 30.7841Z"/><path fill="#241F21" d="M25.0914 29.7392C24.0231 29.7363 23.0302 29.0669 22.0587 27.6924C21.4612 26.8484 20.9477 25.9144 20.4484 25.0104C20.3204 24.7773 20.1924 24.5456 20.0629 24.3153C19.2194 22.8106 17.9434 20.5349 16.225 19.8884C15.7755 19.7196 15.2321 19.6323 14.6091 19.6309C13.2549 19.6266 11.794 20.0014 10.4127 20.3833C10.2719 20.4219 10.1325 20.4619 9.99169 20.502C9.94332 21.2129 9.85655 21.9595 9.77262 22.6833C9.44972 25.4667 9.11544 28.3446 10.7172 30.3342C11.8665 31.7603 14.0927 32.7143 17.107 33.0004C20.8367 32.9646 24.2336 31.52 26.7956 29.1699C26.2209 29.5489 25.6504 29.7406 25.09 29.7392H25.0914Z"/><path fill="#241F21" d="M17.1257 32.6151C14.2765 32.3405 12.1072 31.4451 11.0161 30.0919C9.5154 28.2282 9.83973 25.4319 10.1541 22.7285C10.2281 22.0877 10.3049 21.4326 10.3561 20.8004L10.4727 20.7661C11.8753 20.3784 13.3106 20.0108 14.6122 20.0137C15.1869 20.0151 15.6862 20.0938 16.0958 20.2468C17.6848 20.8476 18.9181 23.0475 19.7331 24.5021L20.1172 25.1944C20.6236 26.1141 21.1428 27.0553 21.7502 27.9135C22.7687 29.3539 23.8299 30.0776 24.9907 30.1206C22.6848 31.7097 19.955 32.5836 17.1271 32.6151H17.1257Z"/><path fill="#241F21" d="M25.1721 28.9295C24.027 28.9267 23.0697 27.7595 22.0156 25.9744C25.2561 24.288 27.4438 21.1069 27.872 17.4824C28.2931 17.81 28.616 18.1518 28.8663 18.5337C30.5207 21.0669 30.1281 24.3638 27.8151 27.3518L27.6074 27.6122C26.7013 28.4618 25.8478 28.9324 25.1721 28.931V28.9295Z"/><path fill="#241F21" d="M131.624 13.0269L129.395 9.43104H129.187V12.0529C129.489 12.0772 129.77 12.1272 130.032 12.2002V13.0255H126.799V12.2131C126.962 12.1716 127.133 12.1387 127.314 12.1144C127.493 12.0901 127.677 12.0686 127.864 12.0529V5.68924C127.677 5.67351 127.493 5.65205 127.314 5.62773C127.135 5.60342 126.962 5.57052 126.799 5.52904V4.7166H127.753C127.834 4.7166 127.952 4.71517 128.109 4.71088C128.264 4.70659 128.446 4.70087 128.654 4.69228C128.861 4.6837 129.086 4.67798 129.327 4.67369C129.567 4.6694 129.815 4.66797 130.068 4.66797C130.492 4.66797 130.881 4.70945 131.237 4.79098C131.593 4.87251 131.898 5.00267 132.156 5.1786C132.413 5.35454 132.611 5.58768 132.751 5.87375C132.888 6.16126 132.958 6.51026 132.958 6.92077C132.958 7.23259 132.906 7.51866 132.799 7.77612C132.692 8.03502 132.541 8.26101 132.347 8.45268C132.15 8.64578 131.92 8.80597 131.655 8.93328C131.389 9.06058 131.098 9.14926 130.779 9.19789C130.867 9.30517 130.952 9.41817 131.032 9.53688C131.113 9.6556 131.189 9.77289 131.261 9.88732L132.689 12.0414C132.82 12.0586 132.958 12.0786 133.106 12.1029C133.253 12.1272 133.408 12.1573 133.571 12.1888V13.0255H131.624V13.0269ZM131.136 6.07114C130.86 5.8666 130.442 5.76362 129.881 5.76362C129.752 5.76362 129.628 5.76648 129.51 5.76934C129.392 5.77363 129.285 5.77935 129.187 5.78793V8.42264C129.253 8.43122 129.339 8.43694 129.449 8.44123C129.558 8.44553 129.686 8.44696 129.833 8.44696C130.369 8.44696 130.789 8.32252 131.093 8.07077C131.398 7.82046 131.55 7.48576 131.55 7.06667C131.55 6.60752 131.412 6.27425 131.136 6.06971V6.07114Z"/><path fill="#241F21" d="M134.135 13.0266V12.2127C134.298 12.1713 134.469 12.1384 134.65 12.1141C134.829 12.0897 135.012 12.0683 135.2 12.0525V5.67604C135.012 5.66031 134.829 5.64028 134.65 5.61453C134.47 5.59022 134.298 5.55732 134.135 5.51727V4.71484H139.609V6.69731H138.641C138.609 6.52424 138.58 6.35832 138.556 6.19812C138.532 6.03792 138.51 5.89202 138.495 5.76043H136.523V8.26068H138.102C138.118 8.12194 138.139 7.98749 138.163 7.86019C138.187 7.73289 138.22 7.61274 138.261 7.49688H139.094V10.0086H138.261C138.22 9.89415 138.187 9.76827 138.163 9.63239C138.139 9.49651 138.118 9.36778 138.102 9.24477H136.523V11.941H138.508C138.523 11.7937 138.544 11.6377 138.569 11.4733C138.593 11.3088 138.626 11.1371 138.667 10.9555H139.634V13.0238H134.136L134.135 13.0266Z"/><path fill="#241F21" d="M146.642 8.28676C146.491 8.63147 146.275 8.92898 145.993 9.1793C145.711 9.42961 145.373 9.627 144.977 9.77003C144.582 9.91307 144.142 9.98601 143.662 9.98601H143.367C143.26 9.98601 143.155 9.97743 143.049 9.9617V12.0543C143.236 12.0715 143.42 12.0915 143.599 12.1158C143.778 12.1401 143.95 12.173 144.114 12.2145V13.0269H140.66V12.2145C140.824 12.173 140.994 12.1401 141.175 12.1158C141.354 12.0915 141.538 12.07 141.726 12.0543V5.68924C141.538 5.67351 141.354 5.65205 141.175 5.62773C140.996 5.60342 140.824 5.57052 140.66 5.52904V4.7166H141.59C141.689 4.7166 141.821 4.71517 141.989 4.71088C142.157 4.70659 142.342 4.70087 142.546 4.69228C142.75 4.6837 142.963 4.67798 143.184 4.67369C143.404 4.6694 143.62 4.66797 143.832 4.66797C144.82 4.66797 145.573 4.8911 146.091 5.3388C146.609 5.7865 146.869 6.39583 146.869 7.16679C146.869 7.56872 146.794 7.94204 146.643 8.28676H146.642ZM145.063 6.16269C144.781 5.89664 144.339 5.76219 143.734 5.76219H143.379C143.272 5.76219 143.162 5.77077 143.049 5.7865V8.82743C143.147 8.84459 143.245 8.85604 143.343 8.86462C143.441 8.8732 143.539 8.87749 143.637 8.87749C144.201 8.86891 144.65 8.72301 144.985 8.4398C145.319 8.1566 145.487 7.76897 145.487 7.2755C145.487 6.78203 145.346 6.4273 145.064 6.16126L145.063 6.16269Z"/><path fill="#241F21" d="M154.694 5.68838V9.8507C154.694 10.9678 154.411 11.796 153.843 12.3381C153.276 12.8802 152.445 13.1505 151.351 13.1505C150.698 13.1505 150.167 13.069 149.759 12.9045C149.351 12.74 149.032 12.5212 148.803 12.2451C148.574 11.9705 148.418 11.6558 148.332 11.3025C148.247 10.9492 148.204 10.5802 148.204 10.194V5.68695C148.065 5.67122 147.927 5.64976 147.788 5.62545C147.648 5.60113 147.519 5.57252 147.396 5.53963V4.71431H150.458V5.53963C150.311 5.58111 150.158 5.61114 149.998 5.6326C149.839 5.65262 149.682 5.67122 149.527 5.68838V10.0967C149.527 10.3756 149.554 10.6345 149.607 10.872C149.66 11.1108 149.756 11.3154 149.894 11.487C150.032 11.6587 150.227 11.7946 150.476 11.8932C150.725 11.9919 151.041 12.0406 151.425 12.0406C151.759 12.0406 152.049 12.0034 152.294 11.9304C152.539 11.8561 152.741 11.7359 152.9 11.5671C153.059 11.3983 153.177 11.1795 153.256 10.9077C153.333 10.6374 153.372 10.3084 153.372 9.92222V5.68695C153.217 5.67122 153.058 5.65262 152.894 5.63117C152.731 5.61114 152.58 5.57968 152.442 5.5382V4.71288H155.503V5.5382C155.242 5.60399 154.973 5.65405 154.695 5.68552L154.694 5.68838ZM151.241 4.12501L150.752 3.37407L152.675 2.01953L153.263 2.91779L151.243 4.12501H151.241Z"/><path fill="#241F21" d="M162.731 11.3723C162.628 11.6727 162.455 11.9473 162.21 12.1976C161.966 12.4479 161.636 12.6553 161.219 12.8198C160.802 12.9843 160.276 13.0658 159.64 13.0658C159.387 13.0658 159.065 13.0601 158.673 13.0472C158.281 13.0344 157.856 13.0286 157.399 13.0286H156.334V12.2162C156.498 12.1747 156.668 12.1418 156.849 12.1175C157.028 12.0932 157.212 12.0717 157.399 12.056V5.68952C157.212 5.67378 157.028 5.65233 156.849 5.62801C156.67 5.60369 156.498 5.5708 156.334 5.52932V4.71688H157.362C157.673 4.71688 158.062 4.71116 158.532 4.69828C159.001 4.68541 159.485 4.67969 159.983 4.67969C160.889 4.67969 161.57 4.85562 162.028 5.20892C162.485 5.56221 162.714 6.05855 162.714 6.69934C162.714 7.12559 162.586 7.51178 162.328 7.8565C162.071 8.20121 161.731 8.44723 161.306 8.59599V8.6203C161.574 8.66894 161.809 8.75619 162.01 8.8792C162.209 9.00221 162.372 9.14953 162.499 9.32261C162.626 9.49568 162.721 9.68449 162.786 9.88903C162.852 10.095 162.885 10.3038 162.885 10.517C162.885 10.7873 162.833 11.0734 162.731 11.3723ZM161.243 6.44045C161.195 6.30028 161.108 6.18013 160.986 6.07714C160.863 5.97416 160.702 5.89406 160.502 5.83684C160.301 5.77963 160.055 5.75102 159.761 5.75102C159.573 5.75102 159.394 5.75245 159.222 5.75674C159.05 5.76103 158.883 5.76675 158.719 5.77534V8.2384C158.825 8.24698 158.936 8.25127 159.05 8.25127H159.429C160.05 8.25127 160.519 8.13256 160.838 7.89369C161.156 7.65625 161.316 7.32727 161.316 6.90817C161.316 6.73653 161.291 6.58062 161.242 6.44045H161.243ZM161.323 9.93766C161.22 9.77317 161.082 9.64015 160.906 9.53716C160.731 9.43417 160.52 9.36123 160.276 9.31546C160.031 9.26968 159.762 9.24823 159.468 9.24823H159.112C159.038 9.24823 158.967 9.24966 158.897 9.25395C158.828 9.25824 158.769 9.25967 158.719 9.25967V11.9073C158.949 11.9487 159.27 11.9688 159.687 11.9688C160.3 11.9688 160.751 11.8357 161.04 11.5683C161.33 11.3022 161.475 10.9589 161.475 10.5398C161.475 10.3024 161.424 10.1007 161.321 9.93623L161.323 9.93766Z"/><path fill="#241F21" d="M163.854 13.0271V12.2147C164.017 12.1732 164.188 12.1403 164.367 12.116C164.546 12.0917 164.73 12.0702 164.918 12.0545V5.68944C164.73 5.6737 164.546 5.65225 164.367 5.62793C164.188 5.60361 164.016 5.57072 163.854 5.52924V4.7168H167.307V5.52924C167.144 5.57072 166.973 5.60361 166.792 5.62793C166.613 5.65225 166.43 5.6737 166.242 5.68944V11.92H168.115C168.157 11.5996 168.213 11.2421 168.286 10.8487H169.242V13.0286H163.854V13.0271Z"/><path fill="#241F21" d="M169.717 13.0271V12.2147C169.88 12.1732 170.051 12.1403 170.23 12.116C170.41 12.0917 170.593 12.0702 170.781 12.0545V5.68944C170.593 5.6737 170.41 5.65225 170.23 5.62793C170.051 5.60361 169.879 5.57072 169.717 5.52924V4.7168H173.171V5.52924C173.007 5.57072 172.836 5.60361 172.656 5.62793C172.476 5.65225 172.293 5.6737 172.105 5.68944V12.0559C172.293 12.0731 172.476 12.0931 172.656 12.1174C172.835 12.1418 173.007 12.1746 173.171 12.2161V13.0286H169.717V13.0271Z"/><path fill="#241F21" d="M179.072 7.0553C179.03 6.85076 179.001 6.6591 178.979 6.48316C178.959 6.30723 178.941 6.13702 178.924 5.97253C178.736 5.9239 178.558 5.891 178.392 5.87383C178.224 5.8581 178.05 5.84952 177.871 5.84952C177.471 5.84952 177.121 5.92533 176.824 6.07694C176.525 6.22856 176.278 6.43882 176.077 6.70487C175.877 6.97234 175.729 7.29131 175.631 7.66463C175.533 8.03796 175.484 8.44704 175.484 8.89044C175.484 9.36675 175.535 9.79157 175.638 10.1649C175.74 10.5382 175.901 10.8543 176.121 11.1132C176.342 11.3721 176.624 11.5681 176.966 11.7039C177.309 11.8398 177.722 11.9071 178.203 11.9071C178.513 11.9071 178.833 11.8727 179.164 11.8026C179.494 11.7326 179.79 11.641 180.052 11.5252L180.137 12.7567C179.794 12.8711 179.434 12.9641 179.059 13.0342C178.683 13.1043 178.295 13.1386 177.895 13.1386C176.597 13.1386 175.624 12.7839 174.975 12.073C174.326 11.3635 174.002 10.3766 174.002 9.11215C174.002 8.45562 174.086 7.85201 174.252 7.30276C174.42 6.7535 174.673 6.28148 175.012 5.88671C175.35 5.49336 175.779 5.18441 176.298 4.9627C176.816 4.741 177.43 4.63086 178.14 4.63086C178.45 4.63086 178.769 4.65088 179.096 4.69236C179.422 4.73384 179.745 4.79106 180.063 4.86544V7.05673H179.072V7.0553Z"/><path fill="#241F21" d="M186.002 13.0266V12.2142C186.141 12.1813 186.292 12.1527 186.454 12.1284C186.618 12.104 186.777 12.0826 186.932 12.0668L186.504 10.8968H183.234L182.817 12.0668C182.972 12.0826 183.131 12.104 183.295 12.1284C183.459 12.1527 183.609 12.1813 183.747 12.2142V13.0266H180.771V12.2142C180.878 12.1813 180.993 12.1541 181.12 12.1341C181.247 12.1141 181.366 12.0955 181.481 12.0783L184.114 4.71484H185.719L188.389 12.0783C188.503 12.094 188.624 12.1126 188.75 12.1341C188.877 12.1541 188.993 12.1813 189.099 12.2142V13.0266H186.001H186.002ZM185.242 7.33811C185.161 7.12499 185.092 6.91472 185.035 6.71018C184.978 6.50564 184.924 6.2868 184.875 6.05794H184.851C184.81 6.27107 184.757 6.48848 184.692 6.71018C184.626 6.93189 184.552 7.15359 184.471 7.3753L183.578 9.8498H186.161L185.242 7.33811Z"/><path fill="#241F21" d="M132.79 20.1261C132.639 20.4708 132.423 20.7683 132.142 21.0186C131.86 21.2689 131.521 21.4663 131.126 21.6094C130.73 21.7524 130.291 21.8253 129.81 21.8253H129.516C129.409 21.8253 129.304 21.8168 129.197 21.801V23.8936C129.385 23.9108 129.568 23.9308 129.747 23.9551C129.927 23.9794 130.099 24.0123 130.262 24.0538V24.8663H126.809V24.0538C126.972 24.0123 127.143 23.9794 127.324 23.9551C127.503 23.9308 127.686 23.9094 127.874 23.8936V17.5271C127.686 17.5114 127.503 17.4899 127.324 17.4656C127.144 17.4413 126.972 17.4084 126.809 17.3669V16.5545H127.739C127.837 16.5545 127.969 16.5531 128.137 16.5488C128.305 16.5445 128.49 16.5388 128.695 16.5302C128.898 16.5216 129.112 16.5159 129.332 16.5116C129.553 16.5073 129.769 16.5059 129.981 16.5059C130.968 16.5059 131.722 16.729 132.24 17.1767C132.757 17.6244 133.018 18.2337 133.018 19.0047C133.018 19.4066 132.942 19.7799 132.792 20.1246L132.79 20.1261ZM131.211 18.002C130.93 17.736 130.487 17.6015 129.883 17.6015H129.527C129.42 17.6015 129.311 17.6101 129.197 17.6258V20.6668C129.295 20.6839 129.393 20.6954 129.491 20.7039C129.59 20.7125 129.688 20.7168 129.786 20.7168C130.349 20.7082 130.799 20.5623 131.133 20.2791C131.467 19.9959 131.635 19.6083 131.635 19.1148C131.635 18.6213 131.494 18.2666 131.213 18.0006L131.211 18.002Z"/><path fill="#241F21" d="M141.068 22.4515C140.86 22.9936 140.576 23.4527 140.217 23.8303C139.857 24.2079 139.438 24.4954 138.956 24.6928C138.473 24.8902 137.96 24.9875 137.412 24.9875C136.783 24.9875 136.237 24.8888 135.771 24.6928C135.305 24.4954 134.917 24.2151 134.607 23.8489C134.297 23.4842 134.066 23.0451 133.916 22.5316C133.765 22.0181 133.689 21.4416 133.689 20.8008C133.689 20.1114 133.793 19.4964 134.001 18.9543C134.209 18.4122 134.493 17.9544 134.852 17.5811C135.21 17.2078 135.631 16.9217 136.113 16.7258C136.596 16.5284 137.109 16.4297 137.657 16.4297C138.204 16.4297 138.718 16.5155 139.175 16.6886C139.631 16.8617 140.024 17.122 140.35 17.471C140.675 17.82 140.929 18.2548 141.109 18.7755C141.288 19.2975 141.378 19.9069 141.378 20.6035C141.378 21.3 141.274 21.9079 141.066 22.45L141.068 22.4515ZM139.337 18.4093C138.914 17.8701 138.314 17.6011 137.534 17.6011C137.214 17.6011 136.907 17.6655 136.611 17.7928C136.315 17.9201 136.058 18.1118 135.836 18.3664C135.614 18.621 135.436 18.9385 135.301 19.3161C135.166 19.6952 135.098 20.1343 135.098 20.6364C135.098 21.1055 135.148 21.536 135.246 21.9265C135.344 22.317 135.492 22.6503 135.688 22.9263C135.884 23.2024 136.135 23.4155 136.439 23.5686C136.742 23.7202 137.099 23.796 137.51 23.796C137.813 23.796 138.113 23.7345 138.409 23.6115C138.705 23.4885 138.97 23.2997 139.203 23.0436C139.436 22.789 139.624 22.4701 139.763 22.0882C139.903 21.7063 139.973 21.2557 139.973 20.7365C139.973 19.7252 139.761 18.95 139.338 18.4107L139.337 18.4093Z"/><path fill="#241F21" d="M146.989 24.8677L144.76 21.2718H144.552V23.8936C144.854 23.9179 145.136 23.968 145.397 24.0409V24.8663H142.164V24.0538C142.328 24.0123 142.498 23.9794 142.679 23.9551C142.858 23.9308 143.042 23.9094 143.23 23.8936V17.5271C143.042 17.5114 142.858 17.4899 142.679 17.4656C142.5 17.4413 142.328 17.4084 142.164 17.3669V16.5545H143.119C143.2 16.5545 143.318 16.5531 143.474 16.5488C143.629 16.5445 143.811 16.5388 144.019 16.5302C144.227 16.5216 144.451 16.5159 144.692 16.5116C144.932 16.5073 145.18 16.5059 145.433 16.5059C145.857 16.5059 146.247 16.5473 146.602 16.6289C146.958 16.7104 147.264 16.8406 147.521 17.0165C147.779 17.1939 147.976 17.4256 148.116 17.7116C148.254 17.9991 148.323 18.3482 148.323 18.7587C148.323 19.0705 148.271 19.3565 148.164 19.614C148.057 19.8729 147.907 20.0989 147.71 20.2906C147.514 20.4837 147.284 20.6439 147.019 20.7712C146.753 20.8985 146.461 20.9871 146.143 21.0358C146.231 21.1431 146.316 21.2561 146.396 21.3748C146.477 21.4935 146.552 21.6108 146.625 21.7252L148.053 23.8793C148.184 23.8965 148.322 23.9165 148.47 23.9408C148.616 23.9651 148.772 23.9952 148.935 24.0266V24.8634H146.988L146.989 24.8677ZM146.501 17.9105C146.225 17.7059 145.807 17.6029 145.247 17.6029C145.117 17.6029 144.993 17.6044 144.875 17.6087C144.757 17.613 144.651 17.6187 144.552 17.6273V20.262C144.618 20.2705 144.705 20.2763 144.814 20.2806C144.924 20.2848 145.052 20.2863 145.198 20.2863C145.735 20.2863 146.154 20.1618 146.459 19.9101C146.763 19.6598 146.915 19.3251 146.915 18.906C146.915 18.4468 146.777 18.1136 146.501 17.909V17.9105Z"/><path fill="#241F21" d="M155.009 18.7589C154.968 18.5457 154.934 18.3483 154.905 18.1681C154.877 17.9879 154.854 17.8191 154.839 17.6632H153.345V23.8953C153.533 23.911 153.716 23.9324 153.895 23.9568C154.075 23.9811 154.247 24.014 154.409 24.0554V24.8665H150.955V24.0554C151.119 24.0154 151.289 23.9825 151.47 23.9568C151.649 23.9324 151.833 23.9124 152.021 23.8953V17.6632H150.514C150.499 17.8191 150.477 17.9879 150.453 18.1681C150.429 18.3483 150.396 18.5457 150.355 18.7589H149.4V16.5547H155.964V18.7589H155.008H155.009Z"/><path fill="#241F21" d="M163.813 17.5282V21.6906C163.813 22.8077 163.53 23.6358 162.962 24.1779C162.395 24.72 161.564 24.9904 160.47 24.9904C159.817 24.9904 159.287 24.9088 158.878 24.7444C158.47 24.5799 158.151 24.361 157.922 24.085C157.693 23.8103 157.537 23.4957 157.452 23.1424C157.366 22.7891 157.324 22.42 157.324 22.0338V17.5268C157.184 17.5111 157.046 17.4896 156.907 17.4653C156.767 17.441 156.638 17.4124 156.516 17.3795V16.5542H159.577V17.3795C159.43 17.421 159.277 17.451 159.117 17.4725C158.958 17.4925 158.802 17.5111 158.647 17.5282V21.9366C158.647 22.2155 158.674 22.4744 158.726 22.7118C158.779 22.9507 158.876 23.1552 159.014 23.3269C159.152 23.4985 159.346 23.6344 159.595 23.7331C159.844 23.8318 160.16 23.8804 160.544 23.8804C160.878 23.8804 161.169 23.8432 161.413 23.7703C161.658 23.6959 161.86 23.5758 162.019 23.407C162.179 23.2382 162.297 23.0194 162.375 22.7476C162.452 22.4772 162.492 22.1483 162.492 21.7621V17.5268C162.336 17.5111 162.177 17.4925 162.014 17.471C161.85 17.451 161.699 17.4195 161.561 17.378V16.5527H164.622V17.378C164.361 17.4438 164.092 17.4939 163.814 17.5254L163.813 17.5282Z"/><path fill="#241F21" d="M172.71 21.4868C172.584 21.5068 172.456 21.5254 172.325 21.5426V24.4848C171.908 24.6493 171.458 24.7737 170.978 24.861C170.495 24.9468 170.019 24.9897 169.545 24.9897C168.908 24.9897 168.335 24.8953 167.825 24.7065C167.315 24.5177 166.882 24.2488 166.528 23.8998C166.172 23.5508 165.899 23.1217 165.707 22.6125C165.515 22.1033 165.42 21.5283 165.42 20.8889C165.42 20.2495 165.524 19.6431 165.733 19.0967C165.942 18.5503 166.241 18.0811 166.629 17.6863C167.017 17.293 167.49 16.9869 168.047 16.7695C168.603 16.5521 169.234 16.4434 169.938 16.4434C170.322 16.4434 170.7 16.4705 171.073 16.5249C171.444 16.5792 171.823 16.6508 172.207 16.7423V18.832H171.215C171.174 18.6432 171.141 18.4616 171.117 18.2842C171.093 18.1083 171.071 17.9381 171.056 17.7736C170.851 17.725 170.646 17.6849 170.441 17.6563C170.236 17.6277 170.036 17.6134 169.84 17.6134C169.423 17.6134 169.033 17.6792 168.673 17.8093C168.313 17.9409 167.997 18.1398 167.727 18.4058C167.457 18.6718 167.244 19.0023 167.088 19.3956C166.933 19.789 166.855 20.2438 166.855 20.7602C166.855 21.7271 167.111 22.4751 167.623 23.0029C168.135 23.5307 168.837 23.7954 169.73 23.7954C169.968 23.7954 170.192 23.7796 170.406 23.7467C170.619 23.7138 170.82 23.6652 171.007 23.5994V21.5554C170.82 21.5397 170.636 21.5182 170.457 21.4939C170.278 21.4696 170.114 21.4367 169.968 21.3952V20.5828H173.079V21.4081C172.963 21.441 172.844 21.4682 172.717 21.4882L172.71 21.4868Z"/><path fill="#241F21" d="M181.007 17.5282V21.6906C181.007 22.8077 180.724 23.6358 180.156 24.1779C179.589 24.72 178.758 24.9904 177.664 24.9904C177.011 24.9904 176.481 24.9088 176.072 24.7444C175.664 24.5799 175.345 24.361 175.118 24.085C174.889 23.8103 174.732 23.4957 174.647 23.1424C174.562 22.7891 174.519 22.42 174.519 22.0338V17.5268C174.38 17.5111 174.242 17.4896 174.102 17.4653C173.963 17.441 173.833 17.4124 173.711 17.3795V16.5542H176.772V17.3795C176.626 17.421 176.472 17.451 176.313 17.4725C176.153 17.4925 175.997 17.5111 175.842 17.5282V21.9366C175.842 22.2155 175.869 22.4744 175.921 22.7118C175.974 22.9507 176.071 23.1552 176.209 23.3269C176.347 23.4985 176.542 23.6344 176.791 23.7331C177.04 23.8318 177.355 23.8804 177.739 23.8804C178.074 23.8804 178.364 23.8432 178.609 23.7703C178.853 23.6959 179.055 23.5758 179.215 23.407C179.374 23.2382 179.492 23.0194 179.57 22.7476C179.647 22.4772 179.687 22.1483 179.687 21.7621V17.5268C179.532 17.5111 179.372 17.4925 179.209 17.471C179.045 17.451 178.894 17.4195 178.755 17.378V16.5527H181.816V17.378C181.555 17.4438 181.286 17.4939 181.008 17.5254L181.007 17.5282Z"/><path fill="#241F21" d="M182.646 24.8665V24.0526C182.81 24.0111 182.981 23.9782 183.16 23.9539C183.339 23.9296 183.523 23.9081 183.711 23.8924V17.5159C183.523 17.5001 183.339 17.4801 183.16 17.4544C182.981 17.4301 182.809 17.3972 182.646 17.3571V16.5547H188.12V18.5372H187.153C187.12 18.3641 187.092 18.1982 187.068 18.038C187.043 17.8778 187.022 17.7319 187.006 17.6003H185.035V20.0991H186.614C186.629 19.9604 186.651 19.8259 186.675 19.6986C186.699 19.5713 186.732 19.4511 186.773 19.3353H187.605V21.847H186.773C186.732 21.7326 186.699 21.6067 186.675 21.4708C186.651 21.3349 186.629 21.2062 186.614 21.0832H185.035V23.7794H187.019C187.035 23.6321 187.056 23.4762 187.08 23.3117C187.105 23.1472 187.137 22.9755 187.179 22.7939H188.146V24.8622H182.648L182.646 24.8665Z"/><path fill="#241F21" d="M194.291 23.4137C194.144 23.7341 193.935 24.0102 193.666 24.2447C193.398 24.4793 193.069 24.661 192.681 24.7926C192.292 24.9242 191.858 24.99 191.376 24.99C190.706 24.99 190.103 24.9199 189.564 24.7783V22.6871H190.544C190.577 22.8759 190.605 23.059 190.629 23.2349C190.654 23.4108 190.675 23.5782 190.691 23.7341C190.804 23.7584 190.927 23.7799 191.058 23.7956C191.188 23.8128 191.311 23.8199 191.425 23.8199C191.661 23.8199 191.881 23.7956 192.086 23.7455C192.289 23.6969 192.467 23.6211 192.619 23.5181C192.77 23.4151 192.888 23.2821 192.975 23.1191C193.06 22.9546 193.103 22.7629 193.103 22.5412C193.103 22.2551 193.011 22.0248 192.827 21.8532C192.644 21.6816 192.417 21.5342 192.147 21.4112C191.878 21.2882 191.581 21.1709 191.26 21.0608C190.937 20.9506 190.641 20.8047 190.372 20.6245C190.103 20.4443 189.875 20.2169 189.692 19.9422C189.508 19.6676 189.416 19.3057 189.416 18.8552C189.416 18.5033 189.483 18.1772 189.618 17.8782C189.753 17.5793 189.948 17.3233 190.206 17.1101C190.463 16.897 190.777 16.7311 191.149 16.6124C191.52 16.4937 191.942 16.4336 192.416 16.4336C192.71 16.4336 192.989 16.4479 193.255 16.4765C193.52 16.5051 193.792 16.548 194.069 16.6067V18.6134H193.089C193.048 18.4332 193.018 18.2559 192.998 18.0842C192.978 17.9126 192.959 17.7524 192.944 17.6036C192.878 17.5879 192.792 17.5722 192.682 17.5607C192.573 17.5478 192.469 17.5421 192.372 17.5421C191.853 17.5421 191.464 17.6508 191.208 17.8682C190.952 18.0856 190.824 18.3674 190.824 18.7121C190.824 18.9911 190.915 19.2156 191.099 19.383C191.282 19.5518 191.51 19.6977 191.782 19.8207C192.055 19.9437 192.349 20.0653 192.666 20.184C192.984 20.3027 193.278 20.4514 193.551 20.6274C193.824 20.8047 194.052 21.0279 194.234 21.2982C194.417 21.5686 194.509 21.9219 194.509 22.3567C194.509 22.7429 194.435 23.0962 194.288 23.4151L194.291 23.4137Z"/><path fill="#241F21" d="M200.169 24.8665V24.054C200.307 24.0211 200.459 23.9925 200.621 23.9682C200.784 23.9439 200.944 23.9224 201.099 23.9067L200.671 22.7367H197.402L196.985 23.9067C197.14 23.9224 197.299 23.9439 197.463 23.9682C197.627 23.9925 197.777 24.0211 197.915 24.054V24.8665H194.939V24.054C195.046 24.0211 195.161 23.9939 195.288 23.9739C195.415 23.9539 195.535 23.9353 195.649 23.9181L198.282 16.5547H199.887L202.557 23.9181C202.671 23.9339 202.792 23.9525 202.918 23.9739C203.045 23.9939 203.161 24.0211 203.267 24.054V24.8665H200.169ZM199.409 19.178C199.328 18.9648 199.258 18.756 199.201 18.55C199.144 18.3455 199.092 18.1266 199.042 17.8978H199.018C198.976 18.1109 198.924 18.3283 198.858 18.55C198.793 18.7717 198.719 18.9934 198.638 19.2151L197.745 21.6896H200.328L199.409 19.178Z"/><path fill="#241F21" d="M106.639 23.5912V30.7529C106.639 30.7529 99.3348 30.8874 99.6734 27.7921C100.221 24.1118 106.639 23.5912 106.639 23.5912ZM105.7 12.639C105.7 12.5932 105.665 12.5603 105.619 12.5603H105.605L105.571 12.2399C105.617 12.237 105.646 12.2041 105.646 12.1626C105.646 12.1183 105.611 12.0825 105.565 12.0825H105.557L105.548 11.9395H105.584C105.584 11.9395 105.598 11.9338 105.598 11.9238V11.8222H105.551V11.8737H105.486V11.8222H105.436V11.8737H105.37V11.8222H105.324V11.9209C105.324 11.9281 105.331 11.9395 105.339 11.9395H105.373L105.366 12.0825H105.278L105.26 11.775H105.285C105.294 11.775 105.301 11.7707 105.301 11.7621V11.6592H105.252V11.7092H105.188V11.6592H105.14V11.7092H105.072V11.6592H105.028V11.7579C105.028 11.7579 105.035 11.775 105.043 11.775H105.067L105.049 12.0825H104.959L104.951 11.9395H104.986C104.986 11.9395 105.002 11.9338 105.002 11.9238V11.8222H104.954V11.8737H104.888V11.8222H104.84V11.8737H104.772V11.8222H104.725V11.9209C104.725 11.9281 104.733 11.9395 104.743 11.9395H104.776L104.769 12.0825H104.762C104.719 12.0825 104.682 12.1183 104.682 12.1626C104.682 12.2027 104.715 12.2356 104.756 12.2399L104.723 12.5603H104.709C104.668 12.5603 104.631 12.5946 104.631 12.639C104.631 12.6804 104.668 12.7133 104.709 12.7133H105.621C105.666 12.7133 105.702 12.6804 105.702 12.639M104.949 12.5603C104.958 12.2942 105.163 12.2313 105.164 12.2313C105.166 12.2313 105.369 12.2942 105.379 12.5603H104.949ZM106.427 15.072L106.419 15.082L106.174 14.8817C106.197 14.8474 106.197 14.8031 106.168 14.7702C106.136 14.7416 106.085 14.7416 106.056 14.7702L106.048 14.7788L105.944 14.6829L105.949 14.6786L105.969 14.6586C105.969 14.6586 105.976 14.6429 105.969 14.6372L105.9 14.5671L105.865 14.5971L105.901 14.6343L105.853 14.6815L105.819 14.6457L105.783 14.6801L105.819 14.7158L105.772 14.763L105.737 14.7287L105.703 14.7616L105.772 14.8317C105.772 14.8317 105.79 14.8374 105.796 14.8317L105.811 14.8159L105.819 14.8074L105.911 14.9132L105.85 14.9747L105.621 14.7716L105.641 14.7559C105.641 14.7559 105.648 14.7401 105.641 14.733L105.571 14.66L105.537 14.6929L105.571 14.7301L105.524 14.7773L105.489 14.7416L105.454 14.7759L105.49 14.8102L105.443 14.8603L105.407 14.8245L105.375 14.8589L105.444 14.9275C105.447 14.9347 105.46 14.9347 105.467 14.9275L105.484 14.9089L105.686 15.1378L105.625 15.2007L105.52 15.1106L105.523 15.1034L105.543 15.0849C105.543 15.0849 105.55 15.0705 105.543 15.062L105.471 14.9919L105.437 15.0248L105.477 15.0605L105.429 15.1092L105.395 15.072L105.359 15.1077L105.395 15.1421L105.348 15.1893L105.311 15.1549L105.278 15.1878L105.351 15.2579C105.351 15.2579 105.366 15.2651 105.372 15.2579L105.39 15.2379L105.398 15.2336L105.489 15.338L105.486 15.3423C105.453 15.3766 105.453 15.4281 105.486 15.4582C105.514 15.4882 105.561 15.4882 105.595 15.4653L105.796 15.7128L105.786 15.7228C105.755 15.7514 105.755 15.8015 105.786 15.8329C105.819 15.8658 105.868 15.8658 105.898 15.8329L106.541 15.1864C106.572 15.1535 106.572 15.1049 106.541 15.0748C106.51 15.0419 106.46 15.0419 106.427 15.0734M105.952 15.5511C105.772 15.3552 105.874 15.1664 105.875 15.1635C105.88 15.1635 106.063 15.0605 106.261 15.2408L105.952 15.5511ZM104.708 9.83403H105.619C105.665 9.83403 105.7 9.79827 105.7 9.75679C105.7 9.71388 105.665 9.67526 105.619 9.67526H105.605L105.571 9.35773C105.617 9.35344 105.646 9.31768 105.646 9.27906C105.646 9.23186 105.611 9.20039 105.565 9.20039H105.557L105.548 9.05592H105.584C105.584 9.05592 105.598 9.0502 105.598 9.04162V8.93863H105.551V8.99013H105.486V8.93863H105.436V8.99013H105.37V8.93863H105.324V9.04019C105.324 9.04019 105.331 9.05592 105.339 9.05592H105.373L105.366 9.20039H105.278L105.26 8.89286H105.285C105.294 8.89286 105.301 8.88714 105.301 8.8757V8.777H105.252V8.8242H105.188V8.777H105.14V8.8242H105.072V8.777H105.028V8.8757C105.028 8.8757 105.035 8.89 105.043 8.89286H105.067L105.049 9.20039H104.959L104.951 9.05592H104.986C104.986 9.05592 105.002 9.0502 105.002 9.04162V8.93863H104.954V8.99013H104.888V8.93863H104.84V8.99013H104.772V8.93863H104.725V9.04019C104.725 9.04019 104.733 9.05592 104.743 9.05592H104.776L104.769 9.20039H104.762C104.719 9.20039 104.682 9.23329 104.682 9.27906C104.682 9.31911 104.715 9.35344 104.756 9.3563L104.723 9.67526H104.709C104.668 9.67526 104.631 9.71245 104.631 9.75679C104.631 9.79827 104.668 9.83403 104.709 9.83403M105.164 9.34771C105.164 9.34771 105.369 9.40779 105.379 9.67526H104.949C104.958 9.40636 105.163 9.34771 105.164 9.34771ZM110.241 9.83403H111.154C111.197 9.83403 111.231 9.79827 111.231 9.75679C111.231 9.71388 111.197 9.67526 111.154 9.67526H111.14L111.106 9.35773C111.147 9.35344 111.18 9.31768 111.18 9.27906C111.18 9.23186 111.143 9.20039 111.1 9.20039H111.092L111.083 9.05592H111.117C111.117 9.05592 111.132 9.0502 111.132 9.04162V8.93863H111.086V8.99013H111.021V8.93863H110.971V8.99013H110.904V8.93863H110.858V9.04019C110.858 9.04019 110.864 9.05592 110.874 9.05592H110.908L110.9 9.20039H110.814L110.794 8.89286H110.819C110.827 8.89286 110.836 8.88714 110.836 8.8757V8.777H110.789V8.8242H110.722V8.777H110.672V8.8242H110.607V8.777H110.561V8.8757C110.561 8.8757 110.568 8.89 110.577 8.89286H110.602L110.584 9.20039H110.493L110.487 9.05592H110.52C110.527 9.05592 110.538 9.0502 110.538 9.04162V8.93863H110.49V8.99013H110.422V8.93863H110.375V8.99013H110.308V8.93863H110.261V9.04019C110.261 9.04019 110.27 9.05592 110.275 9.05592H110.311L110.302 9.20039H110.295C110.25 9.20039 110.217 9.23329 110.217 9.27906C110.217 9.31911 110.245 9.35344 110.288 9.3563L110.258 9.67526H110.243C110.2 9.67526 110.166 9.71245 110.166 9.75679C110.166 9.79827 110.2 9.83403 110.243 9.83403M110.696 9.34771H110.698C110.698 9.34771 110.901 9.40779 110.914 9.67526H110.48C110.489 9.40636 110.693 9.34771 110.695 9.34771M108.4 9.67669H108.382L108.353 9.35916C108.395 9.35487 108.426 9.31911 108.426 9.28049C108.426 9.23329 108.392 9.20182 108.348 9.20182H108.336L108.328 9.05735H108.363C108.371 9.05735 108.378 9.05163 108.378 9.04305V8.94006H108.334V8.99156H108.264V8.94006H108.217V8.99156H108.15V8.94006H108.103V9.04162C108.103 9.04162 108.112 9.05735 108.119 9.05735H108.153L108.144 9.20182H108.056L108.04 8.89429H108.065C108.065 8.89429 108.082 8.88857 108.082 8.87713V8.77843H108.035V8.82564H107.967V8.77843H107.92V8.82564H107.85V8.77843H107.807V8.87713C107.807 8.87713 107.814 8.89143 107.823 8.89429H107.848L107.83 9.20182H107.742L107.732 9.05735H107.766C107.766 9.05735 107.784 9.05163 107.784 9.04305V8.94006H107.735V8.99156H107.668V8.94006H107.624V8.99156H107.554V8.94006H107.51V9.04162C107.51 9.04162 107.517 9.05735 107.524 9.05735H107.56L107.551 9.20182H107.544C107.499 9.20182 107.463 9.23472 107.463 9.28049C107.463 9.32054 107.496 9.35487 107.534 9.35773L107.501 9.67669H107.491C107.446 9.67669 107.413 9.71388 107.413 9.75822C107.413 9.79971 107.447 9.83546 107.491 9.83546H108.402C108.444 9.83546 108.48 9.79971 108.48 9.75822C108.48 9.71531 108.444 9.67669 108.402 9.67669M107.728 9.67669C107.736 9.40779 107.941 9.34914 107.942 9.34914C107.944 9.34914 108.149 9.40922 108.159 9.67669H107.726H107.728ZM110.56 15.1893L110.511 15.1421L110.547 15.1077L110.513 15.072L110.477 15.1092L110.43 15.0605L110.464 15.0248L110.433 14.9919L110.362 15.062C110.353 15.0705 110.355 15.0806 110.362 15.0849L110.38 15.1034L110.386 15.1106L110.281 15.2007L110.218 15.1378L110.42 14.9089L110.439 14.9275C110.446 14.9347 110.459 14.9347 110.462 14.9275L110.531 14.8589L110.501 14.8245L110.466 14.8603L110.417 14.8102L110.452 14.7759L110.417 14.7416L110.383 14.7773L110.335 14.7301L110.371 14.6929L110.339 14.66L110.265 14.733C110.265 14.733 110.261 14.7516 110.27 14.7559L110.285 14.7716L110.056 14.9747L109.996 14.9132L110.087 14.8074L110.093 14.8159L110.112 14.8317C110.119 14.8374 110.132 14.8374 110.133 14.8317L110.204 14.7616L110.17 14.7287L110.136 14.763L110.089 14.7158L110.124 14.6801L110.089 14.6457L110.055 14.6815L110.005 14.6343L110.045 14.5971L110.011 14.5671L109.938 14.6372C109.93 14.6429 109.932 14.6557 109.94 14.6586L109.955 14.6786L109.962 14.6829L109.858 14.7788L109.85 14.7702C109.82 14.7416 109.769 14.7416 109.738 14.7702C109.706 14.8031 109.706 14.8474 109.732 14.8817L109.487 15.082L109.479 15.072C109.446 15.0405 109.399 15.0405 109.363 15.0734C109.335 15.1034 109.335 15.1521 109.363 15.185L110.011 15.8315C110.039 15.8644 110.089 15.8644 110.122 15.8315C110.151 15.8015 110.151 15.7514 110.122 15.7214L110.11 15.7113L110.312 15.4639C110.345 15.4868 110.39 15.4868 110.417 15.4567C110.45 15.4281 110.45 15.3752 110.417 15.3409L110.413 15.3366L110.507 15.2322L110.514 15.2365L110.533 15.2565C110.54 15.2636 110.548 15.2622 110.555 15.2565L110.624 15.1864L110.591 15.1535L110.557 15.1878L110.56 15.1893ZM109.952 15.5511L109.646 15.2408C109.846 15.0605 110.028 15.1635 110.029 15.1635H110.031C110.031 15.1635 110.13 15.3538 109.952 15.5511ZM111.154 12.5603H111.14L111.106 12.2399C111.147 12.237 111.18 12.2041 111.18 12.1626C111.18 12.1183 111.143 12.0825 111.1 12.0825H111.092L111.083 11.9395H111.117C111.117 11.9395 111.132 11.9338 111.132 11.9238V11.8222H111.086V11.8737H111.021V11.8222H110.971V11.8737H110.904V11.8222H110.858V11.9209C110.858 11.9281 110.864 11.9395 110.874 11.9395H110.908L110.9 12.0825H110.814L110.794 11.775H110.819C110.827 11.775 110.836 11.7707 110.836 11.7621V11.6592H110.789V11.7092H110.722V11.6592H110.672V11.7092H110.607V11.6592H110.561V11.7579C110.561 11.7579 110.568 11.775 110.577 11.775H110.602L110.584 12.0825H110.493L110.487 11.9395H110.52C110.527 11.9395 110.538 11.9338 110.538 11.9238V11.8222H110.49V11.8737H110.422V11.8222H110.375V11.8737H110.308V11.8222H110.261V11.9209C110.261 11.9281 110.27 11.9395 110.275 11.9395H110.311L110.302 12.0825H110.295C110.25 12.0825 110.217 12.1183 110.217 12.1626C110.217 12.2027 110.245 12.2356 110.288 12.2399L110.258 12.5603H110.243C110.2 12.5603 110.166 12.5946 110.166 12.639C110.166 12.6804 110.2 12.7133 110.243 12.7133H111.156C111.198 12.7133 111.233 12.6804 111.233 12.639C111.233 12.5932 111.198 12.5603 111.156 12.5603M110.481 12.5603C110.49 12.2942 110.695 12.2313 110.696 12.2313H110.698C110.698 12.2313 110.901 12.2942 110.914 12.5603H110.48H110.481ZM108.076 13.9692C108.076 13.9091 108.123 13.8633 108.18 13.8633C108.237 13.8633 108.285 13.9105 108.285 13.9692C108.285 14.0278 108.238 14.0736 108.18 14.0736C108.122 14.0736 108.076 14.0264 108.076 13.9692ZM106.331 12.8435C106.331 12.7863 106.378 12.7391 106.436 12.7391C106.494 12.7391 106.54 12.7863 106.54 12.8435C106.54 12.9007 106.493 12.9493 106.436 12.9493C106.379 12.9493 106.331 12.9007 106.331 12.8435ZM107.605 14.4441C107.605 14.3868 107.652 14.3396 107.709 14.3396C107.766 14.3396 107.814 14.3868 107.814 14.4441C107.814 14.5013 107.767 14.5499 107.709 14.5499C107.651 14.5499 107.605 14.5013 107.605 14.4441ZM107.841 14.208C107.841 14.148 107.888 14.1022 107.945 14.1022C108.002 14.1022 108.049 14.1494 108.049 14.208C108.049 14.2667 108.002 14.3125 107.945 14.3125C107.888 14.3125 107.841 14.2653 107.841 14.208ZM107.605 13.9692C107.605 13.9091 107.652 13.8633 107.709 13.8633C107.766 13.8633 107.814 13.9105 107.814 13.9692C107.814 14.0278 107.767 14.0736 107.709 14.0736C107.651 14.0736 107.605 14.0264 107.605 13.9692ZM106.568 12.6075C106.568 12.5474 106.615 12.5016 106.672 12.5016C106.729 12.5016 106.777 12.5488 106.777 12.6075C106.777 12.6661 106.729 12.7119 106.672 12.7119C106.615 12.7119 106.568 12.6647 106.568 12.6075ZM108.076 14.4441C108.076 14.3868 108.123 14.3396 108.18 14.3396C108.237 14.3396 108.285 14.3868 108.285 14.4441C108.285 14.5013 108.238 14.5499 108.18 14.5499C108.122 14.5499 108.076 14.5013 108.076 14.4441ZM106.331 12.37C106.331 12.3128 106.378 12.2642 106.436 12.2642C106.494 12.2642 106.54 12.3128 106.54 12.37C106.54 12.4273 106.493 12.4745 106.436 12.4745C106.379 12.4745 106.331 12.4273 106.331 12.37ZM107.841 12.6075C107.841 12.5474 107.888 12.5016 107.945 12.5016C108.002 12.5016 108.049 12.5488 108.049 12.6075C108.049 12.6661 108.002 12.7119 107.945 12.7119C107.888 12.7119 107.841 12.6647 107.841 12.6075ZM106.803 12.8435C106.803 12.7863 106.85 12.7391 106.908 12.7391C106.967 12.7391 107.012 12.7863 107.012 12.8435C107.012 12.9007 106.965 12.9493 106.908 12.9493C106.851 12.9493 106.803 12.9007 106.803 12.8435ZM107.605 12.37C107.605 12.3128 107.652 12.2642 107.709 12.2642C107.766 12.2642 107.814 12.3128 107.814 12.37C107.814 12.4273 107.767 12.4745 107.709 12.4745C107.651 12.4745 107.605 12.4273 107.605 12.37ZM108.076 12.37C108.076 12.3128 108.123 12.2642 108.18 12.2642C108.237 12.2642 108.285 12.3128 108.285 12.37C108.285 12.4273 108.238 12.4745 108.18 12.4745C108.122 12.4745 108.076 12.4273 108.076 12.37ZM106.803 12.37C106.803 12.3128 106.85 12.2642 106.908 12.2642C106.967 12.2642 107.012 12.3128 107.012 12.37C107.012 12.4273 106.965 12.4745 106.908 12.4745C106.851 12.4745 106.803 12.4273 106.803 12.37ZM107.709 12.9508C107.652 12.9508 107.605 12.9021 107.605 12.8449C107.605 12.7877 107.652 12.7405 107.709 12.7405C107.766 12.7405 107.814 12.7877 107.814 12.8449C107.814 12.9021 107.767 12.9508 107.709 12.9508ZM108.076 12.8435C108.076 12.7863 108.123 12.7391 108.18 12.7391C108.237 12.7391 108.285 12.7863 108.285 12.8435C108.285 12.9007 108.238 12.9493 108.18 12.9493C108.122 12.9493 108.076 12.9007 108.076 12.8435ZM109.349 12.8435C109.349 12.7863 109.396 12.7391 109.453 12.7391C109.51 12.7391 109.558 12.7863 109.558 12.8435C109.558 12.9007 109.51 12.9493 109.453 12.9493C109.396 12.9493 109.349 12.9007 109.349 12.8435ZM109.349 12.37C109.349 12.3128 109.396 12.2642 109.453 12.2642C109.51 12.2642 109.558 12.3128 109.558 12.37C109.558 12.4273 109.51 12.4745 109.453 12.4745C109.396 12.4745 109.349 12.4273 109.349 12.37ZM108.877 12.8435C108.877 12.7863 108.924 12.7391 108.982 12.7391C109.04 12.7391 109.086 12.7863 109.086 12.8435C109.086 12.9007 109.039 12.9493 108.982 12.9493C108.925 12.9493 108.877 12.9007 108.877 12.8435ZM107.605 11.2444C107.605 11.1871 107.652 11.1399 107.709 11.1399C107.766 11.1399 107.814 11.1871 107.814 11.2444C107.814 11.3016 107.767 11.3502 107.709 11.3502C107.651 11.3502 107.605 11.3016 107.605 11.2444ZM108.877 12.37C108.877 12.3128 108.924 12.2642 108.982 12.2642C109.04 12.2642 109.086 12.3128 109.086 12.37C109.086 12.4273 109.039 12.4745 108.982 12.4745C108.925 12.4745 108.877 12.4273 108.877 12.37ZM109.113 12.6075C109.113 12.5474 109.16 12.5016 109.217 12.5016C109.274 12.5016 109.322 12.5488 109.322 12.6075C109.322 12.6661 109.275 12.7119 109.217 12.7119C109.159 12.7119 109.113 12.6647 109.113 12.6075ZM108.076 11.2444C108.076 11.1871 108.123 11.1399 108.18 11.1399C108.237 11.1399 108.285 11.1871 108.285 11.2444C108.285 11.3016 108.238 11.3502 108.18 11.3502C108.122 11.3502 108.076 11.3016 108.076 11.2444ZM107.605 10.7709C107.605 10.7137 107.652 10.6651 107.709 10.6651C107.766 10.6651 107.814 10.7137 107.814 10.7709C107.814 10.8281 107.767 10.8753 107.709 10.8753C107.651 10.8753 107.605 10.8281 107.605 10.7709ZM107.841 11.0069C107.841 10.9497 107.888 10.9025 107.945 10.9025C108.002 10.9025 108.049 10.9497 108.049 11.0069C108.049 11.0641 108.002 11.1128 107.945 11.1128C107.888 11.1128 107.841 11.0656 107.841 11.0069ZM108.076 10.7709C108.076 10.7137 108.123 10.6651 108.18 10.6651C108.237 10.6651 108.285 10.7137 108.285 10.7709C108.285 10.8281 108.238 10.8753 108.18 10.8753C108.122 10.8753 108.076 10.8281 108.076 10.7709ZM105.853 9.99709L105.848 13.3098C105.848 13.8548 106.067 14.3754 106.467 14.7759C106.861 15.1721 107.385 15.3895 107.938 15.3895C108.491 15.3895 109.013 15.1721 109.409 14.7759C109.802 14.3854 110.016 13.8662 110.016 13.3141V9.99995H105.853V9.99709ZM107.483 12.1069H108.406V12.7705C108.406 13.0981 108.144 13.2654 107.945 13.2654C107.746 13.2654 107.483 13.0981 107.483 12.7705V12.1069ZM107.133 12.7705C107.133 13.0981 106.87 13.2654 106.671 13.2654C106.471 13.2654 106.21 13.0981 106.21 12.7705V12.1069H107.133V12.7705ZM108.406 14.3697C108.406 14.6972 108.144 14.866 107.945 14.866C107.746 14.866 107.483 14.6987 107.483 14.3697V13.7074H108.406V14.3697ZM108.406 11.1714C108.406 11.499 108.144 11.6663 107.945 11.6663C107.746 11.6663 107.483 11.499 107.483 11.1714V10.5077H108.406V11.1714ZM109.679 12.7705C109.679 13.0981 109.416 13.2654 109.217 13.2654C109.018 13.2654 108.756 13.0981 108.756 12.7705V12.1069H109.679V12.7705ZM108.272 4.19702V6.77308C110.105 6.87607 111.709 7.8344 112.701 9.25617C112.775 9.29193 112.831 9.32626 112.878 9.36059C112.878 9.36202 112.884 9.36488 112.884 9.36488C112.895 9.3849 113.23 9.98708 113.245 10.0171C113.26 10.0457 113.243 10.0801 113.204 10.0929C113.225 10.0858 113.248 10.06 113.191 10.0243C112.93 9.87122 112.396 9.7053 111.692 9.55368V8.31071H110.871C110.123 7.79435 109.234 7.46537 108.272 7.4053V8.31071H107.622V2C101.806 3.88377 98.8555 8.77557 98.8555 16.5195V28.144C98.8555 28.144 99.8285 20.6718 107.622 18.5163V17.0587C107.728 17.0673 107.831 17.0759 107.937 17.0759C108.049 17.0759 108.16 17.0687 108.272 17.0587V17.7882C109.745 17.6967 111.052 16.9844 111.935 15.9102C111.991 15.923 112.477 16.1948 112.496 16.2148C111.496 17.485 109.985 18.326 108.272 18.4233V19.6677C105.517 20.217 101.48 22.4411 100.292 25.5665C106.207 18.3446 118.277 25.3233 118.806 11.7421C118.977 7.44392 118.995 2.15162 118.995 2.15162C112.696 2.51064 108.272 4.19845 108.272 4.19845M102.521 10.2646L103.026 9.27477C103.026 9.27477 103.028 9.27047 103.03 9.26904C103.072 9.24044 103.133 9.22184 103.213 9.21898C104.194 7.83154 105.767 6.89466 107.56 6.77737L107.473 7.41674C106.565 7.4997 105.729 7.8201 105.018 8.31071H104.177L104.173 10.7194C103.48 10.4148 102.951 10.2388 102.686 10.2388C102.611 10.2388 102.534 10.2417 102.514 10.3647C102.501 10.3189 102.514 10.2746 102.52 10.2674M102.12 12.9336C102.107 12.9479 102.073 12.9937 102.104 13.0266C102.093 13.018 102.063 13.0023 102.063 12.9751V12.3171C102.063 12.3171 102.063 12.3157 102.065 12.3128C102.077 12.2771 102.107 12.237 102.156 12.197C102.2 11.5247 102.358 10.8839 102.611 10.2932C102.638 10.3003 103.11 10.5993 103.144 10.6465C102.991 11.0298 102.88 11.4389 102.82 11.8637H102.819C103.173 11.7335 103.626 11.612 104.12 11.5147C104.139 11.5104 104.156 11.509 104.174 11.5061V12.1698C104.164 12.1712 104.154 12.1741 104.144 12.1755C103.671 12.2685 103.164 12.4058 102.769 12.556C102.733 12.5717 102.699 12.5846 102.663 12.5989C102.518 12.6575 102.393 12.7205 102.295 12.782C102.259 12.8049 102.227 12.8292 102.198 12.8535C102.166 12.8793 102.141 12.9064 102.122 12.9322M103.033 15.8515C103.018 15.8272 102.718 15.308 102.718 15.308C102.715 15.3037 102.715 15.3008 102.715 15.3008C102.718 15.2722 102.733 15.2436 102.756 15.2122C102.417 14.5313 102.207 13.7761 102.154 12.9765C102.204 12.9508 102.74 12.8521 102.776 12.8564C102.811 13.5873 102.996 14.2767 103.302 14.8989C103.491 14.8217 103.708 14.7516 103.917 14.6901C104.072 14.6443 104.231 14.6057 104.395 14.5671C104.47 14.7802 104.567 14.9847 104.681 15.1835C104.48 15.2293 104.282 15.2765 104.094 15.3309C103.73 15.4296 103.21 15.6441 103.086 15.8158C103.076 15.8301 103.052 15.8658 103.1 15.8987C103.076 15.8916 103.046 15.8758 103.032 15.8515M103.126 15.8501C103.173 15.8272 103.769 15.7256 103.81 15.7285C104.665 16.8699 105.975 17.6452 107.47 17.7796L107.561 18.4204C105.712 18.3003 104.1 17.3076 103.126 15.8501ZM105.479 15.7686C104.844 15.1349 104.45 14.2653 104.45 13.3098V13.3055L104.454 8.5882H111.415V13.3098C111.415 14.2681 111.026 15.1435 110.396 15.77C109.766 16.4036 108.897 16.7956 107.938 16.7956C106.979 16.7956 106.109 16.4036 105.479 15.7671M113.173 15.3695C113.173 15.3695 112.665 16.1362 112.648 16.1562C112.648 16.1562 112.6 16.2349 112.581 16.2606C112.567 16.2878 112.534 16.3221 112.48 16.3235C112.494 16.315 112.604 16.3092 112.514 16.1233C112.419 15.9216 111.995 15.5211 111.297 14.9833C111.486 14.6057 111.61 14.1952 111.662 13.7675C112.085 14.0865 112.447 14.3811 112.711 14.6343C112.945 14.0779 113.087 13.4728 113.116 12.8363C113.159 12.8363 113.685 12.9479 113.736 12.9737C113.686 13.7575 113.482 14.5013 113.154 15.1707C113.191 15.2522 113.2 15.318 113.174 15.3681M113.826 12.9751C113.826 13.0023 113.797 13.018 113.784 13.0266C113.816 12.9922 113.784 12.9479 113.77 12.9336C113.557 12.6475 112.594 12.3443 111.746 12.1755L111.692 12.1641V11.5018C111.716 11.5075 111.742 11.5118 111.767 11.5161C112.264 11.6134 112.716 11.7378 113.07 11.8651C112.975 11.1857 112.75 10.5478 112.419 9.97993C112.454 9.97993 113.105 10.0429 113.171 10.0615C113.484 10.7151 113.682 11.4375 113.735 12.1984C113.782 12.2385 113.813 12.2771 113.826 12.3143V12.9751Z"/></g></svg>