<svg width="281" height="154" viewBox="0 0 281 154" fill="none" xmlns="http://www.w3.org/2000/svg"><g clip-path="url(#clip0_8810_1752)"><path d="M50.0912 67.9082V68.4969C50.0912 69.4038 49.7271 70.2948 49.0781 70.9312C48.429 71.5836 47.5584 71.9336 46.656 71.9336H9.01208C8.61633 71.9336 8.23641 72.045 7.90398 72.2677C7.22328 72.7292 6.90668 73.5883 7.04915 74.3998L20.6155 151.758" stroke="#241F21" stroke-miterlimit="10"/><path d="M199.229 1.09892L199.229 1.09899L199.237 1.10038C199.575 1.15545 199.831 1.4505 199.831 1.81611V8.79416H189.766V1.81611C189.766 1.47354 190.016 1.16675 190.37 1.09847C193.302 0.56859 196.297 0.56874 199.229 1.09892Z" stroke="#241F21" stroke-miterlimit="10"/><path d="M187.151 1.09892L187.151 1.09899L187.159 1.10038C187.497 1.15545 187.753 1.4505 187.753 1.81611V8.79416H177.688V1.81611C177.688 1.47354 177.938 1.16675 178.292 1.09847C181.224 0.56859 184.218 0.56874 187.151 1.09892Z" stroke="#241F21" stroke-miterlimit="10"/><path d="M175.084 1.09892L175.084 1.09899L175.093 1.10038C175.431 1.15545 175.686 1.4505 175.686 1.81611V8.79416H165.621V1.81611C165.621 1.47354 165.872 1.16675 166.226 1.09847C169.158 0.56859 172.152 0.56874 175.084 1.09892Z" stroke="#241F21" stroke-miterlimit="10"/><path d="M163.026 1.09892L163.026 1.09899L163.034 1.10038C163.372 1.15545 163.628 1.4505 163.628 1.81611V8.79416H153.562V1.81611C153.562 1.47354 153.813 1.16675 154.167 1.09847C157.099 0.56859 160.093 0.56874 163.026 1.09892Z" stroke="#241F21" stroke-miterlimit="10"/><path d="M150.963 1.09892L150.963 1.09899L150.972 1.10038C151.31 1.15545 151.565 1.4505 151.565 1.81611V8.79416H141.5V1.81611C141.5 1.47354 141.75 1.16675 142.105 1.09847C145.037 0.56859 148.031 0.56874 150.963 1.09892Z" stroke="#241F21" stroke-miterlimit="10"/><path d="M138.901 1.09892L138.901 1.09899L138.909 1.10038C139.247 1.15545 139.503 1.4505 139.503 1.81611V8.79416H129.438V1.81611C129.438 1.47354 129.688 1.16675 130.042 1.09847C132.974 0.56859 135.968 0.56874 138.901 1.09892Z" stroke="#241F21" stroke-miterlimit="10"/><path d="M126.834 1.09892L126.834 1.09899L126.843 1.10038C127.181 1.15545 127.436 1.4505 127.436 1.81611V8.79416H117.371V1.81611C117.371 1.47354 117.622 1.16675 117.976 1.09847C120.908 0.56859 123.902 0.56874 126.834 1.09892Z" stroke="#241F21" stroke-miterlimit="10"/><path d="M114.772 1.09892L114.772 1.09899L114.78 1.10038C115.118 1.15545 115.374 1.4505 115.374 1.81611V8.79416H105.309V1.81611C105.309 1.47354 105.559 1.16675 105.913 1.09847C108.845 0.56859 111.84 0.56874 114.772 1.09892Z" stroke="#241F21" stroke-miterlimit="10"/><path d="M102.709 1.09892L102.709 1.09899L102.718 1.10038C103.056 1.15545 103.311 1.4505 103.311 1.81611V8.79416H93.2461V1.81611C93.2461 1.47354 93.4966 1.16675 93.8507 1.09847C96.7829 0.56859 99.777 0.56874 102.709 1.09892Z" stroke="#241F21" stroke-miterlimit="10"/><path d="M90.6467 1.09892L90.6467 1.09899L90.6553 1.10038C90.9931 1.15545 91.2488 1.4505 91.2488 1.81611V8.79416H81.1836V1.81611C81.1836 1.47354 81.4341 1.16675 81.7882 1.09847C84.7204 0.56859 87.7145 0.56874 90.6467 1.09892Z" stroke="#241F21" stroke-miterlimit="10"/><path d="M81.0158 9.29297C78.7996 9.29297 76.9949 11.1068 76.9949 13.3343C76.9949 13.573 77.0107 13.8116 77.0582 14.0344L104.761 149.403C104.777 149.514 104.793 149.642 104.793 149.753C104.793 150.867 103.89 151.774 102.782 151.774H18.2178C17.2363 151.774 16.4131 151.074 16.239 150.103L2.24521 70.2788C2.22938 70.1674 2.21355 70.0402 2.21355 69.9288C2.21355 68.815 3.11586 67.9081 4.22397 67.9081H52.0942V65.8874H4.22397C2.00776 65.8874 0.203125 67.7013 0.203125 69.9288C0.203125 70.1674 0.218955 70.3902 0.266445 70.6288L14.2761 150.453C14.6085 152.378 16.2865 153.794 18.2336 153.794H102.782C104.998 153.794 106.803 151.98 106.803 149.753C106.803 149.514 106.787 149.276 106.74 149.053L79.037 13.6843C79.0212 13.573 79.0053 13.4457 79.0053 13.3343C79.0053 12.2205 79.9077 11.3136 81.0158 11.3136H199.995C200.106 11.3136 200.232 11.3136 200.343 11.3455C201.435 11.5364 202.163 12.5865 201.974 13.6843L178.228 149.053C177.848 151.249 179.305 153.349 181.489 153.731C181.727 153.762 181.948 153.794 182.186 153.794H262.777C264.724 153.794 266.402 152.394 266.734 150.453L280.744 70.6288C281.124 68.4332 279.668 66.333 277.483 65.9511C277.246 65.9034 277.024 65.8874 276.787 65.8874H228.916V67.9081H276.787C276.897 67.9081 277.024 67.9081 277.135 67.9399C278.227 68.1309 278.955 69.181 278.765 70.2788L264.756 150.103C264.582 151.074 263.758 151.774 262.777 151.774H182.186C182.075 151.774 181.948 151.774 181.838 151.742C180.745 151.551 180.017 150.501 180.207 149.403L203.952 14.0344C204.332 11.8387 202.876 9.73847 200.691 9.35661C200.454 9.30888 200.232 9.29297 199.995 9.29297H81.0158Z" stroke="#241F21" stroke-miterlimit="10"/><path d="M83.5039 35.4989L84.9761 35.2125C86.0684 35.0216 86.7966 33.9715 86.6066 32.8736L84.0738 18.5699C84.0421 18.3948 84.0263 18.2198 84.0263 18.0448C84.0263 16.3742 85.3719 15.0059 87.034 15.0059H193.919C194.093 15.0059 194.267 15.0218 194.441 15.0536C196.088 15.34 197.18 16.9151 196.895 18.5699L194.394 32.8736C194.204 33.9715 194.932 35.0216 196.024 35.2125L198.114 35.5784" stroke="#241F21" stroke-miterlimit="10"/><path d="M52.0965 58.4079C52.0965 57.8033 51.6691 57.2942 51.0834 57.1987C48.0915 56.6577 45.0363 56.6577 42.0444 57.1987C41.4587 57.3101 41.0312 57.8192 41.0312 58.4079V65.886" stroke="#241F21" stroke-miterlimit="10"/><path d="M52.0938 65.8862V58.4082" stroke="#241F21" stroke-miterlimit="10"/><path d="M39.0223 58.4079C39.0223 57.8033 38.5949 57.2942 38.0091 57.1987C35.0173 56.6577 31.962 56.6577 28.9702 57.1987C28.3844 57.3101 27.957 57.8192 27.957 58.4079V65.886" stroke="#241F21" stroke-miterlimit="10"/><path d="M39.0195 65.8862V58.4082" stroke="#241F21" stroke-miterlimit="10"/><path d="M25.9637 58.4079C25.9637 57.8033 25.5363 57.2942 24.9505 57.1987C21.9587 56.6577 18.9035 56.6577 15.9116 57.1987C15.3259 57.3101 14.8984 57.8192 14.8984 58.4079V65.886" stroke="#241F21" stroke-miterlimit="10"/><path d="M25.9609 65.8862V58.4082" stroke="#241F21" stroke-miterlimit="10"/><path d="M12.8816 58.4079C12.8816 57.8033 12.4542 57.2942 11.8685 57.1987C8.87663 56.6577 5.82142 56.6577 2.82953 57.1987C2.24382 57.3101 1.81641 57.8192 1.81641 58.4079V66.6338" stroke="#241F21" stroke-miterlimit="10"/><path d="M12.8906 65.8862V58.4082" stroke="#241F21" stroke-miterlimit="10"/><path d="M230.914 67.9082V68.4969C230.914 69.4038 231.278 70.2948 231.927 70.9312C232.576 71.5836 233.447 71.9336 234.349 71.9336H271.993C272.389 71.9336 272.769 72.045 273.101 72.2677C273.782 72.7292 274.099 73.5883 273.956 74.3998L260.39 151.758" stroke="#241F21" stroke-miterlimit="10"/><path d="M279.179 58.4079C279.179 57.8033 278.751 57.2942 278.165 57.1987C275.174 56.6577 272.118 56.6577 269.126 57.1987C268.541 57.3101 268.113 57.8192 268.113 58.4079V65.886" stroke="#241F21" stroke-miterlimit="10"/><path d="M279.18 66.6818V58.4082" stroke="#241F21" stroke-miterlimit="10"/><path d="M266.124 58.4079C266.124 57.8033 265.696 57.2942 265.111 57.1987C262.119 56.6577 259.064 56.6577 256.072 57.1987C255.486 57.3101 255.059 57.8192 255.059 58.4079V65.886" stroke="#241F21" stroke-miterlimit="10"/><path d="M266.117 65.8862V58.4082" stroke="#241F21" stroke-miterlimit="10"/><path d="M253.042 58.4079C253.042 57.8033 252.614 57.2942 252.029 57.1987C249.037 56.6577 245.966 56.6577 242.99 57.1987C242.404 57.3101 241.977 57.8192 241.977 58.4079V65.886" stroke="#241F21" stroke-miterlimit="10"/><path d="M253.043 65.8862V58.4082" stroke="#241F21" stroke-miterlimit="10"/><path d="M239.971 58.4079C239.971 57.8033 239.544 57.2942 238.958 57.1987C235.966 56.6577 232.911 56.6577 229.919 57.1987C229.334 57.3101 228.906 57.8192 228.906 58.4079V65.886" stroke="#241F21" stroke-miterlimit="10"/><path d="M239.969 65.8862V58.4082" stroke="#241F21" stroke-miterlimit="10"/></g><defs><clipPath id="clip0_8810_1752"><rect width="281" height="154" fill="white"/></clipPath></defs></svg>